<svg width="200" height="57" viewBox="0 0 200 57" fill="none" xmlns="http://www.w3.org/2000/svg">
<path fill-rule="evenodd" clip-rule="evenodd" d="M7.10633 0H192.894C196.806 0 200 2.99739 200 6.66834V16.5025C198.977 17.0245 198.439 17.8664 198.421 18.6242C198.403 19.3315 199.103 20.2576 200 20.9143V37.8883C199.426 38.4945 199.121 39.3365 199.803 40.2458C199.856 40.33 199.928 40.3974 200 40.4816V50.2146C200 53.8856 196.806 56.883 192.894 56.883H7.10633C3.19426 56.8493 0 53.8688 0 50.1978V43.7484C1.11261 43.4116 2.04576 42.6033 1.9022 41.1214C1.74069 39.5217 0.915209 38.5114 0 38.0904V6.66834C0 4.83286 0.789592 3.16578 2.08165 1.95335C3.37371 0.740927 5.15029 0 7.10633 0Z" fill="url(#paint0_linear_193_3165)"/>
<path fill-rule="evenodd" clip-rule="evenodd" d="M4.57604 50.1983V6.66885C4.57604 6.02896 4.86317 5.42275 5.3118 5.00177L2.08165 1.9707C0.789592 3.16629 0 4.83338 0 6.66885V38.1077C0.915209 38.5287 1.74069 39.5391 1.9022 41.122C2.04576 42.6038 1.11261 43.4121 0 43.7489V50.1983C0 52.0338 0.789592 53.7009 2.08165 54.9133L5.3118 51.8822C4.86317 51.4276 4.57604 50.8382 4.57604 50.1983Z" fill="url(#paint1_linear_193_3165)"/>
<path fill-rule="evenodd" clip-rule="evenodd" d="M195.406 6.66811V50.1976C195.406 50.8543 195.119 51.4437 194.67 51.8647L197.9 54.8957C199.192 53.6833 199.982 52.0162 199.982 50.1807V40.4476C199.91 40.3803 199.856 40.2961 199.785 40.2119C199.103 39.3026 199.39 38.4606 199.982 37.8544V20.9141C199.085 20.2574 198.367 19.3481 198.403 18.624C198.421 17.8662 198.959 17.0243 199.982 16.5022V6.66811C199.982 4.83264 199.192 3.16555 197.9 1.95312L194.67 4.98419C195.119 5.42201 195.406 6.01138 195.406 6.66811Z" fill="url(#paint2_linear_193_3165)"/>
<path fill-rule="evenodd" clip-rule="evenodd" d="M7.10646 4.29401H193.091C193.791 4.29401 194.419 4.56344 194.868 4.98442L198.098 1.95335C196.824 0.740927 195.047 0 193.091 0H7.10646C5.15043 0 3.37385 0.740927 2.08179 1.95335L5.31194 4.98442C5.77851 4.56344 6.4066 4.29401 7.10646 4.29401Z" fill="url(#paint3_linear_193_3165)"/>
<path fill-rule="evenodd" clip-rule="evenodd" d="M193.091 52.5547H7.10634C6.40647 52.5547 5.77839 52.2852 5.32976 51.8643L2.09961 54.8953C3.39167 56.1077 5.16825 56.8487 7.12428 56.8487H193.091C195.047 56.8487 196.824 56.1077 198.116 54.8953L194.886 51.8643C194.401 52.2852 193.773 52.5547 193.091 52.5547Z" fill="url(#paint4_radial_193_3165)"/>
<path opacity="0.3" fill-rule="evenodd" clip-rule="evenodd" d="M100.099 54.7103C48.6317 54.7103 6.90894 53.8851 6.90894 53.4642C6.90894 53.0432 83.7506 53.0937 100.081 53.0937C116.429 53.0937 193.253 53.06 193.253 53.4642C193.271 53.8851 151.548 54.7103 100.099 54.7103Z" fill="url(#paint5_radial_193_3165)"/>
<path opacity="0.5" fill-rule="evenodd" clip-rule="evenodd" d="M4.57604 34.3694V6.66885C4.57604 6.02896 4.86317 5.42275 5.3118 5.00177L2.08165 1.9707C0.789592 3.16629 0 4.83338 0 6.66885V36.1881C0.807537 35.4303 3.35576 34.4705 4.57604 34.3694Z" fill="url(#paint6_radial_193_3165)"/>
<path opacity="0.5" fill-rule="evenodd" clip-rule="evenodd" d="M193.091 0.640625H7.10629C5.40149 0.640625 3.78642 1.28052 2.58408 2.40875C1.36381 3.53698 0.681885 5.06935 0.681885 6.66908V34.4875C0.681885 36.4577 3.89409 36.4577 3.89409 34.4875V6.66908C3.89409 5.87763 4.23505 5.10303 4.84519 4.54733C5.45533 3.9748 6.26286 3.65485 7.10629 3.65485H193.091C194.85 3.65485 196.303 5.01883 196.303 6.66908V13.169C196.303 15.1392 199.515 15.1392 199.515 13.169V6.66908C199.498 3.35174 196.626 0.640625 193.091 0.640625Z" fill="url(#paint7_radial_193_3165)"/>
<path fill-rule="evenodd" clip-rule="evenodd" d="M70.7224 3.06445C36.1598 3.06445 8.14722 3.45176 8.14722 3.65383C8.14722 3.8559 59.7578 3.83906 70.7224 3.83906C81.7049 3.83906 133.297 3.8559 133.297 3.65383C133.297 3.45176 105.285 3.06445 70.7224 3.06445Z" fill="white"/>
<path fill-rule="evenodd" clip-rule="evenodd" d="M3.15829 54.4071C3.5172 53.8682 4.34268 53.0431 4.89898 52.6894C5.25789 52.4705 5.67063 52.3695 6.08337 52.3527C5.38351 52.0496 4.84515 51.4602 4.66569 50.7529C4.71953 51.2581 4.68364 51.797 4.39652 52.2348C4.05556 52.7736 3.21213 53.5988 2.65583 53.9524C2.24308 54.2218 1.79445 54.2218 1.43555 54.1881C1.86623 54.727 2.40459 55.2153 2.99679 55.6195C2.90706 55.2827 2.87117 54.828 3.15829 54.4071Z" fill="#D6AC8A"/>
<path fill-rule="evenodd" clip-rule="evenodd" d="M197.039 54.4071C196.68 53.8682 195.854 53.0431 195.298 52.6894C194.939 52.4705 194.527 52.3695 194.114 52.3527C194.814 52.0496 195.352 51.4602 195.531 50.7529C195.478 51.2581 195.514 51.797 195.801 52.2348C196.142 52.7736 197.003 53.5988 197.541 53.9524C197.954 54.2218 198.403 54.2218 198.762 54.1881C198.331 54.727 197.793 55.2153 197.2 55.6195C197.272 55.2827 197.326 54.828 197.039 54.4071Z" fill="#D6AC8A"/>
<path fill-rule="evenodd" clip-rule="evenodd" d="M3.15842 2.45852C3.51732 2.99738 4.3428 3.8225 4.89911 4.17612C5.25801 4.39503 5.67075 4.49607 6.08349 4.51291C5.36568 4.79918 4.82733 5.38855 4.64787 6.11264C4.70171 5.60746 4.66582 5.0686 4.37869 4.63078C4.03773 4.07509 3.17636 3.2668 2.638 2.89634C2.22526 2.62691 1.77663 2.62691 1.41772 2.67743C1.84841 2.13857 2.38677 1.65024 2.97896 1.24609C2.90718 1.56604 2.87129 2.03754 3.15842 2.45852Z" fill="url(#paint8_radial_193_3165)"/>
<path fill-rule="evenodd" clip-rule="evenodd" d="M197.039 2.45852C196.68 2.99738 195.854 3.8225 195.298 4.17612C194.939 4.39503 194.527 4.49607 194.114 4.51291C194.814 4.81601 195.352 5.40539 195.531 6.11264C195.478 5.60746 195.514 5.0686 195.801 4.63078C196.142 4.09193 197.003 3.2668 197.541 2.91318C197.954 2.64375 198.403 2.64375 198.762 2.67743C198.331 2.13857 197.793 1.65024 197.2 1.24609C197.272 1.56604 197.326 2.03754 197.039 2.45852Z" fill="url(#paint9_radial_193_3165)"/>
<path fill-rule="evenodd" clip-rule="evenodd" d="M7.10645 4.29395C6.40659 4.29395 5.7785 4.56337 5.32987 4.98435C4.8633 5.42218 4.57617 6.01155 4.57617 6.66828V50.1977C4.57617 51.4944 5.70672 52.5552 7.08851 52.5552H193.091C194.473 52.5552 195.604 51.4944 195.604 50.1977V6.66828C195.604 5.37166 194.473 4.31078 193.091 4.31078H7.10645V4.29395Z" fill="url(#paint10_linear_193_3165)"/>
<path fill-rule="evenodd" clip-rule="evenodd" d="M181.875 51.9658C175.576 51.9658 170.48 52.3531 170.48 52.5552C170.48 52.7573 176.563 52.892 181.875 52.892C187.169 52.892 193.27 52.7573 193.27 52.5552C193.27 52.3531 188.174 51.9658 181.875 51.9658Z" fill="#DBBA67"/>
<path fill-rule="evenodd" clip-rule="evenodd" d="M162.53 52.1006C158.547 52.1006 155.316 52.4037 155.316 52.5552C155.316 52.7068 159.175 52.8078 162.53 52.8078C165.886 52.8078 169.744 52.7068 169.744 52.5552C169.744 52.4037 166.514 52.1006 162.53 52.1006Z" fill="#DBBA67"/>
<path fill-rule="evenodd" clip-rule="evenodd" d="M15.3611 13.5889C19.0399 13.5889 21.301 16.8725 21.301 20.3414C21.301 23.7935 17.8735 26.4035 14.1947 26.4035C10.5159 26.4035 7.51904 23.5914 7.51904 20.1393C7.51904 16.6705 11.6823 13.5889 15.3611 13.5889Z" fill="url(#paint11_linear_193_3165)"/>
<path fill-rule="evenodd" clip-rule="evenodd" d="M7.91384 22.2782C8.02151 19.045 11.8977 16.216 15.3432 16.216C18.681 16.216 20.7806 19.045 20.96 22.1603C21.1754 21.5877 21.301 20.9815 21.301 20.3248C21.301 16.8728 19.0399 13.5723 15.3611 13.5723C11.6823 13.5723 7.51904 16.6538 7.51904 20.1059C7.51904 20.8805 7.6626 21.6046 7.91384 22.2782Z" fill="url(#paint12_linear_193_3165)"/>
<path fill-rule="evenodd" clip-rule="evenodd" d="M20.0805 22.0757C20.5112 22.5472 18.8782 25.1909 16.007 25.7298C13.1357 26.2687 10.3363 25.1573 10.767 24.4837C11.1976 23.8101 13.387 24.2985 15.7916 23.6417C18.1963 22.985 19.6499 21.6042 20.0805 22.0757Z" fill="url(#paint13_linear_193_3165)"/>
<path fill-rule="evenodd" clip-rule="evenodd" d="M31.4039 20.8308C33.3241 20.8813 35.5313 22.6326 35.8723 25.9836C36.2132 29.3346 33.0549 30.5133 30.6143 30.5133C28.1738 30.5133 25.7691 28.0548 26.1998 25.7815C26.6305 23.5082 29.4838 20.7803 31.4039 20.8308Z" fill="url(#paint14_linear_193_3165)"/>
<path fill-rule="evenodd" clip-rule="evenodd" d="M31.404 20.8308C29.4838 20.7803 26.6305 23.5082 26.1998 25.7815C26.1639 25.9836 26.146 26.1857 26.146 26.3877C27.2586 24.2828 29.6812 22.2958 31.4399 22.3295C33.0729 22.3631 34.8674 23.4914 35.8185 25.6468C35.3878 22.4979 33.2523 20.8644 31.404 20.8308Z" fill="url(#paint15_linear_193_3165)"/>
<path fill-rule="evenodd" clip-rule="evenodd" d="M35.4237 26.9097C35.7647 27.2801 34.5624 29.5198 32.2654 29.9576C31.4399 30.1091 30.6862 30.2102 30.0043 30.1091C28.766 29.9239 27.8508 29.2672 28.0662 28.9135C28.4071 28.3747 30.1658 28.762 32.0859 28.24C34.006 27.7179 35.0828 26.5392 35.4237 26.9097Z" fill="url(#paint16_linear_193_3165)"/>
<path fill-rule="evenodd" clip-rule="evenodd" d="M33.4501 8.30327C35.0832 9.26311 34.5627 11.0312 33.3784 12.4457C32.176 13.8771 30.3636 14.0118 29.1074 13.254C27.8512 12.4962 27.0257 10.6776 28.0486 9.14523C29.0715 7.61286 31.8171 7.34344 33.4501 8.30327Z" fill="url(#paint17_linear_193_3165)"/>
<path fill-rule="evenodd" clip-rule="evenodd" d="M27.7614 10.3738C28.874 8.70668 31.8888 8.40357 33.6654 9.4476C34.0243 9.64967 34.2755 9.90226 34.4549 10.1549C34.5088 9.43076 34.2396 8.75719 33.4321 8.28569C31.799 7.32586 29.0534 7.59528 28.0305 9.12766C27.6896 9.61599 27.564 10.1549 27.564 10.66C27.6357 10.5758 27.6896 10.4748 27.7614 10.3738Z" fill="url(#paint18_linear_193_3165)"/>
<path fill-rule="evenodd" clip-rule="evenodd" d="M33.9344 10.8281C34.1497 11.1649 33.091 13.0509 31.6374 13.4382C30.1838 13.8255 28.7662 13.0341 28.9815 12.5457C29.1968 12.0574 30.3094 12.411 31.5297 11.9395C32.7321 11.4849 33.719 10.4913 33.9344 10.8281Z" fill="url(#paint19_linear_193_3165)"/>
<path fill-rule="evenodd" clip-rule="evenodd" d="M19.4707 47.2849C19.04 49.053 16.9225 50.2318 13.3514 49.575C9.78027 48.9183 8.79328 46.7966 9.4752 44.5738C10.193 42.1994 13.818 41.509 16.3303 42.452C18.394 43.2098 19.9014 45.5168 19.4707 47.2849Z" fill="url(#paint20_linear_193_3165)"/>
<path fill-rule="evenodd" clip-rule="evenodd" d="M16.3306 42.4515C13.8182 41.5253 10.1753 42.2157 9.47547 44.5732C9.34986 44.9942 9.27808 45.4152 9.27808 45.8193C10.2292 43.4955 13.9618 42.8388 16.5639 43.7986C17.8559 44.2701 18.9506 45.3141 19.5428 46.476C19.453 44.8763 18.0892 43.0914 16.3306 42.4515Z" fill="url(#paint21_linear_193_3165)"/>
<path fill-rule="evenodd" clip-rule="evenodd" d="M19.0579 46.3079C19.7578 47.0489 18.5554 49.2211 15.756 49.339C12.9565 49.4569 10.7133 48.7328 11.0723 48.1603C11.4491 47.5877 13.3154 48.0087 15.3971 47.4362C17.4608 46.8805 18.3401 45.567 19.0579 46.3079Z" fill="url(#paint22_linear_193_3165)"/>
<path fill-rule="evenodd" clip-rule="evenodd" d="M34.2575 49.3223C32.2476 49.3223 31.0273 50.6357 31.0273 52.0165C31.0273 53.3974 32.8937 54.4246 34.9035 54.4246C36.9134 54.4246 38.5285 53.3132 38.5285 51.9323C38.5285 50.5347 36.2674 49.3223 34.2575 49.3223Z" fill="url(#paint23_linear_193_3165)"/>
<path fill-rule="evenodd" clip-rule="evenodd" d="M34.2575 49.3223C32.2476 49.3223 31.0273 50.6357 31.0273 52.0165C31.0273 52.0334 31.0273 52.0502 31.0273 52.0502C31.6016 51.1577 32.7142 50.5179 34.2037 50.5179C35.8546 50.5179 37.6671 51.2588 38.4926 52.2691C38.5105 52.1513 38.5285 52.0502 38.5285 51.9323C38.5285 50.5347 36.2674 49.3223 34.2575 49.3223Z" fill="url(#paint24_linear_193_3165)"/>
<path fill-rule="evenodd" clip-rule="evenodd" d="M38.1693 52.3193C38.3847 52.6056 37.29 54.0201 35.6211 54.1716C33.9522 54.3232 32.4089 53.6833 32.696 53.3297C32.9832 52.976 34.2214 53.2118 35.6391 52.976C37.0388 52.7234 37.954 52.0162 38.1693 52.3193Z" fill="url(#paint25_linear_193_3165)"/>
<path fill-rule="evenodd" clip-rule="evenodd" d="M169.296 9.02717C169.727 7.84842 172.544 7.17485 174.751 7.74738C176.959 8.31992 178.304 10.2564 177.766 12.0414C177.174 14.0284 174.338 13.9779 172.077 12.9676C170.229 12.1256 168.704 10.6101 169.296 9.02717Z" fill="url(#paint26_linear_193_3165)"/>
<path fill-rule="evenodd" clip-rule="evenodd" d="M169.798 10.3743C170.229 9.19556 173.046 8.52199 175.254 9.09453C176.402 9.39763 177.317 10.0712 177.856 10.8963C177.676 9.49867 176.474 8.20204 174.733 7.74738C172.526 7.17485 169.726 7.84842 169.278 9.02717C169.009 9.7681 169.188 10.4922 169.655 11.1489C169.655 10.8963 169.69 10.6269 169.798 10.3743Z" fill="url(#paint27_linear_193_3165)"/>
<path fill-rule="evenodd" clip-rule="evenodd" d="M177.515 11.2991C177.73 11.6359 177.371 13.0504 175.81 13.404C174.249 13.7577 172.4 12.9662 172.616 12.4779C172.831 11.9895 173.764 12.4779 175.307 12.1242C176.851 11.7706 177.299 10.9623 177.515 11.2991Z" fill="url(#paint28_linear_193_3165)"/>
<path fill-rule="evenodd" clip-rule="evenodd" d="M185.141 11.1471C182.27 11.3997 181.857 13.3699 182.091 15.559C182.342 17.7481 184.101 18.9942 185.931 18.9773C187.743 18.9605 189.843 17.5797 189.843 15.3906C189.825 13.1846 187.995 10.8945 185.141 11.1471Z" fill="url(#paint29_linear_193_3165)"/>
<path fill-rule="evenodd" clip-rule="evenodd" d="M185.141 11.1471C182.27 11.3997 181.857 13.3699 182.091 15.559C182.109 15.761 182.144 15.9631 182.198 16.1483C182.198 14.3802 182.88 12.932 185.303 12.7131C187.636 12.5111 189.287 13.9929 189.825 15.7274C189.843 15.6095 189.843 15.4916 189.843 15.3737C189.825 13.1846 187.995 10.8945 185.141 11.1471Z" fill="url(#paint30_linear_193_3165)"/>
<path fill-rule="evenodd" clip-rule="evenodd" d="M189.412 16.0306C189.681 16.3168 189.071 17.9839 186.846 18.6912C185.626 19.0785 183.436 18.4386 183.688 17.7145C183.849 17.243 185.303 17.6134 186.81 17.2093C188.317 16.8052 189.143 15.7275 189.412 16.0306Z" fill="url(#paint31_linear_193_3165)"/>
<path fill-rule="evenodd" clip-rule="evenodd" d="M186.9 30.8165C185.124 30.8165 184.047 29.2336 184.047 27.5665C184.047 25.8994 185.698 24.6533 187.474 24.6533C189.251 24.6533 190.687 26.0005 190.687 27.6675C190.687 29.3346 188.677 30.8165 186.9 30.8165Z" fill="url(#paint32_linear_193_3165)"/>
<path fill-rule="evenodd" clip-rule="evenodd" d="M187.474 24.6533C185.698 24.6533 184.047 25.8994 184.047 27.5665C184.047 27.8528 184.083 28.139 184.137 28.4085C184.424 26.994 185.913 26.0005 187.51 26.0005C188.982 26.0005 190.238 26.9435 190.615 28.2232C190.669 28.038 190.687 27.8528 190.687 27.6844C190.687 26.0005 189.233 24.6533 187.474 24.6533Z" fill="url(#paint33_linear_193_3165)"/>
<path fill-rule="evenodd" clip-rule="evenodd" d="M190.274 28.1052C190.489 28.4419 189.448 30.0922 187.869 30.53C186.29 30.9678 184.998 30.1259 185.213 29.6375C185.429 29.1492 186.523 29.4691 187.761 29.0313C188.982 28.5935 190.058 27.7684 190.274 28.1052Z" fill="url(#paint34_linear_193_3165)"/>
<path fill-rule="evenodd" clip-rule="evenodd" d="M174.195 46.0552C172.687 44.0008 173.854 41.4076 176.043 39.9931C178.232 38.5786 182.719 38.5786 184.441 41.1381C186.164 43.6977 184.854 46.4257 181.534 47.756C178.214 49.1031 175.702 48.1096 174.195 46.0552Z" fill="url(#paint35_linear_193_3165)"/>
<path fill-rule="evenodd" clip-rule="evenodd" d="M184.441 41.1381C182.718 38.5786 178.232 38.5786 176.043 39.9931C174.141 41.2055 173.028 43.3104 173.728 45.1964C174.105 44.1018 174.948 43.0915 176.043 42.3842C178.232 40.9697 182.718 40.9697 184.441 43.5293C184.692 43.8998 184.872 44.2534 184.997 44.6239C185.374 43.5293 185.231 42.3169 184.441 41.1381Z" fill="url(#paint36_linear_193_3165)"/>
<path fill-rule="evenodd" clip-rule="evenodd" d="M184.388 44.7252C184.711 45.163 182.539 47.6384 179.812 48.0257C177.084 48.413 175.254 47.1669 175.702 46.6112C176.133 46.0724 178.179 46.6449 180.188 46.0724C182.198 45.4998 184.065 44.2874 184.388 44.7252Z" fill="url(#paint37_linear_193_3165)"/>
<path fill-rule="evenodd" clip-rule="evenodd" d="M17.6224 30.9164C16.2406 30.9501 14.6794 32.1962 14.4282 34.5874C14.1769 36.9786 16.438 37.8205 18.1787 37.8205C19.9194 37.8205 21.6422 36.0524 21.3371 34.4359C21.032 32.8193 19.0042 30.8828 17.6224 30.9164Z" fill="url(#paint38_linear_193_3165)"/>
<path fill-rule="evenodd" clip-rule="evenodd" d="M14.4822 34.2338C14.8411 32.0784 16.3305 30.9501 17.6226 30.9164C19.0044 30.8828 21.0322 32.8193 21.3373 34.4527C21.3911 34.7558 21.3732 35.0589 21.3193 35.3452C20.5477 33.7791 18.7352 32.2467 17.4252 32.2804C16.3664 32.2973 15.2 32.954 14.4822 34.2338Z" fill="url(#paint39_linear_193_3165)"/>
<path fill-rule="evenodd" clip-rule="evenodd" d="M20.8706 35.4796C21.068 35.7658 20.0631 37.315 18.448 37.4834C17.8737 37.5339 17.3354 37.5676 16.8688 37.4329C16.0254 37.214 15.4511 36.6751 15.6306 36.4394C15.9177 36.0689 17.0841 36.4731 18.4659 36.2205C19.8298 35.9847 20.6732 35.1933 20.8706 35.4796Z" fill="url(#paint40_linear_193_3165)"/>
<path fill-rule="evenodd" clip-rule="evenodd" d="M189.251 7.03925C188.12 7.69598 188.479 8.92525 189.304 9.90192C190.13 10.8786 191.386 10.9796 192.247 10.4576C193.109 9.9356 193.683 8.67266 192.965 7.61178C192.247 6.55091 190.363 6.38252 189.251 7.03925Z" fill="url(#paint41_linear_193_3165)"/>
<path fill-rule="evenodd" clip-rule="evenodd" d="M192.983 8.45296C192.23 7.32473 190.202 7.12266 188.981 7.82991C188.784 7.94778 188.641 8.06566 188.515 8.21721C188.515 7.76255 188.712 7.34157 189.233 7.03846C190.363 6.38173 192.248 6.56696 192.965 7.62784C193.27 8.0825 193.342 8.57083 193.252 9.02549C193.199 8.82342 193.109 8.63819 192.983 8.45296Z" fill="url(#paint42_linear_193_3165)"/>
<path fill-rule="evenodd" clip-rule="evenodd" d="M193.037 9.09409C193.145 9.313 192.355 10.4244 191.44 10.5759C190.507 10.7275 189.681 10.155 189.861 9.86869C190.022 9.58242 190.686 9.86869 191.476 9.64978C192.265 9.43087 192.929 8.87517 193.037 9.09409Z" fill="url(#paint43_linear_193_3165)"/>
<path fill-rule="evenodd" clip-rule="evenodd" d="M130.014 52.9251C130.085 54.0702 131.27 55.03 133.585 54.9795C135.9 54.9458 136.761 53.6997 136.599 52.2347C136.42 50.6855 134.231 49.8772 132.544 50.1971C131.144 50.4666 129.942 51.7632 130.014 52.9251Z" fill="url(#paint44_linear_193_3165)"/>
<path fill-rule="evenodd" clip-rule="evenodd" d="M132.526 50.2146C134.213 49.8947 136.402 50.6861 136.582 52.2522C136.599 52.4543 136.599 52.6563 136.582 52.8416C135.918 51.5955 133.944 51.0061 132.364 51.3092C131.395 51.4944 130.48 52.1512 129.996 52.9426C129.942 51.7639 131.144 50.4672 132.526 50.2146Z" fill="url(#paint45_linear_193_3165)"/>
<path fill-rule="evenodd" clip-rule="evenodd" d="M136.151 52.8409C136.617 53.3293 135.828 54.7269 133.997 54.8111C132.185 54.8953 130.713 54.4238 130.965 54.0365C131.198 53.6661 132.418 53.9355 133.764 53.565C135.11 53.2114 135.702 52.3526 136.151 52.8409Z" fill="url(#paint46_linear_193_3165)"/>
<path fill-rule="evenodd" clip-rule="evenodd" d="M53.6741 5.40527C55.1456 5.40527 56.0429 6.44931 56.0429 7.54386C56.0429 8.63841 54.6791 9.46353 53.2076 9.46353C51.736 9.46353 50.5517 8.57105 50.5517 7.4765C50.5337 6.38195 52.2026 5.40527 53.6741 5.40527Z" fill="url(#paint47_linear_193_3165)"/>
<path fill-rule="evenodd" clip-rule="evenodd" d="M53.6741 5.40527C55.1456 5.40527 56.0429 6.44931 56.0429 7.54386C56.0429 7.74593 55.9891 7.948 55.9173 8.11639C55.6302 7.19023 54.7329 6.41563 53.405 6.41563C52.3462 6.41563 51.1977 6.87029 50.5517 7.52702C50.5517 7.51018 50.5517 7.49334 50.5517 7.4765C50.5337 6.38195 52.2026 5.40527 53.6741 5.40527Z" fill="url(#paint48_linear_193_3165)"/>
<path fill-rule="evenodd" clip-rule="evenodd" d="M55.6122 7.79651C55.7557 8.01542 54.9841 9.12681 53.7818 9.22784C52.5794 9.34572 51.4668 8.85738 51.6822 8.58795C51.8796 8.30168 52.7768 8.50375 53.7997 8.31852C54.8046 8.11645 55.4507 7.5776 55.6122 7.79651Z" fill="url(#paint49_linear_193_3165)"/>
<path fill-rule="evenodd" clip-rule="evenodd" d="M140.583 47.267C141.372 47.7216 141.121 48.5804 140.547 49.2708C139.973 49.9612 139.093 50.0286 138.483 49.6581C137.873 49.2877 137.478 48.412 137.981 47.6711C138.465 46.947 139.793 46.8123 140.583 47.267Z" fill="url(#paint50_linear_193_3165)"/>
<path fill-rule="evenodd" clip-rule="evenodd" d="M137.963 48.2602C138.484 47.4688 139.919 47.3341 140.745 47.8224C140.87 47.9066 140.978 47.9908 141.068 48.0919C141.068 47.7719 140.924 47.4856 140.565 47.2667C139.776 46.8121 138.448 46.9299 137.963 47.6709C137.748 47.9908 137.694 48.3276 137.766 48.6475C137.82 48.5297 137.873 48.395 137.963 48.2602Z" fill="url(#paint51_linear_193_3165)"/>
<path fill-rule="evenodd" clip-rule="evenodd" d="M140.691 48.5293C140.78 48.6808 140.332 49.5059 139.686 49.6743C139.058 49.8427 138.43 49.4891 138.537 49.287C138.627 49.0849 139.112 49.2365 139.65 49.0176C140.17 48.7987 140.601 48.3777 140.691 48.5293Z" fill="url(#paint52_linear_193_3165)"/>
<path fill-rule="evenodd" clip-rule="evenodd" d="M64.8362 49.9453C65.9847 49.9453 66.6846 50.9725 66.6846 52.0502C66.6846 53.1279 65.6078 53.9362 64.4593 53.9362C63.3108 53.9362 62.3777 53.0606 62.3777 51.9829C62.3777 50.9052 63.6877 49.9453 64.8362 49.9453Z" fill="url(#paint53_linear_193_3165)"/>
<path fill-rule="evenodd" clip-rule="evenodd" d="M64.8362 49.9453C63.6877 49.9453 62.3777 50.9052 62.3777 51.9829C62.3777 52.0502 62.3777 52.1176 62.3956 52.1849C62.8622 51.3766 63.921 50.7704 64.89 50.7704C65.7335 50.7704 66.3615 51.2588 66.6846 51.9323C66.6307 50.9052 65.9488 49.9453 64.8362 49.9453Z" fill="url(#paint54_linear_193_3165)"/>
<path fill-rule="evenodd" clip-rule="evenodd" d="M66.2896 52.572C66.4152 52.7235 65.9128 53.5318 65.0335 53.7002C64.1362 53.8686 63.2748 53.5318 63.4004 53.3129C63.526 53.1108 64.208 53.2624 64.9617 53.0603C65.6974 52.8583 66.164 52.4373 66.2896 52.572Z" fill="url(#paint55_linear_193_3165)"/>
<path fill-rule="evenodd" clip-rule="evenodd" d="M23.7952 41.5266C24.5848 41.5434 25.5 42.2675 25.6435 43.6483C25.7871 45.0291 24.4771 45.5175 23.4722 45.5175C22.4672 45.5175 21.4802 44.5071 21.6597 43.5641C21.8212 42.6211 22.9876 41.5097 23.7952 41.5266Z" fill="url(#paint56_linear_193_3165)"/>
<path fill-rule="evenodd" clip-rule="evenodd" d="M25.6077 43.4462C25.4103 42.2001 24.5489 41.5434 23.7952 41.5266C23.0056 41.5097 21.8212 42.6211 21.6597 43.5641C21.6238 43.7325 21.6418 43.9177 21.6776 44.0861C22.1263 43.1768 23.1671 42.3012 23.9208 42.318C24.513 42.3348 25.177 42.7053 25.6077 43.4462Z" fill="url(#paint57_linear_193_3165)"/>
<path fill-rule="evenodd" clip-rule="evenodd" d="M25.4641 44.0015C25.6076 44.1531 25.1052 45.0961 24.1361 45.2813C23.7952 45.3487 23.4722 45.3823 23.185 45.3487C22.6646 45.2645 22.2878 44.995 22.3775 44.8435C22.5211 44.6246 23.2568 44.7761 24.0644 44.5572C24.8719 44.3383 25.3205 43.8331 25.4641 44.0015Z" fill="url(#paint58_linear_193_3165)"/>
<path fill-rule="evenodd" clip-rule="evenodd" d="M36.0519 31.0353C37.4517 31.8604 37.021 33.3928 35.9802 34.6221C34.9573 35.8513 33.3781 35.9692 32.3014 35.3125C31.2067 34.6557 30.5069 33.0729 31.3862 31.7594C32.2834 30.4291 34.6522 30.1933 36.0519 31.0353Z" fill="url(#paint59_linear_193_3165)"/>
<path fill-rule="evenodd" clip-rule="evenodd" d="M31.3683 32.7865C32.3194 31.372 34.8497 31.1195 36.3571 32.0119C36.5904 32.1467 36.7878 32.315 36.9314 32.4834C36.9314 31.9109 36.6801 31.3889 36.0341 31.0184C34.6344 30.1933 32.2656 30.429 31.3683 31.7425C30.9915 32.315 30.9017 32.9213 31.0094 33.4938C31.1171 33.258 31.2248 33.0223 31.3683 32.7865Z" fill="url(#paint60_linear_193_3165)"/>
<path fill-rule="evenodd" clip-rule="evenodd" d="M36.2494 33.2745C36.411 33.5271 35.5855 35.009 34.4549 35.3121C33.3244 35.6152 32.2118 34.9921 32.3912 34.6217C32.5527 34.2512 33.432 34.5206 34.3652 34.1502C35.3342 33.7797 36.0879 33.0051 36.2494 33.2745Z" fill="url(#paint61_linear_193_3165)"/>
<path fill-rule="evenodd" clip-rule="evenodd" d="M30.7762 49.9791C30.7403 50.6695 30.0225 51.2421 28.6407 51.2084C27.259 51.1747 26.7385 50.4506 26.8462 49.575C26.9539 48.6488 28.2639 48.1605 29.2688 48.3626C30.0943 48.5141 30.8121 49.2887 30.7762 49.9791Z" fill="url(#paint62_linear_193_3165)"/>
<path fill-rule="evenodd" clip-rule="evenodd" d="M29.2508 48.3626C28.2458 48.1605 26.9358 48.6488 26.8282 49.575C26.8102 49.6929 26.8102 49.8107 26.8282 49.9286C27.223 49.1877 28.4073 48.8341 29.3584 49.0025C29.9506 49.1203 30.471 49.5076 30.7761 49.9791C30.812 49.2887 30.0942 48.5141 29.2508 48.3626Z" fill="url(#paint63_linear_193_3165)"/>
<path fill-rule="evenodd" clip-rule="evenodd" d="M30.5071 49.8942C30.7763 50.1805 30.3098 51.0224 29.2151 51.073C28.1384 51.1235 27.2591 50.8372 27.4026 50.6183C27.5462 50.3994 28.2819 50.5509 29.0715 50.332C29.897 50.1131 30.238 49.6079 30.5071 49.8942Z" fill="url(#paint64_linear_193_3165)"/>
<path fill-rule="evenodd" clip-rule="evenodd" d="M10.1391 5.16942C8.0575 5.33781 7.73448 6.78598 7.91394 8.38571C8.09339 9.98544 9.38545 10.8948 10.7134 10.8779C12.0413 10.8611 13.5667 9.85073 13.5667 8.251C13.5667 6.65127 12.2387 4.98418 10.1391 5.16942Z" fill="url(#paint65_linear_193_3165)"/>
<path fill-rule="evenodd" clip-rule="evenodd" d="M10.1391 5.16942C8.0575 5.33781 7.73448 6.78598 7.91394 8.38571C7.93188 8.53727 7.94983 8.67198 7.98572 8.82353C7.98572 7.52691 8.47024 6.46604 10.2468 6.31448C11.9696 6.14609 13.1719 7.24064 13.5667 8.50359C13.5667 8.41939 13.5846 8.33519 13.5846 8.251C13.5667 6.65127 12.2387 4.98418 10.1391 5.16942Z" fill="url(#paint66_linear_193_3165)"/>
<path fill-rule="evenodd" clip-rule="evenodd" d="M13.2618 8.72224C13.4592 8.94115 13.0285 10.1536 11.3955 10.6756C10.4983 10.9619 8.90113 10.4904 9.08058 9.96834C9.2062 9.63156 10.265 9.90098 11.3596 9.59788C12.4722 9.27793 13.0644 8.52016 13.2618 8.72224Z" fill="url(#paint67_linear_193_3165)"/>
<path fill-rule="evenodd" clip-rule="evenodd" d="M177.12 27.1788C179.381 27.7008 180.386 29.4858 179.973 31.035C179.561 32.5842 177.156 33.2746 174.895 32.7526C172.634 32.2306 171.126 30.5635 171.539 28.9975C171.952 27.4482 174.859 26.6568 177.12 27.1788Z" fill="url(#paint68_linear_193_3165)"/>
<path fill-rule="evenodd" clip-rule="evenodd" d="M177.12 27.1788C179.381 27.7008 180.386 29.4858 179.973 31.035C179.901 31.3213 179.758 31.5907 179.56 31.8096C179.489 30.3783 178.394 28.9638 176.348 28.4923C174.715 28.1218 172.795 28.3744 171.521 29.0648C171.521 29.048 171.539 29.0143 171.539 28.9975C171.952 27.4482 174.859 26.6568 177.12 27.1788Z" fill="url(#paint69_linear_193_3165)"/>
<path fill-rule="evenodd" clip-rule="evenodd" d="M179.076 31.5737C179.148 31.961 177.317 33.0892 175.505 32.6514C173.692 32.2136 172.006 30.9506 172.472 30.6643C172.957 30.3781 174.518 31.119 176.097 31.3716C177.712 31.6073 179.004 31.1864 179.076 31.5737Z" fill="url(#paint70_linear_193_3165)"/>
<path fill-rule="evenodd" clip-rule="evenodd" d="M192.104 47.3016C193.414 48.1098 193.001 49.2549 192.05 50.0969C191.081 50.9388 189.61 50.8378 188.605 50.1979C187.582 49.558 186.936 48.2446 187.761 47.3184C188.587 46.3922 190.776 46.4933 192.104 47.3016Z" fill="url(#paint71_linear_193_3165)"/>
<path fill-rule="evenodd" clip-rule="evenodd" d="M187.708 48.1267C188.587 47.1332 190.974 47.2342 192.391 48.1098C192.625 48.2446 192.786 48.3961 192.93 48.5477C192.93 48.1098 192.696 47.672 192.104 47.3016C190.794 46.4933 188.569 46.3922 187.743 47.3184C187.385 47.7225 187.313 48.194 187.42 48.6487C187.474 48.4635 187.564 48.2951 187.708 48.1267Z" fill="url(#paint72_linear_193_3165)"/>
<path fill-rule="evenodd" clip-rule="evenodd" d="M192.284 49.0855C192.445 49.3044 191.673 50.3653 190.615 50.4663C189.556 50.5674 188.515 49.9443 188.677 49.6749C188.838 49.4055 189.646 49.7086 190.525 49.5402C191.422 49.3718 192.122 48.8498 192.284 49.0855Z" fill="url(#paint73_linear_193_3165)"/>
<path fill-rule="evenodd" clip-rule="evenodd" d="M164.45 43.3105C164.612 42.8559 165.706 42.6033 166.55 42.8222C167.393 43.0411 167.914 43.782 167.716 44.4724C167.483 45.2302 166.388 45.2133 165.527 44.826C164.809 44.5061 164.217 43.9167 164.45 43.3105Z" fill="url(#paint74_linear_193_3165)"/>
<path fill-rule="evenodd" clip-rule="evenodd" d="M164.648 43.8325C164.809 43.3779 165.904 43.1253 166.747 43.3442C167.196 43.4621 167.537 43.7147 167.752 44.0346C167.68 43.4957 167.214 43.0074 166.55 42.8222C165.706 42.6033 164.63 42.8559 164.45 43.3105C164.343 43.5968 164.414 43.883 164.594 44.1188C164.594 44.0178 164.594 43.9167 164.648 43.8325Z" fill="url(#paint75_linear_193_3165)"/>
<path fill-rule="evenodd" clip-rule="evenodd" d="M167.609 44.1858C167.698 44.3205 167.555 44.8593 166.945 44.994C166.335 45.1288 165.635 44.8256 165.724 44.6404C165.814 44.4552 166.173 44.6404 166.765 44.5057C167.357 44.371 167.537 44.051 167.609 44.1858Z" fill="url(#paint76_linear_193_3165)"/>
<path fill-rule="evenodd" clip-rule="evenodd" d="M145.374 3.51992C145.751 2.49272 148.192 1.90335 150.112 2.40853C152.032 2.9137 153.199 4.58079 152.732 6.14684C152.212 7.86444 149.753 7.83076 147.797 6.95512C146.2 6.2142 144.872 4.8839 145.374 3.51992Z" fill="url(#paint77_linear_193_3165)"/>
<path fill-rule="evenodd" clip-rule="evenodd" d="M145.823 4.68183C146.2 3.65463 148.641 3.06526 150.561 3.57043C151.566 3.83986 152.355 4.4124 152.822 5.13649C152.678 3.92406 151.62 2.79583 150.112 2.40853C148.192 1.90335 145.751 2.49272 145.375 3.51992C145.141 4.15981 145.303 4.7997 145.698 5.3554C145.698 5.13649 145.733 4.91757 145.823 4.68183Z" fill="url(#paint78_linear_193_3165)"/>
<path fill-rule="evenodd" clip-rule="evenodd" d="M152.535 5.49068C152.714 5.77694 152.409 7.00621 151.045 7.30931C149.682 7.61242 148.084 6.92201 148.264 6.51787C148.461 6.09689 149.251 6.51787 150.597 6.21476C151.961 5.91166 152.355 5.20441 152.535 5.49068Z" fill="url(#paint79_linear_193_3165)"/>
<path fill-rule="evenodd" clip-rule="evenodd" d="M161.974 44.9951C159.803 44.9951 158.457 46.4096 158.457 47.9083C158.457 49.407 160.485 50.5352 162.656 50.5352C164.827 50.5352 166.604 49.3228 166.604 47.8241C166.604 46.3254 164.145 44.9951 161.974 44.9951Z" fill="url(#paint80_linear_193_3165)"/>
<path fill-rule="evenodd" clip-rule="evenodd" d="M161.974 44.9951C159.803 44.9951 158.457 46.4096 158.457 47.9083C158.457 48.1946 158.529 48.4472 158.654 48.6998C159.067 47.42 160.395 46.3591 162.351 46.3591C163.912 46.3591 165.617 46.999 166.604 47.8915C166.604 47.8746 166.604 47.841 166.604 47.8241C166.604 46.3254 164.145 44.9951 161.974 44.9951Z" fill="url(#paint81_linear_193_3165)"/>
<path fill-rule="evenodd" clip-rule="evenodd" d="M166.048 48.2786C166.281 48.5817 165.114 50.0972 163.338 50.2488C161.561 50.4004 159.91 49.7268 160.215 49.3563C160.52 48.969 161.848 49.2384 163.356 48.9859C164.845 48.7164 165.814 47.9755 166.048 48.2786Z" fill="url(#paint82_linear_193_3165)"/>
<path fill-rule="evenodd" clip-rule="evenodd" d="M193.63 33.5771C192.248 33.5771 191.422 34.8064 191.422 36.0862C191.422 37.3828 192.696 38.3427 194.078 38.3427C195.46 38.3427 196.573 37.2986 196.573 36.002C196.555 34.7222 195.011 33.5771 193.63 33.5771Z" fill="url(#paint83_linear_193_3165)"/>
<path fill-rule="evenodd" clip-rule="evenodd" d="M193.63 33.5771C195.011 33.5771 196.555 34.7222 196.555 36.0188C196.555 36.103 196.555 36.1872 196.537 36.2714C195.98 35.3116 194.706 34.5875 193.558 34.5875C192.553 34.5875 191.817 35.16 191.404 35.9683C191.476 34.7222 192.302 33.5771 193.63 33.5771Z" fill="url(#paint84_linear_193_3165)"/>
<path fill-rule="evenodd" clip-rule="evenodd" d="M196.124 36.7596C196.286 36.928 195.675 37.9047 194.617 38.1068C193.558 38.3089 192.517 37.9047 192.679 37.6521C192.84 37.3995 193.648 37.5848 194.545 37.349C195.442 37.0964 195.98 36.5744 196.124 36.7596Z" fill="url(#paint85_linear_193_3165)"/>
<path d="M54.84 47.04C54.76 47.04 54.6933 47.0133 54.64 46.96C54.5867 46.9333 54.5333 46.9067 54.48 46.88C54.3733 46.72 54.2933 46.56 54.24 46.4C54.2133 46.24 54.1867 46.08 54.16 45.92C54.1333 45.7867 54.12 45.64 54.12 45.48C54.12 45.4 54.12 45.3067 54.12 45.2C54.12 45.12 54.1067 45.0267 54.08 44.92C54.0533 44.7867 54.0267 44.6533 54 44.52C53.9733 44.4133 53.9467 44.3067 53.92 44.2C53.84 43.8533 53.6933 43.5733 53.48 43.36C53.3467 43.28 53.24 43.1733 53.16 43.04C52.9733 42.8533 52.8 42.6533 52.64 42.44C52.48 42.2533 52.3333 42.0533 52.2 41.84L52 41.48C51.8133 41.2667 51.6533 41.04 51.52 40.8C51.4133 40.56 51.3067 40.32 51.2 40.08L50.96 39.44L50.84 39.2C50.8133 38.9867 50.7733 38.7867 50.72 38.6C50.6667 38.3867 50.6133 38.1867 50.56 38C50.5333 37.8667 50.5067 37.76 50.48 37.68C50.4533 37.5733 50.4267 37.4667 50.4 37.36C50.3733 37.1467 50.3467 36.9333 50.32 36.72C50.2933 36.5067 50.2533 36.3067 50.2 36.12C50.1733 36.0667 50.16 35.9733 50.16 35.84L50.04 34.72C50.0133 34.4267 49.9867 34.1467 49.96 33.88C49.9333 33.6133 49.8933 33.3467 49.84 33.08V32.92C49.84 32.7067 49.8267 32.4933 49.8 32.28C49.7733 32.0667 49.7467 31.8667 49.72 31.68C49.6933 31.5733 49.68 31.48 49.68 31.4C49.68 31.2933 49.68 31.1867 49.68 31.08C49.7333 30.9467 49.7333 30.8267 49.68 30.72C49.6533 30.5867 49.64 30.4533 49.64 30.32C49.64 30.16 49.64 30.0267 49.64 29.92C49.64 29.6533 49.6267 29.4 49.6 29.16C49.6 28.8933 49.6 28.6267 49.6 28.36C49.6 28.0667 49.6 27.7733 49.6 27.48C49.6267 27.1867 49.6533 26.9067 49.68 26.64V26.36C49.7067 25.7733 49.7733 25.2 49.88 24.64C49.9867 24.08 50.12 23.5333 50.28 23L50.76 21.4C50.8133 21.24 50.8667 21.0933 50.92 20.96C50.9733 20.8 51.0267 20.6533 51.08 20.52C51.16 20.3067 51.24 20.0933 51.32 19.88C51.4 19.64 51.4667 19.4133 51.52 19.2C51.5733 18.9333 51.64 18.6667 51.72 18.4C51.8 18.1067 51.8667 17.8267 51.92 17.56C52.0267 17.16 52.1733 16.7733 52.36 16.4C52.5467 16.0267 52.7867 15.7067 53.08 15.44C53.1333 15.3867 53.1867 15.3333 53.24 15.28C53.2933 15.2 53.36 15.1467 53.44 15.12C53.5733 15.04 53.6933 14.96 53.8 14.88C53.9333 14.8 54.0667 14.72 54.2 14.64C54.7333 14.3467 55.2667 14.1067 55.8 13.92L57.32 13.32C57.48 13.2667 57.6667 13.2133 57.88 13.16C58.0133 13.1067 58.1467 13.08 58.28 13.08C58.4133 13.0533 58.5333 13.0267 58.64 13C59.44 12.84 60.2267 12.84 61 13C61.2933 13.08 61.5867 13.2 61.88 13.36C62.3867 13.6 62.8933 13.9067 63.4 14.28C63.6933 14.52 63.9733 14.7867 64.24 15.08C64.5067 15.3467 64.7333 15.6667 64.92 16.04C65.1067 16.3867 65.28 16.7333 65.44 17.08C65.52 17.3733 65.6533 17.6267 65.84 17.84L66.32 18.56C66.3733 18.6133 66.4133 18.68 66.44 18.76C66.4933 18.84 66.5333 18.9067 66.56 18.96C66.7467 19.4133 66.8 19.9067 66.72 20.44C66.64 20.8667 66.5067 21.2133 66.32 21.48C66.2133 21.64 66.1333 21.7467 66.08 21.8C65.7067 22.2 65.52 22.7067 65.52 23.32V23.44C65.4933 23.7067 65.48 23.9867 65.48 24.28C65.48 24.5467 65.4667 24.8267 65.44 25.12V26.8C65.4133 26.9333 65.4 27.08 65.4 27.24C65.4 27.3733 65.3867 27.5067 65.36 27.64C65.3333 27.72 65.32 27.8133 65.32 27.92C65.32 28 65.32 28.0933 65.32 28.2C65.32 28.4667 65.2533 28.7333 65.12 29C64.9333 29.2667 64.68 29.36 64.36 29.28C64.12 29.2 63.96 29.04 63.88 28.8C63.8533 28.72 63.8133 28.64 63.76 28.56C63.7333 28.48 63.7067 28.3867 63.68 28.28C63.6533 28.1467 63.6267 28 63.6 27.84C63.6 27.68 63.6 27.5333 63.6 27.4C63.6 27.2133 63.5867 27.04 63.56 26.88C63.56 26.6933 63.56 26.5067 63.56 26.32V26.2C63.5333 26.0133 63.5067 25.84 63.48 25.68C63.48 25.4933 63.48 25.3067 63.48 25.12C63.4533 24.8267 63.4267 24.5333 63.4 24.24C63.3733 23.9467 63.3333 23.6667 63.28 23.4L62.92 22.44C62.8133 22.2267 62.7067 22.0133 62.6 21.8C62.52 21.5867 62.4267 21.3733 62.32 21.16C62.2667 20.9733 62.1867 20.8 62.08 20.64C61.9733 20.48 61.8667 20.3067 61.76 20.12C61.5467 19.72 61.3067 19.3733 61.04 19.08C60.9867 19.0267 60.9333 18.9733 60.88 18.92C60.8267 18.8667 60.7733 18.8133 60.72 18.76C60.6133 18.7067 60.5067 18.6533 60.4 18.6C60.32 18.52 60.24 18.4267 60.16 18.32C60.1333 18.2933 60.0933 18.28 60.04 18.28C60.0133 18.2533 59.9733 18.2267 59.92 18.2C59.36 18.04 58.8667 18.0267 58.44 18.16L57.84 18.28C57.7333 18.28 57.6267 18.2933 57.52 18.32C57.44 18.32 57.3467 18.3333 57.24 18.36L56.96 18.48C56.88 18.5067 56.7867 18.6 56.68 18.76C56.68 18.8667 56.6533 18.9733 56.6 19.08C56.5733 19.16 56.5467 19.24 56.52 19.32C56.52 19.3733 56.52 19.4267 56.52 19.48C56.44 19.8533 56.3333 20.2133 56.2 20.56C56.0667 20.9067 55.92 21.2667 55.76 21.64C55.7067 21.7733 55.6267 21.92 55.52 22.08C55.4667 22.16 55.4133 22.24 55.36 22.32C55.3067 22.3733 55.2667 22.4667 55.24 22.6L55 22.96C54.8667 23.0933 54.7733 23.28 54.72 23.52C54.64 23.7333 54.5733 23.96 54.52 24.2C54.4933 24.4133 54.4533 24.6267 54.4 24.84C54.32 25.16 54.2667 25.48 54.24 25.8C54.2133 26.12 54.1867 26.44 54.16 26.76V29.4C54.16 29.5067 54.1467 29.6 54.12 29.68C54.12 29.76 54.12 29.8533 54.12 29.96C54.12 30.1733 54.1067 30.4 54.08 30.64C54.08 30.88 54.0933 31.1067 54.12 31.32C54.1467 31.4 54.16 31.52 54.16 31.68C54.16 32.0267 54.2 32.3867 54.28 32.76C54.28 32.8667 54.2933 32.9333 54.32 32.96C54.4533 33.0933 54.48 33.2267 54.4 33.36C54.4 33.44 54.4133 33.4933 54.44 33.52C54.5467 33.8667 54.64 34.2133 54.72 34.56C54.8 34.88 54.8933 35.2133 55 35.56C55.1067 35.8533 55.2133 36.1467 55.32 36.44C55.4533 36.7333 55.6133 37.0267 55.8 37.32C56.0133 37.64 56.32 37.8933 56.72 38.08C56.88 38.1333 57.04 38.1867 57.2 38.24C57.36 38.2933 57.52 38.3333 57.68 38.36C57.8667 38.3867 58.04 38.4133 58.2 38.44C58.36 38.44 58.52 38.44 58.68 38.44C58.8933 38.44 59.1067 38.4267 59.32 38.4C59.5333 38.3733 59.7333 38.3467 59.92 38.32C60.2133 38.2667 60.48 38.2133 60.72 38.16C60.9867 38.1067 61.2533 38.0533 61.52 38C61.9733 37.92 62.3867 37.7867 62.76 37.6C62.7867 37.6 62.8267 37.5733 62.88 37.52C63.0933 37.3867 63.2933 37.2533 63.48 37.12C63.6933 36.96 63.8933 36.7867 64.08 36.6C64.24 36.44 64.4 36.28 64.56 36.12C64.7467 35.96 64.9067 35.7867 65.04 35.6L65.4 35.08C65.56 34.7867 65.7333 34.5733 65.92 34.44C66.0267 34.3333 66.1067 34.24 66.16 34.16C66.2133 34.08 66.28 34.04 66.36 34.04C66.52 34.04 66.68 34.0267 66.84 34C67 33.9733 67.1733 33.9733 67.36 34C67.52 34.0267 67.6667 34.08 67.8 34.16C67.96 34.2133 68.1067 34.2667 68.24 34.32C68.2933 34.3467 68.36 34.4 68.44 34.48C68.5733 34.64 68.68 34.8 68.76 34.96C68.8667 35.0933 68.9333 35.2533 68.96 35.44C69.0133 35.6533 69.04 35.8 69.04 35.88C69.0667 36.04 69.04 36.2267 68.96 36.44C68.8533 36.68 68.6933 36.9333 68.48 37.2C68.3467 37.3067 68.2133 37.44 68.08 37.6C67.9467 37.76 67.8133 37.9067 67.68 38.04C67.4933 38.2267 67.32 38.4267 67.16 38.64C67 38.8267 66.8133 39.0133 66.6 39.2C66.52 39.2533 66.44 39.32 66.36 39.4C66.3067 39.4533 66.2533 39.5067 66.2 39.56C65.96 39.8 65.6933 40.0133 65.4 40.2C65.1333 40.36 64.8533 40.5067 64.56 40.64L63.48 41.12C63.2133 41.2267 62.9333 41.32 62.64 41.4C62.3733 41.48 62.0933 41.56 61.8 41.64C61.5333 41.72 61.2533 41.8 60.96 41.88C60.6933 41.9333 60.4133 41.9867 60.12 42.04L58.56 42.28C58.3733 42.3067 58.1733 42.3333 57.96 42.36C57.7733 42.4133 57.5733 42.4267 57.36 42.4C57.0933 42.3733 56.8133 42.4533 56.52 42.64C56.2533 42.7733 56.1067 42.96 56.08 43.2C56.0267 43.36 56 43.48 56 43.56L55.88 44.6C55.88 44.7867 55.8667 44.9867 55.84 45.2C55.84 45.4133 55.8267 45.6267 55.8 45.84C55.7733 45.9467 55.7467 46.0533 55.72 46.16C55.6933 46.2933 55.6533 46.4267 55.6 46.56C55.4667 46.88 55.2133 47.04 54.84 47.04ZM88.0813 46.72C87.8146 46.6933 87.6146 46.5333 87.4813 46.24C87.4546 46.2133 87.4413 46.1467 87.4413 46.04C87.4146 45.8267 87.3746 45.6133 87.3213 45.4C87.2946 45.1867 87.2946 44.9733 87.3213 44.76V44.56C87.2946 44.32 87.2813 44.08 87.2813 43.84C87.2813 43.6 87.2679 43.3733 87.2413 43.16C87.1879 42.7067 87.0279 42.36 86.7613 42.12L86.4013 41.76C86.2679 41.6 86.0946 41.5467 85.8813 41.6C85.7213 41.6267 85.5613 41.64 85.4013 41.64C85.2679 41.64 85.1213 41.6267 84.9613 41.6C84.8546 41.6 84.7346 41.6133 84.6013 41.64C84.4946 41.64 84.3746 41.64 84.2413 41.64C84.1346 41.64 84.0146 41.64 83.8813 41.64C83.7746 41.6133 83.6679 41.6133 83.5613 41.64C83.4546 41.6667 83.3479 41.68 83.2413 41.68C83.1613 41.68 83.0813 41.68 83.0013 41.68H81.6413C81.3479 41.68 81.0413 41.72 80.7213 41.8L79.7613 42.04C79.4413 42.1467 79.1213 42.2267 78.8013 42.28C78.6946 42.3067 78.5879 42.3333 78.4813 42.36C78.3746 42.3867 78.2679 42.4267 78.1613 42.48C77.7613 42.6667 77.3746 42.7733 77.0013 42.8C76.7613 42.8533 76.5879 42.96 76.4813 43.12L76.2812 43.36C76.2279 43.3867 76.1746 43.4133 76.1213 43.44C76.0679 43.4933 76.0146 43.5467 75.9613 43.6C75.7746 43.7067 75.5746 43.7067 75.3613 43.6C75.1213 43.4667 74.9746 43.32 74.9213 43.16C74.9213 43.1333 74.9079 43.1067 74.8813 43.08C74.8813 43.08 74.8813 43.0667 74.8813 43.04C74.6946 42.5867 74.3879 42.1867 73.9613 41.84C73.8546 41.76 73.7613 41.6667 73.6813 41.56C73.6546 41.48 73.6146 41.4133 73.5613 41.36C73.5079 41.28 73.4546 41.2133 73.4013 41.16L73.1613 40.8C73.0546 40.6133 73.0146 40.4 73.0413 40.16C73.0679 40.0267 73.0813 39.8933 73.0813 39.76C73.1079 39.6 73.1346 39.4533 73.1613 39.32V39.08C73.1613 38.7867 73.1613 38.4933 73.1613 38.2C73.1613 37.88 73.1746 37.5867 73.2013 37.32V36.92C73.2546 36.8133 73.2679 36.72 73.2413 36.64C73.2413 36.5333 73.2413 36.4267 73.2413 36.32C73.2679 35.9733 73.2679 35.64 73.2413 35.32C73.2413 34.9733 73.2546 34.6267 73.2813 34.28L73.4013 32.48C73.4279 32.1867 73.4413 31.9067 73.4413 31.64C73.4679 31.3733 73.4813 31.1067 73.4813 30.84V30.72C73.5346 30.4 73.5613 30.08 73.5613 29.76C73.5613 29.44 73.5613 29.1067 73.5613 28.76V26C73.5346 25.7067 73.5079 25.4133 73.4813 25.12C73.4813 24.8267 73.4813 24.5333 73.4813 24.24C73.4813 23.92 73.4679 23.6 73.4413 23.28C73.4146 22.9333 73.3746 22.5867 73.3213 22.24C73.2946 22.0267 73.2546 21.8 73.2013 21.56C73.1746 21.32 73.1613 21.08 73.1613 20.84C73.1613 20.7867 73.1479 20.7333 73.1213 20.68C73.1213 20.6267 73.1213 20.5733 73.1213 20.52C72.9613 19.8 72.8813 19.0667 72.8813 18.32V16.64C72.8813 16.4533 72.8813 16.28 72.8813 16.12C72.9079 15.9333 72.9346 15.7467 72.9613 15.56C73.0146 15.24 73.1213 15 73.2813 14.84L73.4813 14.6C73.6413 14.3867 73.8279 14.24 74.0413 14.16C74.2546 14.0533 74.4813 13.9867 74.7213 13.96H75.0013C75.4013 13.96 75.7213 14.1067 75.9613 14.4C76.0146 14.4267 76.0546 14.4533 76.0813 14.48C76.1079 14.5067 76.1346 14.5333 76.1613 14.56C76.2946 14.6667 76.3746 14.7867 76.4013 14.92C76.5346 15.1867 76.6013 15.36 76.6013 15.44C76.6279 15.52 76.6413 15.7067 76.6413 16V16.28C76.6413 16.4667 76.6413 16.6533 76.6413 16.84C76.6413 17 76.6546 17.1733 76.6813 17.36C76.7079 17.4133 76.7213 17.4933 76.7213 17.6C76.7213 17.7867 76.7213 17.9733 76.7213 18.16C76.7479 18.3467 76.7746 18.5333 76.8013 18.72C76.8279 18.9867 76.8546 19.2533 76.8813 19.52C76.9079 19.76 76.9213 20.0267 76.9213 20.32C76.9213 20.3733 76.9213 20.44 76.9213 20.52C76.9479 20.5733 76.9613 20.6267 76.9613 20.68C76.9613 20.7067 76.9613 20.7467 76.9613 20.8C76.9879 20.8267 77.0013 20.8667 77.0013 20.92L77.1213 22.96C77.1479 23.0933 77.1612 23.24 77.1612 23.4C77.1612 23.5333 77.1612 23.68 77.1612 23.84C77.1879 23.8667 77.2013 23.9333 77.2013 24.04C77.1746 24.1733 77.1612 24.32 77.1612 24.48C77.1612 24.6133 77.1746 24.7467 77.2013 24.88V27.52C77.1746 27.68 77.1746 27.84 77.2013 28V28.24C77.1746 28.4533 77.1612 28.68 77.1612 28.92C77.1612 29.1333 77.1479 29.36 77.1213 29.6C77.1213 29.7867 77.1213 29.9867 77.1213 30.2C77.1213 30.3867 77.1079 30.5867 77.0813 30.8C77.0546 30.9067 77.0413 31.0267 77.0413 31.16C77.0413 31.2933 77.0413 31.4267 77.0413 31.56C77.0413 31.6667 77.0279 31.8 77.0013 31.96C77.0013 32.0933 76.9879 32.2267 76.9613 32.36V32.48C76.9346 32.7467 76.9079 33.0133 76.8813 33.28C76.8813 33.5467 76.8679 33.8267 76.8413 34.12C76.8146 34.2533 76.8013 34.4 76.8013 34.56C76.8013 34.72 76.7879 34.88 76.7613 35.04C76.7346 35.1467 76.7213 35.28 76.7213 35.44C76.7213 35.5733 76.7213 35.7067 76.7213 35.84C76.7213 35.9733 76.7079 36.1067 76.6813 36.24C76.6546 36.5333 76.6413 36.8267 76.6413 37.12C76.6413 37.3867 76.6413 37.6667 76.6413 37.96V38C76.6946 38.1333 76.7613 38.2 76.8413 38.2L77.6413 38.32C78.2813 38.4 78.9079 38.44 79.5213 38.44C79.6813 38.44 79.8146 38.4267 79.9213 38.4C80.0546 38.3733 80.2013 38.36 80.3613 38.36C80.5213 38.36 80.6679 38.3467 80.8013 38.32H81.9213C82.1079 38.32 82.2946 38.3067 82.4813 38.28C82.6679 38.2267 82.8546 38.1867 83.0412 38.16H83.2413C83.5346 38.16 83.8279 38.1467 84.1213 38.12C84.4146 38.0667 84.7079 38.04 85.0013 38.04H86.3213C86.6946 38.04 87.0146 37.96 87.2813 37.8C87.4946 37.72 87.6946 37.6667 87.8813 37.64C88.0946 37.6133 88.3079 37.5867 88.5213 37.56C88.8413 37.56 89.1213 37.64 89.3613 37.8C89.8946 38.12 90.2413 38.56 90.4013 39.12C90.4546 39.3067 90.4813 39.5067 90.4813 39.72C90.5079 39.9333 90.5079 40.1467 90.4813 40.36C90.4546 40.6 90.4013 40.8267 90.3213 41.04C90.2413 41.2267 90.1346 41.4267 90.0013 41.64L89.6413 42.16C89.4813 42.4533 89.3613 42.7467 89.2813 43.04C89.2546 43.28 89.2146 43.5067 89.1613 43.72C89.1079 43.96 89.0813 44.2 89.0813 44.44C89.0813 44.5467 89.0679 44.6533 89.0413 44.76C89.0413 44.8667 89.0413 44.9733 89.0413 45.08C89.0146 45.1867 89.0013 45.28 89.0013 45.36C89.0013 45.44 89.0013 45.5333 89.0013 45.64C89.0013 45.8533 88.9346 46.0933 88.8013 46.36C88.6413 46.6267 88.4013 46.7467 88.0813 46.72ZM95.7266 45.6C95.6999 45.6 95.6066 45.5733 95.4466 45.52C95.3666 45.4933 95.2732 45.4 95.1666 45.24C95.1399 45.16 95.1132 45.08 95.0866 45C95.0599 44.92 95.0466 44.84 95.0466 44.76C94.9666 44.36 94.9266 43.96 94.9266 43.56V40.8C94.9266 40.56 94.8999 40.32 94.8466 40.08C94.7932 39.84 94.7399 39.6 94.6866 39.36C94.6866 39.3067 94.6599 39.2267 94.6066 39.12C94.5799 39.04 94.5399 38.96 94.4866 38.88C94.4332 38.7733 94.3799 38.68 94.3266 38.6C94.2199 38.4133 94.1399 38.2133 94.0866 38C94.0332 37.7867 93.9932 37.5867 93.9666 37.4C93.9399 37.1067 93.9399 36.8267 93.9666 36.56C94.0199 36.4 94.0599 36.2533 94.0866 36.12C94.1132 35.96 94.1532 35.8133 94.2066 35.68C94.2866 35.4667 94.3532 35.2533 94.4066 35.04C94.4599 34.8 94.5266 34.56 94.6066 34.32L95.2066 32.36C95.3932 31.8 95.6332 31.2267 95.9266 30.64C96.2199 30.08 96.4999 29.4533 96.7666 28.76C96.8199 28.6 96.8866 28.4267 96.9666 28.24C97.0732 27.9467 97.1799 27.6667 97.2866 27.4C97.4199 27.1067 97.5399 26.8267 97.6466 26.56L98.2466 24.88C98.2999 24.7733 98.3399 24.6667 98.3666 24.56C98.3932 24.4533 98.4199 24.3467 98.4466 24.24C98.6599 23.7067 98.8732 23.2 99.0866 22.72C99.2466 22.4 99.3532 22.0533 99.4066 21.68C99.4599 21.3067 99.4599 20.9333 99.4066 20.56C99.3799 20.4 99.3532 20.24 99.3266 20.08C99.3266 19.8933 99.3266 19.72 99.3266 19.56C99.3266 19.48 99.2999 19.4133 99.2466 19.36C99.2199 19.28 99.2199 19.2 99.2466 19.12C99.2732 19.0667 99.2999 19.0133 99.3266 18.96C99.3799 18.9067 99.4199 18.8533 99.4466 18.8C99.5266 18.5067 99.6466 18.2533 99.8066 18.04C99.9932 17.8 100.193 17.5867 100.407 17.4C100.513 17.2933 100.66 17.2133 100.847 17.16C100.953 17.1067 101.047 17.0533 101.127 17C101.233 16.9467 101.327 16.88 101.407 16.8C101.54 16.6933 101.687 16.6267 101.847 16.6C102.06 16.5733 102.287 16.4933 102.527 16.36C102.74 16.2267 102.98 16.1867 103.247 16.24H103.607C103.793 16.24 103.993 16.3067 104.207 16.44C104.26 16.4667 104.313 16.5067 104.367 16.56C104.447 16.5867 104.527 16.6267 104.607 16.68C104.82 16.84 104.927 17.04 104.927 17.28C104.927 17.4667 104.94 17.64 104.967 17.8C105.02 17.96 105.06 18.1333 105.087 18.32C105.14 18.48 105.14 18.6533 105.087 18.84C105.06 18.8933 105.047 18.96 105.047 19.04C105.047 19.0933 105.033 19.1467 105.007 19.2C105.007 19.3067 104.993 19.4133 104.967 19.52C104.967 19.6267 104.953 19.7333 104.927 19.84C104.847 20.0267 104.873 20.2133 105.007 20.4C105.22 20.7467 105.407 21.1067 105.567 21.48C105.753 21.8533 105.94 22.2267 106.127 22.6L106.847 23.88C107.06 24.2267 107.273 24.64 107.487 25.12C107.54 25.2 107.58 25.28 107.607 25.36C107.66 25.44 107.713 25.52 107.767 25.6C107.847 25.7333 107.913 25.88 107.967 26.04C108.047 26.2 108.127 26.36 108.207 26.52C108.42 26.92 108.593 27.3333 108.727 27.76C108.887 28.16 109.047 28.5867 109.207 29.04C109.207 29.0667 109.207 29.0933 109.207 29.12C109.233 29.12 109.247 29.1333 109.247 29.16C109.273 29.3467 109.407 29.44 109.647 29.44C109.727 29.4133 109.807 29.4 109.887 29.4C109.993 29.4 110.087 29.4 110.167 29.4C110.46 29.4 110.713 29.4533 110.927 29.56C111.06 29.5867 111.193 29.6667 111.327 29.8C111.54 30.0133 111.687 30.1867 111.767 30.32C111.847 30.4533 111.9 30.6533 111.927 30.92C112.033 31.4267 111.927 31.8667 111.607 32.24L111.367 32.44C111.313 32.4933 111.247 32.5467 111.167 32.6C111.087 32.6267 111.02 32.6667 110.967 32.72C110.833 32.8267 110.753 32.9067 110.727 32.96C110.727 33.0133 110.767 33.1333 110.847 33.32L111.447 34.76C111.687 35.2933 111.927 35.8267 112.167 36.36C112.433 36.8933 112.7 37.4267 112.967 37.96C113.073 38.1467 113.153 38.3333 113.207 38.52C113.287 38.7067 113.34 38.9067 113.367 39.12C113.393 39.28 113.393 39.44 113.367 39.6C113.367 39.76 113.353 39.92 113.327 40.08C113.327 40.1067 113.3 40.2 113.247 40.36C113.167 40.4667 113.087 40.5733 113.007 40.68C112.953 40.7867 112.887 40.8933 112.807 41C112.593 41.2933 112.42 41.6267 112.287 42C112.233 42.24 112.06 42.4267 111.767 42.56C111.607 42.64 111.433 42.64 111.247 42.56C111.007 42.48 110.847 42.32 110.767 42.08L110.687 41.88C110.607 41.6133 110.487 41.36 110.327 41.12C110.22 40.9333 110.113 40.7467 110.007 40.56C109.927 40.3467 109.833 40.1467 109.727 39.96C109.7 39.9067 109.687 39.8667 109.687 39.84C109.687 39.7867 109.673 39.7467 109.647 39.72C109.62 39.56 109.567 39.4133 109.487 39.28C109.433 39.12 109.367 38.9733 109.287 38.84C109.127 38.44 108.953 38.0533 108.767 37.68C108.607 37.28 108.433 36.88 108.247 36.48L107.647 35.2C107.62 35.12 107.593 35.04 107.567 34.96C107.54 34.8533 107.5 34.7467 107.447 34.64L106.967 33.56C106.967 33.5067 106.94 33.4267 106.887 33.32C106.753 33.1067 106.58 32.9867 106.367 32.96C106.18 32.96 106.007 32.9467 105.847 32.92C105.687 32.8933 105.527 32.88 105.367 32.88C104.94 32.88 104.513 32.92 104.087 33C103.66 33.08 103.26 33.2267 102.887 33.44C102.38 33.7333 101.86 33.92 101.327 34C101.22 34 101.113 34.0133 101.007 34.04C100.9 34.0667 100.793 34.1067 100.687 34.16C100.527 34.2667 100.433 34.3867 100.407 34.52C100.353 34.68 100.327 34.8 100.327 34.88L100.207 35.44C100.18 35.6267 100.073 35.8133 99.8866 36C99.7532 36.1333 99.5666 36.2 99.3266 36.2C98.9799 36.1467 98.7532 35.9733 98.6466 35.68C98.6199 35.6 98.5932 35.52 98.5666 35.44C98.5399 35.36 98.5132 35.2667 98.4866 35.16C98.3799 35.32 98.3666 35.4533 98.4466 35.56C98.4999 35.6667 98.4732 35.76 98.3666 35.84C98.3132 35.8933 98.2999 35.9333 98.3266 35.96C98.3799 36.0667 98.3666 36.16 98.2866 36.24C98.2066 36.32 98.1799 36.4133 98.2066 36.52C98.2332 36.5733 98.2332 36.64 98.2066 36.72C98.0732 36.9067 97.9799 37.1333 97.9266 37.4C97.9532 37.5067 97.8866 37.5867 97.7266 37.64C97.6732 37.64 97.6466 37.6667 97.6466 37.72C97.5932 37.8 97.5399 37.92 97.4866 38.08C97.4599 38.2133 97.4199 38.36 97.3666 38.52C97.3399 38.6533 97.2999 38.7867 97.2466 38.92L97.0066 39.92V40.08C97.0066 40.32 96.9799 40.56 96.9266 40.8C96.8999 41.0133 96.8866 41.24 96.8866 41.48L96.7666 42.8C96.7399 42.9867 96.7132 43.1733 96.6866 43.36C96.6866 43.5733 96.6866 43.7867 96.6866 44C96.6599 44.16 96.6332 44.3067 96.6066 44.44C96.6066 44.6 96.5799 44.76 96.5266 44.92C96.4732 45.16 96.3799 45.3333 96.2466 45.44C96.1399 45.6 95.9666 45.6533 95.7266 45.6ZM100.927 29.4H100.967C101.233 29.3467 101.487 29.3067 101.727 29.28C101.967 29.2533 102.207 29.2267 102.447 29.2C102.607 29.1733 102.767 29.16 102.927 29.16C103.087 29.1333 103.247 29.12 103.407 29.12H104.247C104.3 29.12 104.353 29.12 104.407 29.12C104.46 29.0933 104.5 29.08 104.527 29.08C104.58 29.08 104.607 29.0267 104.607 28.92C104.527 28.8133 104.46 28.7067 104.407 28.6C104.353 28.4933 104.3 28.3867 104.247 28.28C104.087 27.9067 103.873 27.5867 103.607 27.32C103.58 27.2667 103.553 27.2267 103.527 27.2C103.5 27.1467 103.473 27.0933 103.447 27.04C103.42 26.9867 103.38 26.9333 103.327 26.88C103.3 26.8 103.26 26.7333 103.207 26.68C103.073 26.5733 102.94 26.6 102.807 26.76L102.687 27.08C102.66 27.2933 102.62 27.52 102.567 27.76C102.513 27.9733 102.46 28.1867 102.407 28.4C102.407 28.4533 102.38 28.5333 102.327 28.64C102.273 28.8 102.14 28.92 101.927 29C101.74 29.08 101.54 29.0533 101.327 28.92L101.087 28.76C101.087 28.76 101.06 28.76 101.007 28.76C100.953 28.8667 100.927 28.9467 100.927 29C100.927 29.0533 100.927 29.1067 100.927 29.16C100.953 29.2133 100.94 29.2667 100.887 29.32C100.833 29.3733 100.847 29.4 100.927 29.4ZM121.691 42.4C121.664 42.4 121.624 42.3867 121.571 42.36C121.544 42.36 121.504 42.36 121.451 42.36C121.264 42.36 121.131 42.28 121.051 42.12C120.944 41.9333 120.838 41.7733 120.731 41.64C120.624 41.5067 120.504 41.3733 120.371 41.24C120.238 41.1067 120.118 40.96 120.011 40.8C119.931 40.64 119.851 40.48 119.771 40.32C119.691 40.1867 119.651 40.0533 119.651 39.92V39.52C119.651 39.3867 119.638 39.2533 119.611 39.12C119.611 38.96 119.598 38.8133 119.571 38.68C119.518 38.4667 119.464 38.24 119.411 38C119.384 37.76 119.344 37.5333 119.291 37.32C119.291 37.2667 119.278 37.2133 119.251 37.16C119.251 37.08 119.251 37.0133 119.251 36.96C119.224 36.6667 119.184 36.3733 119.131 36.08C119.078 35.76 119.024 35.4533 118.971 35.16C118.891 34.6267 118.798 34.1067 118.691 33.6C118.611 33.0667 118.531 32.5467 118.451 32.04L118.211 30.72C118.184 30.5067 118.104 30.28 117.971 30.04C117.811 29.7467 117.691 29.4267 117.611 29.08C117.584 28.92 117.544 28.7733 117.491 28.64C117.438 28.48 117.384 28.32 117.331 28.16C117.251 27.8933 117.171 27.6267 117.091 27.36C117.011 27.0933 116.944 26.8267 116.891 26.56C116.864 26.3467 116.824 26.1333 116.771 25.92C116.718 25.7067 116.664 25.4933 116.611 25.28L116.371 24.2C116.371 24.1467 116.358 24.1067 116.331 24.08C116.304 23.7067 116.251 23.3333 116.171 22.96C116.091 22.56 116.011 22.1733 115.931 21.8C115.904 21.5867 115.864 21.3333 115.811 21.04C115.784 20.72 115.784 20.4667 115.811 20.28V19.88C115.864 19.5067 115.984 19.16 116.171 18.84C116.384 18.4667 116.731 18.1733 117.211 17.96C117.344 17.9067 117.478 17.8667 117.611 17.84C117.744 17.8133 117.864 17.7867 117.971 17.76C118.264 17.7333 118.544 17.7733 118.811 17.88C119.078 17.96 119.344 18.08 119.611 18.24C119.691 18.2933 119.758 18.36 119.811 18.44C119.891 18.5733 119.971 18.7067 120.051 18.84C120.158 18.9733 120.224 19.12 120.251 19.28C120.304 19.44 120.358 19.6 120.411 19.76C120.491 19.92 120.571 20.0667 120.651 20.2C120.784 20.4667 120.878 20.7467 120.931 21.04C120.984 21.3333 121.038 21.6267 121.091 21.92C121.171 22.32 121.211 22.7467 121.211 23.2V23.4C121.264 23.6667 121.291 23.9333 121.291 24.2C121.291 24.44 121.291 24.6933 121.291 24.96C121.318 25.3867 121.358 25.8133 121.411 26.24C121.464 26.64 121.518 27.0667 121.571 27.52L121.811 29.4V29.48C121.864 29.7733 121.918 30.08 121.971 30.4C122.051 30.6933 122.104 30.9867 122.131 31.28C122.211 31.7333 122.291 32.2 122.371 32.68C122.478 33.1333 122.558 33.5867 122.611 34.04L122.851 35.72C122.904 35.9867 122.944 36.2533 122.971 36.52C123.024 36.7867 123.078 37.0533 123.131 37.32C123.184 37.5867 123.224 37.8533 123.251 38.12C123.304 38.36 123.358 38.6133 123.411 38.88C123.438 38.9867 123.451 39.0933 123.451 39.2C123.478 39.28 123.491 39.3733 123.491 39.48C123.518 39.88 123.451 40.2667 123.291 40.64C123.264 40.7467 123.198 40.8533 123.091 40.96C122.984 41.12 122.891 41.2267 122.811 41.28C122.598 41.4933 122.438 41.72 122.331 41.96C122.331 41.9867 122.304 42.0267 122.251 42.08C122.224 42.1333 122.184 42.1867 122.131 42.24C122.024 42.3467 121.878 42.4 121.691 42.4ZM129.967 45.2C129.674 45.1467 129.474 45.0133 129.367 44.8C129.287 44.64 129.22 44.4667 129.167 44.28C129.14 44.12 129.114 43.96 129.087 43.8C129.06 43.5867 129.034 43.36 129.007 43.12C128.98 42.9067 128.954 42.6933 128.927 42.48C128.9 42.2133 128.86 41.96 128.807 41.72C128.754 41.48 128.674 41.2267 128.567 40.96C128.54 40.88 128.514 40.8133 128.487 40.76C128.46 40.68 128.42 40.6 128.367 40.52L127.887 39.52C127.754 39.2533 127.687 38.9867 127.687 38.72C127.66 38.3733 127.647 38.04 127.647 37.72C127.647 37.4 127.66 37.08 127.687 36.76C127.687 36.6533 127.714 36.52 127.767 36.36C127.82 36.0933 127.874 35.84 127.927 35.6C128.007 35.3333 128.06 35.08 128.087 34.84C128.14 34.52 128.194 34.2133 128.247 33.92C128.3 33.6 128.34 33.2933 128.367 33C128.42 32.7067 128.46 32.4133 128.487 32.12C128.514 31.8267 128.54 31.5333 128.567 31.24C128.594 31.0267 128.62 30.8267 128.647 30.64C128.674 30.4267 128.7 30.2267 128.727 30.04C128.754 29.96 128.767 29.84 128.767 29.68C128.767 29.5467 128.78 29.4133 128.807 29.28C128.834 29.12 128.86 28.9733 128.887 28.84C128.94 28.6267 128.967 28.4133 128.967 28.2C128.994 27.96 129.02 27.7333 129.047 27.52C129.074 27.44 129.087 27.3333 129.087 27.2C129.167 26.9067 129.22 26.6 129.247 26.28C129.3 25.96 129.34 25.64 129.367 25.32L129.487 24.64C129.54 24.3467 129.58 24.0533 129.607 23.76C129.634 23.44 129.66 23.1333 129.687 22.84C129.74 22.5467 129.767 22.2533 129.767 21.96C129.767 21.64 129.767 21.3333 129.767 21.04C129.767 20.88 129.767 20.7333 129.767 20.6C129.794 20.44 129.82 20.28 129.847 20.12C129.9 19.4267 129.847 18.76 129.687 18.12C129.66 18.0933 129.647 18.0667 129.647 18.04C129.54 17.6933 129.527 17.3733 129.607 17.08C129.687 16.7867 129.82 16.5067 130.007 16.24C130.327 15.7067 130.78 15.3867 131.367 15.28C131.474 15.2533 131.567 15.24 131.647 15.24C131.727 15.2133 131.82 15.2133 131.927 15.24C132.034 15.2933 132.127 15.32 132.207 15.32C132.447 15.3467 132.674 15.4533 132.887 15.64L133.247 16.12C133.434 16.44 133.607 16.68 133.767 16.84C134.194 17.3733 134.567 17.9467 134.887 18.56C135.074 18.9067 135.234 19.2533 135.367 19.6C135.527 19.92 135.687 20.24 135.847 20.56C135.927 20.7467 135.994 20.92 136.047 21.08C136.127 21.24 136.207 21.4 136.287 21.56C136.34 21.64 136.42 21.7333 136.527 21.84C136.634 22 136.687 22.12 136.687 22.2C136.74 22.3067 136.727 22.4 136.647 22.48C136.62 22.5067 136.62 22.5467 136.647 22.6C136.674 22.6533 136.7 22.7067 136.727 22.76C136.754 22.7867 136.807 22.9467 136.887 23.24C136.967 23.5067 136.994 23.6 136.967 23.52C137.02 23.6533 137.1 23.72 137.207 23.72C137.287 23.7467 137.34 23.8 137.367 23.88C137.394 23.9333 137.354 24 137.247 24.08C137.167 24.1067 137.167 24.2133 137.247 24.4C137.327 24.56 137.38 24.6667 137.407 24.72C137.514 24.9867 137.607 25.2533 137.687 25.52C137.767 25.76 137.86 26.0133 137.967 26.28C138.1 26.6267 138.22 26.9867 138.327 27.36C138.434 27.7333 138.54 28.1067 138.647 28.48C138.727 28.7467 138.807 29.0133 138.887 29.28C138.994 29.52 139.087 29.76 139.167 30C139.167 30.0533 139.194 30.08 139.247 30.08L139.327 30C139.327 29.9467 139.354 29.8667 139.407 29.76C139.46 29.4667 139.527 29.1733 139.607 28.88C139.687 28.56 139.767 28.2533 139.847 27.96C139.98 27.56 140.087 27.16 140.167 26.76C140.274 26.36 140.38 25.96 140.487 25.56C140.54 25.32 140.607 25.08 140.687 24.84C140.767 24.5733 140.82 24.32 140.847 24.08C140.954 23.6267 141.06 23.1867 141.167 22.76C141.274 22.3333 141.367 21.9067 141.447 21.48C141.474 21.4267 141.487 21.3733 141.487 21.32C141.514 21.2667 141.527 21.2133 141.527 21.16C141.554 20.8933 141.634 20.64 141.767 20.4C142.034 19.84 142.474 19.48 143.087 19.32C143.38 19.24 143.674 19.24 143.967 19.32C144.207 19.3733 144.38 19.4667 144.487 19.6C144.674 19.7867 144.847 19.9733 145.007 20.16C145.194 20.3467 145.354 20.5467 145.487 20.76C145.594 20.92 145.7 21.08 145.807 21.24C145.914 21.3733 146.02 21.52 146.127 21.68C146.207 21.7867 146.287 21.9067 146.367 22.04C146.447 22.1467 146.514 22.2667 146.567 22.4C146.78 22.7733 146.98 23.16 147.167 23.56C147.354 23.96 147.514 24.3733 147.647 24.8C147.647 24.8533 147.66 24.8933 147.687 24.92C147.82 25.1867 147.927 25.4667 148.007 25.76C148.087 26.0267 148.167 26.3067 148.247 26.6C148.354 26.8933 148.434 27.1867 148.487 27.48C148.567 27.7733 148.647 28.0667 148.727 28.36C148.727 28.4667 148.74 28.5467 148.767 28.6C148.847 28.8133 148.914 29.04 148.967 29.28C149.02 29.52 149.074 29.7467 149.127 29.96C149.18 30.28 149.234 30.6 149.287 30.92C149.34 31.24 149.394 31.5467 149.447 31.84C149.5 32.24 149.554 32.64 149.607 33.04C149.66 33.44 149.727 33.84 149.807 34.24C149.86 34.5067 149.9 34.7867 149.927 35.08C149.98 35.3733 150.02 35.6667 150.047 35.96C150.047 36.04 150.074 36.16 150.127 36.32L150.247 37.28C150.247 37.4133 150.26 37.5067 150.287 37.56C150.42 38.0667 150.5 38.5867 150.527 39.12C150.554 39.1467 150.567 39.1867 150.567 39.24C150.567 39.2667 150.58 39.3067 150.607 39.36L150.887 40.96C150.94 41.1467 150.94 41.3467 150.887 41.56L150.807 41.88C150.807 42.0933 150.767 42.2933 150.687 42.48C150.607 42.6667 150.514 42.8533 150.407 43.04C150.327 43.1467 150.234 43.2533 150.127 43.36C150.02 43.4933 149.9 43.6 149.767 43.68C149.474 43.8933 149.18 43.9067 148.887 43.72C148.274 43.32 147.82 42.8267 147.527 42.24C147.5 42.1333 147.46 42.04 147.407 41.96C147.38 41.8533 147.367 41.7467 147.367 41.64L147.247 40.88C147.22 40.7467 147.194 40.6133 147.167 40.48C147.167 40.32 147.154 40.1733 147.127 40.04L146.727 37.72C146.7 37.5333 146.674 37.36 146.647 37.2C146.62 37.04 146.594 36.8667 146.567 36.68L146.407 35.8C146.354 35.5067 146.3 35.2133 146.247 34.92C146.194 34.6 146.14 34.2933 146.087 34L145.687 31.44C145.66 31.0667 145.594 30.7067 145.487 30.36C145.407 29.9867 145.327 29.6267 145.247 29.28C145.14 28.8533 145.02 28.4533 144.887 28.08C144.754 27.68 144.607 27.2933 144.447 26.92L144.327 26.56C144.3 26.48 144.26 26.4 144.207 26.32C144.154 26.24 144.1 26.1733 144.047 26.12C143.967 26.12 143.927 26.1333 143.927 26.16L143.807 26.56C143.7 26.9067 143.607 27.28 143.527 27.68C143.447 28.0533 143.354 28.4267 143.247 28.8C143.194 29.0133 143.14 29.2267 143.087 29.44C143.034 29.6533 142.98 29.8667 142.927 30.08C142.874 30.2667 142.82 30.4667 142.767 30.68C142.74 30.8667 142.7 31.0667 142.647 31.28C142.594 31.6 142.527 31.92 142.447 32.24C142.367 32.56 142.3 32.88 142.247 33.2C142.22 33.44 142.18 33.68 142.127 33.92C142.1 34.16 142.074 34.4 142.047 34.64V34.88C142.1 35.0933 142.047 35.28 141.887 35.44C141.86 35.52 141.82 35.6 141.767 35.68C141.74 35.7333 141.714 35.8 141.687 35.88C141.634 36.12 141.567 36.2933 141.487 36.4L141.367 36.68C141.34 36.7067 141.314 36.76 141.287 36.84C141.287 36.8933 141.26 36.9467 141.207 37C141.02 37.32 140.78 37.5333 140.487 37.64C140.38 37.6933 140.274 37.7467 140.167 37.8C140.087 37.8533 139.994 37.9067 139.887 37.96C139.62 38.0933 139.34 38.08 139.047 37.92C138.647 37.6533 138.34 37.36 138.127 37.04L137.407 36C137.407 35.9733 137.394 35.96 137.367 35.96C137.367 35.9333 137.367 35.92 137.367 35.92C137.26 35.6267 137.14 35.36 137.007 35.12C136.874 34.88 136.767 34.6267 136.687 34.36L136.207 32.96C136.074 32.6133 135.954 32.2667 135.847 31.92C135.74 31.5733 135.62 31.2267 135.487 30.88L135.367 30.56C135.314 30.32 135.247 30.08 135.167 29.84C135.114 29.6 135.047 29.3733 134.967 29.16C134.914 28.92 134.847 28.6933 134.767 28.48C134.687 28.24 134.62 28.0133 134.567 27.8C134.46 27.5067 134.354 27.2133 134.247 26.92C134.167 26.6 134.06 26.2933 133.927 26C133.874 25.8133 133.794 25.6667 133.687 25.56C133.474 25.3467 133.327 25.0933 133.247 24.8C133.247 24.7467 133.22 24.72 133.167 24.72L133.087 24.8V24.84C133.06 24.8667 133.047 24.9067 133.047 24.96C133.02 25.2267 132.994 25.5067 132.967 25.8C132.94 26.0933 132.9 26.3867 132.847 26.68L132.727 28C132.7 28.2133 132.674 28.4267 132.647 28.64C132.647 28.8533 132.634 29.0667 132.607 29.28C132.58 29.3867 132.554 29.4933 132.527 29.6C132.527 29.7067 132.527 29.8267 132.527 29.96C132.5 30.6267 132.42 31.3333 132.287 32.08C132.26 32.2667 132.234 32.48 132.207 32.72C132.18 32.9333 132.154 33.1467 132.127 33.36L132.007 34.24C131.927 34.72 131.887 35.1867 131.887 35.64C131.887 35.8267 131.887 36.0133 131.887 36.2C131.914 36.3867 131.9 36.5733 131.847 36.76C131.82 37 131.847 37.28 131.927 37.6C132.034 37.7867 132.074 37.9733 132.047 38.16C132.047 38.3467 132.02 38.5467 131.967 38.76C131.94 38.92 131.887 39.08 131.807 39.24C131.754 39.4 131.66 39.5467 131.527 39.68C131.474 39.76 131.407 39.8533 131.327 39.96C131.274 40.0667 131.207 40.16 131.127 40.24C130.914 40.5067 130.807 40.8 130.807 41.12V42C130.807 42.2133 130.794 42.4133 130.767 42.6C130.767 42.8133 130.78 43.0267 130.807 43.24C130.807 43.2667 130.794 43.2933 130.767 43.32C130.767 43.3467 130.767 43.3867 130.767 43.44C130.74 43.52 130.727 43.6 130.727 43.68C130.727 43.76 130.727 43.84 130.727 43.92C130.754 44.16 130.727 44.4133 130.647 44.68C130.514 44.92 130.34 45.08 130.127 45.16C130.074 45.1867 130.02 45.2 129.967 45.2Z" fill="white"/>
<defs>
<linearGradient id="paint0_linear_193_3165" x1="163.057" y1="87.6042" x2="44.9454" y2="-38.2654" gradientUnits="userSpaceOnUse">
<stop stop-color="#F7B10A"/>
<stop offset="1" stop-color="#FFD35B"/>
</linearGradient>
<linearGradient id="paint1_linear_193_3165" x1="0" y1="28.4292" x2="5.32149" y2="28.4292" gradientUnits="userSpaceOnUse">
<stop/>
<stop offset="1" stop-color="#F8E07D"/>
</linearGradient>
<linearGradient id="paint2_linear_193_3165" x1="194.669" y1="28.4285" x2="199.99" y2="28.4285" gradientUnits="userSpaceOnUse">
<stop stop-color="#FFF7DB"/>
<stop offset="1" stop-color="#EDC98E"/>
</linearGradient>
<linearGradient id="paint3_linear_193_3165" x1="100.094" y1="4.99334" x2="100.094" y2="0" gradientUnits="userSpaceOnUse">
<stop stop-color="#F8E07D"/>
<stop offset="1"/>
</linearGradient>
<radialGradient id="paint4_radial_193_3165" cx="0" cy="0" r="1" gradientUnits="userSpaceOnUse" gradientTransform="translate(21.9778 52.5589) scale(174.747 163.977)">
<stop stop-color="#FFF7DB"/>
<stop offset="1" stop-color="#EDC98E"/>
</radialGradient>
<radialGradient id="paint5_radial_193_3165" cx="0" cy="0" r="1" gradientUnits="userSpaceOnUse" gradientTransform="translate(100.498 46.6863) scale(118.749 26.4861)">
<stop stop-color="#FFE9C2"/>
<stop offset="1" stop-color="#FFDDA3"/>
</radialGradient>
<radialGradient id="paint6_radial_193_3165" cx="0" cy="0" r="1" gradientUnits="userSpaceOnUse" gradientTransform="translate(2.66074 19.0647) scale(13.0293 12.2263)">
<stop stop-color="#FFE9C2"/>
<stop offset="1" stop-color="#FFDDA3"/>
</radialGradient>
<radialGradient id="paint7_radial_193_3165" cx="0" cy="0" r="1" gradientUnits="userSpaceOnUse" gradientTransform="translate(37.0237 -1.08793) scale(154.303 144.793)">
<stop stop-color="#FFE9C2"/>
<stop offset="1"/>
</radialGradient>
<radialGradient id="paint8_radial_193_3165" cx="0" cy="0" r="1" gradientUnits="userSpaceOnUse" gradientTransform="translate(5.74935 5.68862) scale(8.06514 7.56806)">
<stop stop-color="#FFD58C"/>
<stop offset="1" stop-color="#875B0E"/>
</radialGradient>
<radialGradient id="paint9_radial_193_3165" cx="0" cy="0" r="1" gradientUnits="userSpaceOnUse" gradientTransform="translate(194.726 5.47611) scale(8.85349 8.30781)">
<stop stop-color="#FFD58C"/>
<stop offset="1" stop-color="#875B0E"/>
</radialGradient>
<linearGradient id="paint10_linear_193_3165" x1="40.2203" y1="115.243" x2="40.2203" y2="-27.7545" gradientUnits="userSpaceOnUse">
<stop offset="0.359375" stop-color="#F76E0A"/>
<stop offset="1" stop-color="#FFBB00"/>
</linearGradient>
<linearGradient id="paint11_linear_193_3165" x1="14.4095" y1="26.3892" x2="14.4095" y2="13.5877" gradientUnits="userSpaceOnUse">
<stop stop-color="#FFDD69"/>
<stop offset="1" stop-color="#ED9300"/>
</linearGradient>
<linearGradient id="paint12_linear_193_3165" x1="14.4095" y1="22.2859" x2="14.4095" y2="13.5879" gradientUnits="userSpaceOnUse">
<stop stop-color="white"/>
<stop offset="1" stop-color="#E8D06F"/>
</linearGradient>
<linearGradient id="paint13_linear_193_3165" x1="16.0813" y1="25.716" x2="15.4167" y2="23.0731" gradientUnits="userSpaceOnUse">
<stop stop-color="#F8E07D"/>
<stop offset="1"/>
</linearGradient>
<linearGradient id="paint14_linear_193_3165" x1="31.0292" y1="30.5093" x2="31.0292" y2="20.8249" gradientUnits="userSpaceOnUse">
<stop stop-color="#FFDD69"/>
<stop offset="1" stop-color="#ED9300"/>
</linearGradient>
<linearGradient id="paint15_linear_193_3165" x1="30.9955" y1="26.3793" x2="30.9955" y2="20.8249" gradientUnits="userSpaceOnUse">
<stop stop-color="white"/>
<stop offset="1" stop-color="#E8D06F"/>
</linearGradient>
<linearGradient id="paint16_linear_193_3165" x1="32.298" y1="29.9525" x2="31.7327" y2="27.7042" gradientUnits="userSpaceOnUse">
<stop stop-color="#F8E07D"/>
<stop offset="1"/>
</linearGradient>
<linearGradient id="paint17_linear_193_3165" x1="31.0297" y1="13.7115" x2="31.0297" y2="7.74219" gradientUnits="userSpaceOnUse">
<stop stop-color="#FFDD69"/>
<stop offset="1" stop-color="#ED9300"/>
</linearGradient>
<linearGradient id="paint18_linear_193_3165" x1="31.0297" y1="10.6774" x2="31.0297" y2="7.74145" gradientUnits="userSpaceOnUse">
<stop stop-color="white"/>
<stop offset="1" stop-color="#E8D06F"/>
</linearGradient>
<linearGradient id="paint19_linear_193_3165" x1="31.9057" y1="13.3722" x2="31.3972" y2="11.3505" gradientUnits="userSpaceOnUse">
<stop stop-color="#F8E07D"/>
<stop offset="1"/>
</linearGradient>
<linearGradient id="paint20_linear_193_3165" x1="14.4096" y1="49.7598" x2="14.4096" y2="42.0486" gradientUnits="userSpaceOnUse">
<stop stop-color="#FFDD69"/>
<stop offset="1" stop-color="#ED9300"/>
</linearGradient>
<linearGradient id="paint21_linear_193_3165" x1="14.4076" y1="46.4808" x2="14.4076" y2="42.048" gradientUnits="userSpaceOnUse">
<stop stop-color="white"/>
<stop offset="1" stop-color="#E8D06F"/>
</linearGradient>
<linearGradient id="paint22_linear_193_3165" x1="15.6978" y1="49.4712" x2="15.0624" y2="46.9441" gradientUnits="userSpaceOnUse">
<stop stop-color="#F8E07D"/>
<stop offset="1"/>
</linearGradient>
<linearGradient id="paint23_linear_193_3165" x1="34.7793" y1="54.4138" x2="34.7793" y2="49.3144" gradientUnits="userSpaceOnUse">
<stop stop-color="#FFDD69"/>
<stop offset="1" stop-color="#ED9300"/>
</linearGradient>
<linearGradient id="paint24_linear_193_3165" x1="34.7793" y1="52.2607" x2="34.7793" y2="49.3144" gradientUnits="userSpaceOnUse">
<stop stop-color="white"/>
<stop offset="1" stop-color="#E8D06F"/>
</linearGradient>
<linearGradient id="paint25_linear_193_3165" x1="35.7837" y1="54.1587" x2="35.3812" y2="52.5579" gradientUnits="userSpaceOnUse">
<stop stop-color="#F8E07D"/>
<stop offset="1"/>
</linearGradient>
<linearGradient id="paint26_linear_193_3165" x1="173.516" y1="13.6576" x2="173.516" y2="7.54144" gradientUnits="userSpaceOnUse">
<stop stop-color="#FFDD69"/>
<stop offset="1" stop-color="#ED9300"/>
</linearGradient>
<linearGradient id="paint27_linear_193_3165" x1="173.505" y1="11.1425" x2="173.505" y2="7.54144" gradientUnits="userSpaceOnUse">
<stop stop-color="white"/>
<stop offset="1" stop-color="#E8D06F"/>
</linearGradient>
<linearGradient id="paint28_linear_193_3165" x1="175.505" y1="13.4719" x2="175.066" y2="11.7245" gradientUnits="userSpaceOnUse">
<stop stop-color="#F8E07D"/>
<stop offset="1"/>
</linearGradient>
<linearGradient id="paint29_linear_193_3165" x1="185.93" y1="18.9618" x2="185.93" y2="11.124" gradientUnits="userSpaceOnUse">
<stop stop-color="#FFDD69"/>
<stop offset="1" stop-color="#ED9300"/>
</linearGradient>
<linearGradient id="paint30_linear_193_3165" x1="185.93" y1="16.1347" x2="185.93" y2="11.124" gradientUnits="userSpaceOnUse">
<stop stop-color="white"/>
<stop offset="1" stop-color="#E8D06F"/>
</linearGradient>
<linearGradient id="paint31_linear_193_3165" x1="187.025" y1="18.6443" x2="186.526" y2="16.6605" gradientUnits="userSpaceOnUse">
<stop stop-color="#F8E07D"/>
<stop offset="1"/>
</linearGradient>
<linearGradient id="paint32_linear_193_3165" x1="187.36" y1="30.8187" x2="187.36" y2="24.6579" gradientUnits="userSpaceOnUse">
<stop stop-color="#FFDD69"/>
<stop offset="1" stop-color="#ED9300"/>
</linearGradient>
<linearGradient id="paint33_linear_193_3165" x1="187.36" y1="28.4137" x2="187.36" y2="24.6579" gradientUnits="userSpaceOnUse">
<stop stop-color="white"/>
<stop offset="1" stop-color="#E8D06F"/>
</linearGradient>
<linearGradient id="paint34_linear_193_3165" x1="188.17" y1="30.4517" x2="187.709" y2="28.6186" gradientUnits="userSpaceOnUse">
<stop stop-color="#F8E07D"/>
<stop offset="1"/>
</linearGradient>
<linearGradient id="paint35_linear_193_3165" x1="179.355" y1="48.3793" x2="179.355" y2="39.048" gradientUnits="userSpaceOnUse">
<stop stop-color="#FFDD69"/>
<stop offset="1" stop-color="#ED9300"/>
</linearGradient>
<linearGradient id="paint36_linear_193_3165" x1="179.355" y1="45.1908" x2="179.355" y2="39.048" gradientUnits="userSpaceOnUse">
<stop stop-color="white"/>
<stop offset="1" stop-color="#E8D06F"/>
</linearGradient>
<linearGradient id="paint37_linear_193_3165" x1="180.609" y1="47.855" x2="179.998" y2="45.4258" gradientUnits="userSpaceOnUse">
<stop stop-color="#F8E07D"/>
<stop offset="1"/>
</linearGradient>
<linearGradient id="paint38_linear_193_3165" x1="17.8873" y1="37.8249" x2="17.8873" y2="30.9079" gradientUnits="userSpaceOnUse">
<stop stop-color="#FFDD69"/>
<stop offset="1" stop-color="#ED9300"/>
</linearGradient>
<linearGradient id="paint39_linear_193_3165" x1="17.9205" y1="35.3361" x2="17.9205" y2="30.9079" gradientUnits="userSpaceOnUse">
<stop stop-color="white"/>
<stop offset="1" stop-color="#E8D06F"/>
</linearGradient>
<linearGradient id="paint40_linear_193_3165" x1="18.2563" y1="37.527" x2="18.2563" y2="35.4225" gradientUnits="userSpaceOnUse">
<stop stop-color="#F8E07D"/>
<stop offset="1"/>
</linearGradient>
<linearGradient id="paint41_linear_193_3165" x1="190.915" y1="10.7728" x2="190.915" y2="6.65161" gradientUnits="userSpaceOnUse">
<stop stop-color="#FFDD69"/>
<stop offset="1" stop-color="#ED9300"/>
</linearGradient>
<linearGradient id="paint42_linear_193_3165" x1="190.915" y1="9.01926" x2="190.915" y2="6.65082" gradientUnits="userSpaceOnUse">
<stop stop-color="white"/>
<stop offset="1" stop-color="#E8D06F"/>
</linearGradient>
<linearGradient id="paint43_linear_193_3165" x1="191.442" y1="10.5992" x2="191.442" y2="9.04289" gradientUnits="userSpaceOnUse">
<stop stop-color="#F8E07D"/>
<stop offset="1"/>
</linearGradient>
<linearGradient id="paint44_linear_193_3165" x1="133.307" y1="54.9837" x2="133.307" y2="50.1341" gradientUnits="userSpaceOnUse">
<stop stop-color="#FFDD69"/>
<stop offset="1" stop-color="#ED9300"/>
</linearGradient>
<linearGradient id="paint45_linear_193_3165" x1="133.307" y1="52.9145" x2="133.307" y2="50.1348" gradientUnits="userSpaceOnUse">
<stop stop-color="white"/>
<stop offset="1" stop-color="#E8D06F"/>
</linearGradient>
<linearGradient id="paint46_linear_193_3165" x1="133.613" y1="54.8231" x2="133.613" y2="52.6956" gradientUnits="userSpaceOnUse">
<stop stop-color="#F8E07D"/>
<stop offset="1"/>
</linearGradient>
<linearGradient id="paint47_linear_193_3165" x1="53.2865" y1="9.45915" x2="53.2865" y2="5.41066" gradientUnits="userSpaceOnUse">
<stop stop-color="#FFDD69"/>
<stop offset="1" stop-color="#ED9300"/>
</linearGradient>
<linearGradient id="paint48_linear_193_3165" x1="53.2865" y1="8.12347" x2="53.2865" y2="5.41066" gradientUnits="userSpaceOnUse">
<stop stop-color="white"/>
<stop offset="1" stop-color="#E8D06F"/>
</linearGradient>
<linearGradient id="paint49_linear_193_3165" x1="53.6391" y1="9.25697" x2="53.6391" y2="7.74885" gradientUnits="userSpaceOnUse">
<stop stop-color="#F8E07D"/>
<stop offset="1"/>
</linearGradient>
<linearGradient id="paint50_linear_193_3165" x1="139.416" y1="49.8816" x2="139.416" y2="47.0029" gradientUnits="userSpaceOnUse">
<stop stop-color="#FFDD69"/>
<stop offset="1" stop-color="#ED9300"/>
</linearGradient>
<linearGradient id="paint51_linear_193_3165" x1="139.416" y1="48.657" x2="139.416" y2="47.0027" gradientUnits="userSpaceOnUse">
<stop stop-color="white"/>
<stop offset="1" stop-color="#E8D06F"/>
</linearGradient>
<linearGradient id="paint52_linear_193_3165" x1="139.618" y1="49.7053" x2="139.618" y2="48.4927" gradientUnits="userSpaceOnUse">
<stop stop-color="#F8E07D"/>
<stop offset="1"/>
</linearGradient>
<linearGradient id="paint53_linear_193_3165" x1="64.5322" y1="53.9483" x2="64.5322" y2="49.9509" gradientUnits="userSpaceOnUse">
<stop stop-color="#FFDD69"/>
<stop offset="1" stop-color="#ED9300"/>
</linearGradient>
<linearGradient id="paint54_linear_193_3165" x1="64.5309" y1="52.2018" x2="64.5309" y2="49.9509" gradientUnits="userSpaceOnUse">
<stop stop-color="white"/>
<stop offset="1" stop-color="#E8D06F"/>
</linearGradient>
<linearGradient id="paint55_linear_193_3165" x1="64.8488" y1="53.7548" x2="64.8488" y2="52.5494" gradientUnits="userSpaceOnUse">
<stop stop-color="#F8E07D"/>
<stop offset="1"/>
</linearGradient>
<linearGradient id="paint56_linear_193_3165" x1="23.6342" y1="45.5164" x2="23.6342" y2="41.5261" gradientUnits="userSpaceOnUse">
<stop stop-color="#FFDD69"/>
<stop offset="1" stop-color="#ED9300"/>
</linearGradient>
<linearGradient id="paint57_linear_193_3165" x1="23.6152" y1="44.0807" x2="23.6152" y2="41.5261" gradientUnits="userSpaceOnUse">
<stop stop-color="white"/>
<stop offset="1" stop-color="#E8D06F"/>
</linearGradient>
<linearGradient id="paint58_linear_193_3165" x1="23.9183" y1="45.3541" x2="23.9183" y2="43.964" gradientUnits="userSpaceOnUse">
<stop stop-color="#F8E07D"/>
<stop offset="1"/>
</linearGradient>
<linearGradient id="paint59_linear_193_3165" x1="33.9701" y1="35.6996" x2="33.9701" y2="30.5461" gradientUnits="userSpaceOnUse">
<stop stop-color="#FFDD69"/>
<stop offset="1" stop-color="#ED9300"/>
</linearGradient>
<linearGradient id="paint60_linear_193_3165" x1="33.9702" y1="33.5076" x2="33.9702" y2="30.5461" gradientUnits="userSpaceOnUse">
<stop stop-color="white"/>
<stop offset="1" stop-color="#E8D06F"/>
</linearGradient>
<linearGradient id="paint61_linear_193_3165" x1="34.332" y1="35.3848" x2="34.332" y2="33.2139" gradientUnits="userSpaceOnUse">
<stop stop-color="#F8E07D"/>
<stop offset="1"/>
</linearGradient>
<linearGradient id="paint62_linear_193_3165" x1="28.7978" y1="51.2082" x2="28.7978" y2="48.3112" gradientUnits="userSpaceOnUse">
<stop stop-color="#FFDD69"/>
<stop offset="1" stop-color="#ED9300"/>
</linearGradient>
<linearGradient id="paint63_linear_193_3165" x1="28.7976" y1="49.9717" x2="28.7976" y2="48.3112" gradientUnits="userSpaceOnUse">
<stop stop-color="white"/>
<stop offset="1" stop-color="#E8D06F"/>
</linearGradient>
<linearGradient id="paint64_linear_193_3165" x1="28.9922" y1="51.08" x2="28.9922" y2="49.8092" gradientUnits="userSpaceOnUse">
<stop stop-color="#F8E07D"/>
<stop offset="1"/>
</linearGradient>
<linearGradient id="paint65_linear_193_3165" x1="10.7245" y1="10.8737" x2="10.7245" y2="5.14769" gradientUnits="userSpaceOnUse">
<stop stop-color="#FFDD69"/>
<stop offset="1" stop-color="#ED9300"/>
</linearGradient>
<linearGradient id="paint66_linear_193_3165" x1="10.7245" y1="8.80838" x2="10.7245" y2="5.14769" gradientUnits="userSpaceOnUse">
<stop stop-color="white"/>
<stop offset="1" stop-color="#E8D06F"/>
</linearGradient>
<linearGradient id="paint67_linear_193_3165" x1="11.1852" y1="10.7578" x2="11.1852" y2="8.69108" gradientUnits="userSpaceOnUse">
<stop stop-color="#F8E07D"/>
<stop offset="1"/>
</linearGradient>
<linearGradient id="paint68_linear_193_3165" x1="175.771" y1="32.9267" x2="175.771" y2="27.0151" gradientUnits="userSpaceOnUse">
<stop stop-color="#FFDD69"/>
<stop offset="1" stop-color="#ED9300"/>
</linearGradient>
<linearGradient id="paint69_linear_193_3165" x1="175.795" y1="31.8118" x2="175.795" y2="27.0151" gradientUnits="userSpaceOnUse">
<stop stop-color="white"/>
<stop offset="1" stop-color="#E8D06F"/>
</linearGradient>
<linearGradient id="paint70_linear_193_3165" x1="175.749" y1="32.7416" x2="175.749" y2="30.5913" gradientUnits="userSpaceOnUse">
<stop stop-color="#F8E07D"/>
<stop offset="1"/>
</linearGradient>
<linearGradient id="paint71_linear_193_3165" x1="190.145" y1="50.7081" x2="190.145" y2="46.6578" gradientUnits="userSpaceOnUse">
<stop stop-color="#FFDD69"/>
<stop offset="1" stop-color="#ED9300"/>
</linearGradient>
<linearGradient id="paint72_linear_193_3165" x1="190.145" y1="48.6468" x2="190.145" y2="46.6578" gradientUnits="userSpaceOnUse">
<stop stop-color="white"/>
<stop offset="1" stop-color="#E8D06F"/>
</linearGradient>
<linearGradient id="paint73_linear_193_3165" x1="190.483" y1="50.4719" x2="190.483" y2="49.0237" gradientUnits="userSpaceOnUse">
<stop stop-color="#F8E07D"/>
<stop offset="1"/>
</linearGradient>
<linearGradient id="paint74_linear_193_3165" x1="166.073" y1="45.0901" x2="166.073" y2="42.7355" gradientUnits="userSpaceOnUse">
<stop stop-color="#FFDD69"/>
<stop offset="1" stop-color="#ED9300"/>
</linearGradient>
<linearGradient id="paint75_linear_193_3165" x1="166.068" y1="44.1218" x2="166.068" y2="42.7355" gradientUnits="userSpaceOnUse">
<stop stop-color="white"/>
<stop offset="1" stop-color="#E8D06F"/>
</linearGradient>
<linearGradient id="paint76_linear_193_3165" x1="166.679" y1="45.0232" x2="166.679" y2="44.1501" gradientUnits="userSpaceOnUse">
<stop stop-color="#F8E07D"/>
<stop offset="1"/>
</linearGradient>
<linearGradient id="paint77_linear_193_3165" x1="149.057" y1="7.54062" x2="149.057" y2="2.22683" gradientUnits="userSpaceOnUse">
<stop stop-color="#FFDD69"/>
<stop offset="1" stop-color="#ED9300"/>
</linearGradient>
<linearGradient id="paint78_linear_193_3165" x1="149.047" y1="5.35556" x2="149.047" y2="2.22683" gradientUnits="userSpaceOnUse">
<stop stop-color="white"/>
<stop offset="1" stop-color="#E8D06F"/>
</linearGradient>
<linearGradient id="paint79_linear_193_3165" x1="150.425" y1="7.39132" x2="150.425" y2="5.42062" gradientUnits="userSpaceOnUse">
<stop stop-color="#F8E07D"/>
<stop offset="1"/>
</linearGradient>
<linearGradient id="paint80_linear_193_3165" x1="162.53" y1="50.5287" x2="162.53" y2="44.9901" gradientUnits="userSpaceOnUse">
<stop stop-color="#FFDD69"/>
<stop offset="1" stop-color="#ED9300"/>
</linearGradient>
<linearGradient id="paint81_linear_193_3165" x1="162.53" y1="48.7013" x2="162.53" y2="44.9901" gradientUnits="userSpaceOnUse">
<stop stop-color="white"/>
<stop offset="1" stop-color="#E8D06F"/>
</linearGradient>
<linearGradient id="paint82_linear_193_3165" x1="163.122" y1="50.2757" x2="163.122" y2="48.2124" gradientUnits="userSpaceOnUse">
<stop stop-color="#F8E07D"/>
<stop offset="1"/>
</linearGradient>
<linearGradient id="paint83_linear_193_3165" x1="193.992" y1="38.347" x2="193.992" y2="33.5755" gradientUnits="userSpaceOnUse">
<stop stop-color="#FFDD69"/>
<stop offset="1" stop-color="#ED9300"/>
</linearGradient>
<linearGradient id="paint84_linear_193_3165" x1="193.993" y1="36.262" x2="193.993" y2="33.5755" gradientUnits="userSpaceOnUse">
<stop stop-color="white"/>
<stop offset="1" stop-color="#E8D06F"/>
</linearGradient>
<linearGradient id="paint85_linear_193_3165" x1="194.414" y1="38.1581" x2="194.414" y2="36.7196" gradientUnits="userSpaceOnUse">
<stop stop-color="#F8E07D"/>
<stop offset="1"/>
</linearGradient>
</defs>
</svg>
