<svg width="17" height="16" viewBox="0 0 17 16" fill="none" xmlns="http://www.w3.org/2000/svg">
<path fill-rule="evenodd" clip-rule="evenodd" d="M3.11677 1.17157L3.11677 1.17157L1.40094 2.8874C0.822882 3.46546 0.533852 3.75449 0.381611 4.12203C0.22937 4.48957 0.22937 4.89832 0.22937 5.71583V10.326C0.22937 11.1517 0.22937 11.5646 0.384424 11.9351C0.539477 12.3056 0.833557 12.5954 1.42172 13.175L3.12042 14.849C3.69683 15.4171 3.98503 15.7011 4.34961 15.8505C4.71419 16 5.11882 16 5.92808 16H10.5725C11.39 16 11.7988 16 12.1663 15.8478C12.5339 15.6955 12.8229 15.4065 13.4009 14.8284L15.0578 13.1716C15.6359 12.5935 15.9249 12.3045 16.0771 11.9369C16.2294 11.5694 16.2294 11.1606 16.2294 10.3431V5.69871C16.2294 4.88945 16.2294 4.48482 16.0799 4.12024C15.9305 3.75566 15.6464 3.46745 15.0784 2.89105L13.4044 1.19234C12.8248 0.604186 12.535 0.310107 12.1645 0.155053C11.794 0 11.3811 0 10.5553 0H5.94519C5.12769 0 4.71894 0 4.3514 0.152241C3.98386 0.304482 3.69483 0.593512 3.11677 1.17157ZM4.67658 6.10557C4.18261 5.85858 3.58193 6.05881 3.33494 6.55279C3.08795 7.04676 3.28818 7.64744 3.78216 7.89443L4.08773 8.04721L3.83494 8.55279C3.58795 9.04676 3.78818 9.64744 4.28216 9.89443C4.77613 10.1414 5.37681 9.94119 5.6238 9.44721L5.96433 8.76615C6.38117 8.87454 6.80397 8.9525 7.22937 9.00004V10C7.22937 10.5523 7.67709 11 8.22937 11C8.78165 11 9.22937 10.5523 9.22937 10V9.00004C9.65477 8.9525 10.0776 8.87454 10.4944 8.76615L10.8349 9.44721C11.0819 9.94119 11.6826 10.1414 12.1766 9.89443C12.6706 9.64744 12.8708 9.04676 12.6238 8.55279L12.371 8.04721L12.6766 7.89443C13.1706 7.64744 13.3708 7.04676 13.1238 6.55279C12.8768 6.05881 12.2761 5.85858 11.7822 6.10557L11.3599 6.31672C9.38917 7.30206 7.06957 7.30206 5.09888 6.31672L4.67658 6.10557Z" fill="#33363F"/>
</svg>
