<svg width="204" height="46" viewBox="0 0 204 46" fill="none" xmlns="http://www.w3.org/2000/svg">
<path d="M19.44 32.88C19.28 32.9333 19.1333 32.8933 19 32.76C18.8933 32.6533 18.8 32.52 18.72 32.36C18.6667 32.2 18.6133 32.0267 18.56 31.84C18.5067 31.6533 18.48 31.4667 18.48 31.28C18.48 31.1467 18.48 31.0133 18.48 30.88C18.48 30.7467 18.4533 30.6267 18.4 30.52C18.3733 30.4133 18.3467 30.3067 18.32 30.2C18.32 30.12 18.32 30.04 18.32 29.96C18.2933 29.6667 18.1867 29.3867 18 29.12C17.9733 29.12 17.96 29.12 17.96 29.12C17.96 29.0933 17.96 29.08 17.96 29.08C17.7467 28.7867 17.5733 28.48 17.44 28.16C17.3333 27.84 17.2533 27.5067 17.2 27.16L16.84 25C16.8133 24.84 16.7867 24.6933 16.76 24.56C16.7333 24.4 16.6933 24.24 16.64 24.08C16.6133 23.8667 16.5733 23.6667 16.52 23.48C16.4667 23.2933 16.4133 23.1067 16.36 22.92L16.12 22.04V21.92C16.0933 21.7333 16.0533 21.5467 16 21.36C15.9467 21.1733 15.9067 20.9867 15.88 20.8C15.8533 20.5867 15.8133 20.3867 15.76 20.2C15.7333 19.9867 15.6933 19.7867 15.64 19.6C15.64 19.4933 15.6 19.4 15.52 19.32C15.4667 19.2133 15.4 19.1067 15.32 19C15.32 18.9733 15.2933 18.9333 15.24 18.88C14.92 18.6667 14.56 18.5867 14.16 18.64C14.0533 18.64 13.9733 18.6533 13.92 18.68C13.6533 18.7333 13.3867 18.8133 13.12 18.92C12.8533 19.0267 12.5867 19.1467 12.32 19.28C12.2133 19.3333 12.1467 19.3733 12.12 19.4C11.9867 19.5067 11.84 19.6 11.68 19.68C11.52 19.7333 11.36 19.7867 11.2 19.84C10.8 20 10.4 20.1867 10 20.4C9.62667 20.6133 9.25333 20.8267 8.88 21.04L8.64 21.24C8.50667 21.3467 8.36 21.4667 8.2 21.6C8.04 21.7067 7.88 21.8 7.72 21.88C7.48 22.04 7.36 22.2533 7.36 22.52C7.30667 22.8933 7.36 23.2533 7.52 23.6C7.65333 23.9467 7.74667 24.3467 7.8 24.8C7.8 24.96 7.81333 25.08 7.84 25.16C7.89333 25.24 7.92 25.3333 7.92 25.44C7.94667 25.52 7.97333 25.6 8 25.68L8.12 26.44C8.2 26.9733 8.12 27.48 7.88 27.96C7.85333 27.9867 7.81333 28.0533 7.76 28.16C7.52 28.56 7.36 29 7.28 29.48C7.25333 29.6133 7.21333 29.7467 7.16 29.88C7.10667 29.9867 7.02667 30.1067 6.92 30.24C6.81333 30.3733 6.65333 30.4533 6.44 30.48C6.22667 30.5067 6.04 30.4133 5.88 30.2C5.77333 30.0133 5.69333 29.7733 5.64 29.48C5.58667 29.2133 5.53333 29 5.48 28.84C5.42667 28.6267 5.33333 28.4667 5.2 28.36C4.98667 28.0667 4.78667 27.6933 4.6 27.24C4.49333 26.9467 4.41333 26.6533 4.36 26.36C4.30667 26.0667 4.25333 25.7733 4.2 25.48C4.12 25.08 4.04 24.68 3.96 24.28C3.88 23.88 3.78667 23.48 3.68 23.08C3.6 22.7333 3.50667 22.4 3.4 22.08C3.32 21.7333 3.24 21.3867 3.16 21.04L2.44 18.08C2.41333 17.7867 2.33333 17.5067 2.2 17.24C2.14667 17.0267 2.08 16.8133 2 16.6C1.92 16.36 1.85333 16.1333 1.8 15.92C1.77333 15.84 1.74667 15.76 1.72 15.68C1.69333 15.5733 1.66667 15.48 1.64 15.4C1.61333 15.2667 1.57333 15.1333 1.52 15C1.49333 14.8667 1.44 14.7333 1.36 14.6L1.24 14.16C1.18667 13.9467 1.13333 13.7333 1.08 13.52C1.02667 13.3067 0.973333 13.1067 0.92 12.92L0.88 12.76C0.88 12.6 0.866667 12.44 0.84 12.28C0.813333 12.12 0.786667 11.9467 0.76 11.76C0.76 11.7333 0.746667 11.72 0.72 11.72C0.72 11.6933 0.72 11.6667 0.72 11.64C0.693333 11.2667 0.666667 10.8933 0.64 10.52C0.613333 10.12 0.6 9.73333 0.6 9.36C0.573333 9.12 0.573333 8.97333 0.6 8.92C0.626667 8.86667 0.693333 8.74667 0.8 8.56C0.88 8.42667 0.973333 8.28 1.08 8.12C1.08 8.06667 1.10667 8.04 1.16 8.04C1.26667 8.01333 1.36 7.97333 1.44 7.92C1.52 7.84 1.6 7.77333 1.68 7.72C1.97333 7.53333 2.33333 7.44 2.76 7.44C2.84 7.44 2.89333 7.45333 2.92 7.48C3 7.50667 3.06667 7.53333 3.12 7.56C3.2 7.58667 3.28 7.62667 3.36 7.68C3.52 7.73333 3.65333 7.82667 3.76 7.96C3.89333 8.09333 4.01333 8.22667 4.12 8.36C4.30667 8.76 4.41333 9.13333 4.44 9.48C4.49333 9.8 4.57333 10.12 4.68 10.44L4.8 11C4.85333 11.2667 4.92 11.5333 5 11.8C5.08 12.0667 5.14667 12.3333 5.2 12.6C5.28 12.9733 5.34667 13.36 5.4 13.76C5.48 14.1333 5.56 14.5067 5.64 14.88L5.76 15.6C5.76 15.6267 5.76 15.6667 5.76 15.72C5.78667 15.7467 5.8 15.7733 5.8 15.8C5.85333 15.9333 5.93333 16 6.04 16C6.30667 16.0267 6.57333 16.0533 6.84 16.08C7.10667 16.1067 7.37333 16.0933 7.64 16.04C8.09333 15.9867 8.53333 15.92 8.96 15.84C9.38667 15.76 9.81333 15.68 10.24 15.6C10.8 15.4933 11.3467 15.3867 11.88 15.28C12.44 15.1467 13 15.0133 13.56 14.88L14.36 14.68C14.4933 14.6267 14.56 14.5333 14.56 14.4C14.5333 14.32 14.52 14.24 14.52 14.16C14.52 14.08 14.5067 14 14.48 13.92C14.3467 13.5467 14.2667 13.2 14.24 12.88C14.2133 12.7467 14.1867 12.6133 14.16 12.48C14.1333 12.32 14.1067 12.1733 14.08 12.04C14 11.5867 13.92 11.1333 13.84 10.68C13.7867 10.2 13.7333 9.73333 13.68 9.28C13.6533 9.06667 13.6267 8.86667 13.6 8.68C13.6 8.46667 13.5733 8.26667 13.52 8.08C13.4933 7.78667 13.4667 7.49333 13.44 7.2C13.44 6.88 13.44 6.58667 13.44 6.32C13.44 6.26667 13.44 6.21333 13.44 6.16C13.4667 6.10667 13.4933 6.05333 13.52 6C13.5467 5.89333 13.5733 5.8 13.6 5.72C13.6267 5.61333 13.6533 5.50667 13.68 5.4C13.7333 5.24 13.7867 5.10667 13.84 5C13.92 4.86667 14 4.74667 14.08 4.64C14.2133 4.56 14.32 4.45333 14.4 4.32C14.5333 4.18667 14.6533 4.10667 14.76 4.08L15.12 3.96C15.2 3.90666 15.28 3.89333 15.36 3.92C15.4667 3.92 15.56 3.93333 15.64 3.96C15.72 3.96 15.84 3.98667 16 4.04C16.08 4.06667 16.16 4.10667 16.24 4.16C16.32 4.21333 16.3867 4.28 16.44 4.36C16.4933 4.46667 16.56 4.57333 16.64 4.68C16.7467 4.76 16.8133 4.86667 16.84 5C16.8933 5.08 16.96 5.12 17.04 5.12C17.12 5.14666 17.1867 5.22666 17.24 5.36C17.24 5.38667 17.24 5.41333 17.24 5.44C17.2667 5.46667 17.28 5.50667 17.28 5.56C17.3333 5.77333 17.3867 6 17.44 6.24C17.4933 6.45333 17.5333 6.66667 17.56 6.88C17.56 6.96 17.56 7.04 17.56 7.12C17.5867 7.2 17.5867 7.29333 17.56 7.4V7.72C17.5867 7.93333 17.6133 8.16 17.64 8.4C17.6667 8.61333 17.6933 8.82667 17.72 9.04C17.7467 9.06667 17.76 9.13333 17.76 9.24C17.84 9.34666 17.8933 9.48 17.92 9.64C17.9467 9.8 17.9733 9.94667 18 10.08C18.0267 10.2133 18.04 10.36 18.04 10.52C18.0667 10.6533 18.1067 10.7867 18.16 10.92C18.1867 10.9733 18.2 11.0533 18.2 11.16C18.2 11.2667 18.2 11.3733 18.2 11.48C18.2267 11.56 18.24 11.6533 18.24 11.76C18.24 11.8667 18.2533 11.9333 18.28 11.96C18.3067 11.9867 18.3333 12.0267 18.36 12.08C18.4133 12.1067 18.4267 12.1467 18.4 12.2C18.4 12.2533 18.3867 12.3067 18.36 12.36C18.36 12.4133 18.36 12.4667 18.36 12.52V12.72C18.4133 12.8533 18.4533 13 18.48 13.16C18.5067 13.32 18.5333 13.4667 18.56 13.6C18.56 13.76 18.6133 13.8533 18.72 13.88L18.84 14C18.8933 14.0533 18.92 14.1467 18.92 14.28C18.8667 14.3333 18.84 14.3867 18.84 14.44C18.8133 14.4933 18.8133 14.56 18.84 14.64C18.92 14.72 18.9467 14.8 18.92 14.88C18.8667 14.96 18.8667 15.0267 18.92 15.08C18.9733 15.16 19 15.28 19 15.44V15.4C19.0267 15.4267 19.0667 15.44 19.12 15.44C19.2533 15.4933 19.2933 15.5867 19.24 15.72C19.24 15.7733 19.2133 15.8267 19.16 15.88C19.08 15.96 19.0533 16.0267 19.08 16.08C19.16 16.4533 19.24 16.8267 19.32 17.2C19.4 17.5733 19.4667 17.9467 19.52 18.32L19.64 19.28C19.6933 19.4933 19.7333 19.7067 19.76 19.92C19.7867 20.1333 19.8267 20.3467 19.88 20.56C19.88 20.6933 19.9067 20.8667 19.96 21.08C19.96 21.1333 20.0133 21.16 20.12 21.16C20.12 21.1333 20.1333 21.12 20.16 21.12C20.1867 21.12 20.2 21.1333 20.2 21.16C20.2267 21.1867 20.2667 21.2533 20.32 21.36L20.44 21.88C20.4667 21.9333 20.48 22 20.48 22.08C20.48 22.1333 20.4933 22.1867 20.52 22.24C20.5467 22.4 20.4933 22.5333 20.36 22.64C20.28 22.6667 20.24 22.72 20.24 22.8C20.24 22.8267 20.24 22.84 20.24 22.84C20.2667 22.84 20.28 22.8533 20.28 22.88C20.3067 22.88 20.32 22.8667 20.32 22.84H20.36C20.4133 22.8133 20.4667 22.8133 20.52 22.84C20.5733 22.84 20.6 22.8667 20.6 22.92C20.6267 23.0267 20.6533 23.1467 20.68 23.28C20.7067 23.4133 20.7067 23.4933 20.68 23.52C20.68 23.52 20.6667 23.5333 20.64 23.56C20.64 23.56 20.6267 23.56 20.6 23.56C20.4933 23.56 20.44 23.68 20.44 23.92C20.4667 24.1867 20.5467 24.44 20.68 24.68L20.92 25.04C21.1333 25.4133 21.24 25.8267 21.24 26.28C21.24 26.3333 21.2133 26.3867 21.16 26.44C21.08 26.52 21.04 26.6133 21.04 26.72C21.04 26.88 21.0533 27.0133 21.08 27.12C21.08 27.3067 21.04 27.44 20.96 27.52C20.88 27.6267 20.84 27.76 20.84 27.92C20.8133 28.16 20.7333 28.4 20.6 28.64C20.36 29.12 20.24 29.6533 20.24 30.24C20.2133 30.3467 20.2 30.4533 20.2 30.56C20.2 30.6667 20.2 30.7867 20.2 30.92C20.1733 31.0267 20.16 31.2 20.16 31.44V31.96C20.1333 32.0667 20.1067 32.1733 20.08 32.28C20.0533 32.3867 20.0133 32.4933 19.96 32.6C19.88 32.7067 19.7733 32.7867 19.64 32.84C19.6133 32.84 19.5867 32.84 19.56 32.84C19.5333 32.8667 19.4933 32.88 19.44 32.88ZM30.4644 30.4C30.4377 30.4 30.3977 30.3867 30.3444 30.36C30.3177 30.36 30.2777 30.36 30.2244 30.36C30.0377 30.36 29.9044 30.28 29.8244 30.12C29.7177 29.9333 29.611 29.7733 29.5044 29.64C29.3977 29.5067 29.2777 29.3733 29.1444 29.24C29.011 29.1067 28.891 28.96 28.7844 28.8C28.7044 28.64 28.6244 28.48 28.5444 28.32C28.4644 28.1867 28.4244 28.0533 28.4244 27.92V27.52C28.4244 27.3867 28.411 27.2533 28.3844 27.12C28.3844 26.96 28.371 26.8133 28.3444 26.68C28.291 26.4667 28.2377 26.24 28.1844 26C28.1577 25.76 28.1177 25.5333 28.0644 25.32C28.0644 25.2667 28.051 25.2133 28.0244 25.16C28.0244 25.08 28.0244 25.0133 28.0244 24.96C27.9977 24.6667 27.9577 24.3733 27.9044 24.08C27.851 23.76 27.7977 23.4533 27.7444 23.16C27.6644 22.6267 27.571 22.1067 27.4644 21.6C27.3844 21.0667 27.3044 20.5467 27.2244 20.04L26.9844 18.72C26.9577 18.5067 26.8777 18.28 26.7444 18.04C26.5844 17.7467 26.4644 17.4267 26.3844 17.08C26.3577 16.92 26.3177 16.7733 26.2644 16.64C26.211 16.48 26.1577 16.32 26.1044 16.16C26.0244 15.8933 25.9444 15.6267 25.8644 15.36C25.7844 15.0933 25.7177 14.8267 25.6644 14.56C25.6377 14.3467 25.5977 14.1333 25.5444 13.92C25.491 13.7067 25.4377 13.4933 25.3844 13.28L25.1444 12.2C25.1444 12.1467 25.131 12.1067 25.1044 12.08C25.0777 11.7067 25.0244 11.3333 24.9444 10.96C24.8644 10.56 24.7844 10.1733 24.7044 9.8C24.6777 9.58667 24.6377 9.33333 24.5844 9.04C24.5577 8.72 24.5577 8.46667 24.5844 8.28V7.88C24.6377 7.50667 24.7577 7.16 24.9444 6.84C25.1577 6.46666 25.5044 6.17333 25.9844 5.96C26.1177 5.90667 26.251 5.86667 26.3844 5.84C26.5177 5.81333 26.6377 5.78667 26.7444 5.76C27.0377 5.73333 27.3177 5.77333 27.5844 5.88C27.851 5.96 28.1177 6.08 28.3844 6.24C28.4644 6.29333 28.531 6.36 28.5844 6.44C28.6644 6.57333 28.7444 6.70666 28.8244 6.84C28.931 6.97333 28.9977 7.12 29.0244 7.28C29.0777 7.44 29.131 7.6 29.1844 7.76C29.2644 7.92 29.3444 8.06667 29.4244 8.2C29.5577 8.46667 29.651 8.74667 29.7044 9.04C29.7577 9.33333 29.811 9.62667 29.8644 9.92C29.9444 10.32 29.9844 10.7467 29.9844 11.2V11.4C30.0377 11.6667 30.0644 11.9333 30.0644 12.2C30.0644 12.44 30.0644 12.6933 30.0644 12.96C30.091 13.3867 30.131 13.8133 30.1844 14.24C30.2377 14.64 30.291 15.0667 30.3444 15.52L30.5844 17.4V17.48C30.6377 17.7733 30.691 18.08 30.7444 18.4C30.8244 18.6933 30.8777 18.9867 30.9044 19.28C30.9844 19.7333 31.0644 20.2 31.1444 20.68C31.251 21.1333 31.331 21.5867 31.3844 22.04L31.6244 23.72C31.6777 23.9867 31.7177 24.2533 31.7444 24.52C31.7977 24.7867 31.851 25.0533 31.9044 25.32C31.9577 25.5867 31.9977 25.8533 32.0244 26.12C32.0777 26.36 32.131 26.6133 32.1844 26.88C32.211 26.9867 32.2244 27.0933 32.2244 27.2C32.251 27.28 32.2644 27.3733 32.2644 27.48C32.291 27.88 32.2244 28.2667 32.0644 28.64C32.0377 28.7467 31.971 28.8533 31.8644 28.96C31.7577 29.12 31.6644 29.2267 31.5844 29.28C31.371 29.4933 31.211 29.72 31.1044 29.96C31.1044 29.9867 31.0777 30.0267 31.0244 30.08C30.9977 30.1333 30.9577 30.1867 30.9044 30.24C30.7977 30.3467 30.651 30.4 30.4644 30.4ZM41.1553 35.48C41.022 35.5333 40.9153 35.52 40.8353 35.44C40.542 35.3067 40.3553 35.08 40.2753 34.76V34.68C40.2486 34.44 40.222 34.2 40.1953 33.96C40.1686 33.72 40.142 33.4933 40.1153 33.28C40.1153 33.2267 40.102 33.16 40.0753 33.08C40.0753 33.0267 40.0753 32.9733 40.0753 32.92C40.0486 32.84 40.0353 32.76 40.0353 32.68C40.0353 32.6 40.0353 32.52 40.0353 32.44C40.0353 32.2267 40.0086 32.04 39.9553 31.88C39.902 31.72 39.8486 31.56 39.7953 31.4C39.742 31.2933 39.6886 31.2267 39.6353 31.2C39.5286 31.0667 39.4486 30.92 39.3953 30.76C39.342 30.6267 39.2753 30.48 39.1953 30.32V30.28C39.062 29.9067 38.982 29.6667 38.9553 29.56C38.9286 29.4267 38.9153 29.1733 38.9153 28.8V28.28C38.9153 28.0133 38.9953 27.8 39.1553 27.64C39.182 27.5867 39.2086 27.5333 39.2353 27.48C39.2886 27.4267 39.3286 27.3733 39.3553 27.32C39.4086 27.16 39.4086 27.04 39.3553 26.96C39.2486 26.7467 39.1686 26.5333 39.1153 26.32C39.062 26.08 39.0086 25.84 38.9553 25.6V25.16C38.982 25 38.9953 24.8533 38.9953 24.72C39.022 24.56 39.0486 24.4 39.0753 24.24C39.1286 24 39.1286 23.7333 39.0753 23.44C39.022 23.28 38.9953 23.16 38.9953 23.08C38.9686 23 38.942 22.92 38.9153 22.84C38.9153 22.76 38.9153 22.68 38.9153 22.6C38.9153 22.28 38.8753 21.9867 38.7953 21.72C38.742 21.56 38.7153 21.4267 38.7153 21.32C38.7153 20.8933 38.6886 20.48 38.6353 20.08C38.582 19.6533 38.5286 19.2267 38.4753 18.8C38.4753 18.7467 38.462 18.72 38.4353 18.72C38.4353 18.6933 38.4353 18.6667 38.4353 18.64C38.4353 18.4267 38.4086 18.2133 38.3553 18C38.302 17.76 38.2486 17.5467 38.1953 17.36C38.1686 17.3067 38.1553 17.24 38.1553 17.16C38.1553 17.08 38.142 17.0133 38.1153 16.96C38.0886 16.7733 38.062 16.6 38.0353 16.44C38.0353 16.28 38.0086 16.1067 37.9553 15.92V15.76C37.9286 15.4667 37.8753 15.1867 37.7953 14.92C37.742 14.6533 37.6886 14.3867 37.6353 14.12C37.6353 14.0133 37.622 13.9067 37.5953 13.8C37.5953 13.6933 37.582 13.5867 37.5553 13.48L37.4353 13.04C37.4086 12.9333 37.382 12.8267 37.3553 12.72C37.3553 12.5867 37.342 12.4667 37.3153 12.36C37.2886 12.1733 37.2753 12 37.2753 11.84C37.2753 11.6533 37.262 11.4667 37.2353 11.28C37.2086 11.0933 37.182 10.92 37.1553 10.76C37.1553 10.6 37.1286 10.44 37.0753 10.28C37.0486 10.0667 37.022 9.85333 36.9953 9.64C36.9953 9.4 36.9686 9.17333 36.9153 8.96C36.8353 8.53333 36.6753 8.14667 36.4353 7.8C35.9286 7.05333 35.7153 6.21333 35.7953 5.28C35.8486 4.98667 35.9686 4.72 36.1553 4.48C36.182 4.42667 36.2486 4.34666 36.3553 4.24C36.542 4 36.7553 3.82667 36.9953 3.72C37.262 3.58666 37.542 3.50666 37.8353 3.48C38.2886 3.4 38.702 3.28 39.0753 3.12C39.7953 2.90667 40.5153 2.74667 41.2353 2.64C41.7153 2.56 42.1953 2.52 42.6753 2.52H43.0753C43.2886 2.46667 43.502 2.44 43.7153 2.44C43.9553 2.44 44.182 2.44 44.3953 2.44H44.7553C44.9153 2.44 45.0486 2.38667 45.1553 2.28L45.6353 2C45.7153 1.94667 45.7953 1.94667 45.8753 2C45.9553 2.05333 46.0353 2.09333 46.1153 2.12C46.222 2.14667 46.3153 2.18667 46.3953 2.24C46.5286 2.29333 46.6486 2.34667 46.7553 2.4C46.862 2.45333 46.9686 2.50667 47.0753 2.56C47.1286 2.61333 47.1953 2.65333 47.2753 2.68C47.3553 2.70667 47.4353 2.73333 47.5153 2.76L48.2753 2.92C48.4886 2.94666 48.6753 3 48.8353 3.08C49.022 3.13333 49.2086 3.2 49.3953 3.28C49.6086 3.36 49.7953 3.48 49.9553 3.64C50.1153 3.77333 50.2753 3.93333 50.4353 4.12C50.8086 4.46667 51.0486 4.90667 51.1553 5.44C51.182 5.65333 51.2486 5.90667 51.3553 6.2C51.4086 6.38667 51.4353 6.57333 51.4353 6.76C51.4353 6.94667 51.4486 7.14667 51.4753 7.36C51.4753 7.36 51.4753 7.42666 51.4753 7.56C51.4486 7.85333 51.4086 8.16 51.3553 8.48C51.302 8.77333 51.2353 9.06667 51.1553 9.36C51.0753 9.62667 50.982 9.90667 50.8753 10.2C50.7953 10.4933 50.6886 10.7733 50.5553 11.04C50.3953 11.44 50.1686 11.8267 49.8753 12.2C49.6886 12.44 49.502 12.6933 49.3153 12.96C49.1553 13.2 48.9686 13.44 48.7553 13.68C48.6486 13.7867 48.542 13.9067 48.4353 14.04C48.3286 14.1467 48.222 14.2533 48.1153 14.36L47.6353 14.84V14.92C47.6353 14.9733 47.662 15 47.7153 15H48.3153C48.6886 15.0267 49.062 15.08 49.4353 15.16C49.8086 15.2133 50.1686 15.2933 50.5153 15.4C50.5953 15.4267 50.662 15.4533 50.7153 15.48C50.7953 15.5067 50.8753 15.5467 50.9553 15.6L51.4353 15.88C51.5953 15.9867 51.742 16.0933 51.8753 16.2C52.0086 16.3067 52.102 16.4667 52.1553 16.68C52.2086 16.8133 52.2753 16.9467 52.3553 17.08C52.4886 17.32 52.6086 17.5733 52.7153 17.84C52.822 18.08 52.9286 18.3333 53.0353 18.6C53.0886 18.7067 53.1286 18.8133 53.1553 18.92C53.2086 19 53.2486 19.0933 53.2753 19.2C53.4086 19.5733 53.542 19.9467 53.6753 20.32C53.8086 20.6933 53.9153 21.08 53.9953 21.48L54.1153 22.48C54.1686 22.64 54.1686 22.8133 54.1153 23C54.0886 23.16 54.062 23.32 54.0353 23.48C54.0086 23.6133 53.982 23.76 53.9553 23.92C53.8753 24.2667 53.7553 24.6 53.5953 24.92C53.5153 25.08 53.4086 25.2267 53.2753 25.36C52.9286 25.7867 52.5686 26.12 52.1953 26.36C52.0086 26.4667 51.822 26.5867 51.6353 26.72C51.4753 26.8533 51.2886 26.9867 51.0753 27.12C50.6753 27.36 50.222 27.6133 49.7153 27.88C49.582 27.9333 49.4353 28 49.2753 28.08C49.142 28.16 49.0086 28.2267 48.8753 28.28C48.4486 28.4667 48.0353 28.6533 47.6353 28.84C47.2353 29.0267 46.8353 29.2 46.4353 29.36C46.0086 29.52 45.5953 29.68 45.1953 29.84C44.7953 30 44.3686 30.1467 43.9153 30.28C43.8086 30.3067 43.702 30.3333 43.5953 30.36C43.5153 30.3867 43.422 30.4133 43.3153 30.44C42.8353 30.52 42.4486 30.7733 42.1553 31.2C42.0486 31.3067 41.9953 31.44 41.9953 31.6C41.9686 31.7067 41.942 31.8 41.9153 31.88C41.9153 31.9867 41.9153 32.0933 41.9153 32.2C41.8886 32.28 41.8753 32.3867 41.8753 32.52V33.92C41.8753 34.0533 41.8753 34.1867 41.8753 34.32C41.8753 34.48 41.8486 34.6267 41.7953 34.76C41.742 35.0533 41.5286 35.2933 41.1553 35.48ZM42.0753 14.48C42.102 14.5067 42.1153 14.52 42.1153 14.52C42.1153 14.4933 42.1286 14.48 42.1553 14.48C42.182 14.4533 42.1953 14.44 42.1953 14.44C42.222 14.44 42.2353 14.44 42.2353 14.44C42.3686 14.4667 42.502 14.44 42.6353 14.36C42.7686 14.2533 42.902 14.16 43.0353 14.08C43.1953 13.9733 43.3553 13.8667 43.5153 13.76C43.7553 13.6 43.982 13.4267 44.1953 13.24C44.4353 13.0267 44.662 12.8133 44.8753 12.6C45.1953 12.2533 45.502 11.9067 45.7953 11.56C46.0886 11.1867 46.3553 10.8 46.5953 10.4C46.7286 10.16 46.862 9.93333 46.9953 9.72C47.1286 9.48 47.2486 9.22667 47.3553 8.96C47.4886 8.61333 47.582 8.21333 47.6353 7.76C47.6886 7.49333 47.6753 7.25333 47.5953 7.04C47.5153 6.82667 47.3953 6.68 47.2353 6.6C46.7553 6.38666 46.302 6.28 45.8753 6.28C45.6086 6.28 45.3553 6.28 45.1153 6.28C44.8753 6.28 44.6353 6.29333 44.3953 6.32C44.182 6.34667 43.9686 6.37333 43.7553 6.4C43.542 6.42666 43.3286 6.46667 43.1153 6.52C42.9286 6.57333 42.7286 6.64 42.5153 6.72C42.3286 6.77333 42.1286 6.82667 41.9153 6.88C41.622 6.96 41.4353 7.13333 41.3553 7.4C41.302 7.48 41.2753 7.6 41.2753 7.76V8.4C41.2486 8.66667 41.2486 8.93333 41.2753 9.2C41.302 9.46666 41.3286 9.73333 41.3553 10L41.3953 10.04C41.3686 10.2267 41.3686 10.4133 41.3953 10.6C41.4486 10.7867 41.4886 10.9867 41.5153 11.2C41.5153 11.28 41.5553 11.3467 41.6353 11.4C41.742 11.4533 41.7553 11.56 41.6753 11.72C41.6753 11.72 41.662 11.7333 41.6353 11.76C41.6353 11.76 41.6486 11.7733 41.6753 11.8C41.7286 11.8267 41.742 11.88 41.7153 11.96C41.6886 12.0133 41.6753 12.0667 41.6753 12.12C41.6753 12.3333 41.6886 12.48 41.7153 12.56C41.742 12.6133 41.7553 12.68 41.7553 12.76C41.7553 12.8667 41.7686 12.9867 41.7953 13.12C41.822 13.2267 41.8486 13.3333 41.8753 13.44C41.8753 13.4933 41.902 13.5067 41.9553 13.48C41.982 13.4533 42.022 13.44 42.0753 13.44C42.102 13.44 42.1153 13.48 42.1153 13.56V13.68C41.982 13.8667 41.9553 14.0667 42.0353 14.28V14.44C42.062 14.44 42.0753 14.4533 42.0753 14.48ZM42.7953 26.68C42.8753 26.68 42.9553 26.68 43.0353 26.68C43.1153 26.68 43.2086 26.6667 43.3153 26.64C43.7953 26.56 44.302 26.4133 44.8353 26.2L46.3953 25.48C46.822 25.2667 47.2353 25.0667 47.6353 24.88C48.0353 24.6667 48.4486 24.4667 48.8753 24.28C49.3286 24.04 49.742 23.72 50.1153 23.32C50.3553 23.08 50.4753 22.7867 50.4753 22.44V22.24C50.4486 22.1867 50.4353 22.1467 50.4353 22.12C50.4353 22.0667 50.422 22.0133 50.3953 21.96C50.3153 21.5333 50.1953 21.1333 50.0353 20.76C49.902 20.36 49.7553 19.96 49.5953 19.56C49.5686 19.4533 49.5286 19.36 49.4753 19.28C49.422 19.1733 49.3686 19.0667 49.3153 18.96C49.2353 18.8 49.1286 18.7067 48.9953 18.68C48.7553 18.6 48.5286 18.56 48.3153 18.56H47.6753C46.9553 18.5333 46.222 18.5733 45.4753 18.68C44.7286 18.7867 43.9686 18.9467 43.1953 19.16L42.9153 19.28C42.8886 19.3067 42.862 19.32 42.8353 19.32C42.8353 19.32 42.822 19.3333 42.7953 19.36C42.7153 19.44 42.702 19.52 42.7553 19.6L42.8353 19.68C42.9153 19.76 42.9286 19.84 42.8753 19.92C42.822 20 42.7953 20.1067 42.7953 20.24C42.7953 20.3467 42.7953 20.4533 42.7953 20.56C42.7953 20.64 42.8086 20.7333 42.8353 20.84C42.862 20.9467 42.8753 21.0533 42.8753 21.16C42.8753 21.2667 42.8753 21.3733 42.8753 21.48V21.96C42.8753 22.2267 42.9286 22.4267 43.0353 22.56C43.0886 22.6667 43.1153 22.7733 43.1153 22.88C43.142 22.9867 43.1553 23.0933 43.1553 23.2C43.1553 23.3333 43.1153 23.48 43.0353 23.64C42.9553 23.7733 42.942 23.9333 42.9953 24.12C43.022 24.1733 43.062 24.2267 43.1153 24.28C43.1686 24.4667 43.142 24.6133 43.0353 24.72C42.9553 24.8533 42.9286 24.9733 42.9553 25.08C42.9553 25.24 42.942 25.36 42.9153 25.44C42.8886 25.4933 42.8486 25.56 42.7953 25.64C42.7686 25.72 42.7153 25.7867 42.6353 25.84C42.502 25.9467 42.4086 26.1067 42.3553 26.32C42.302 26.4267 42.2753 26.52 42.2753 26.6C42.2753 26.6533 42.3686 26.6667 42.5553 26.64C42.6086 26.64 42.6486 26.6533 42.6753 26.68C42.7286 26.68 42.7686 26.68 42.7953 26.68ZM64.7597 35.48C64.3864 35.64 64.0797 35.52 63.8397 35.12C63.7064 34.9333 63.613 34.68 63.5597 34.36C63.533 34.12 63.493 33.88 63.4397 33.64C63.3864 33.4 63.333 33.1467 63.2797 32.88C63.253 32.7733 63.213 32.6667 63.1597 32.56C63.133 32.4533 63.093 32.3467 63.0397 32.24C62.9597 32.08 62.8797 31.92 62.7997 31.76C62.7197 31.6 62.6264 31.4533 62.5197 31.32C62.413 31.1067 62.3464 30.96 62.3197 30.88L62.1197 30.44C61.9597 30.0667 61.8797 29.68 61.8797 29.28C61.853 29.0933 61.8397 28.9067 61.8397 28.72C61.8664 28.5333 61.893 28.3467 61.9197 28.16C61.9997 27.68 61.9864 27.24 61.8797 26.84L61.5197 25.04C61.493 24.88 61.4664 24.72 61.4397 24.56C61.413 24.3733 61.3864 24.1867 61.3597 24L61.2397 23.44C61.213 23.2 61.1864 22.96 61.1597 22.72C61.133 22.48 61.1064 22.2533 61.0797 22.04C61.053 21.96 61.0397 21.88 61.0397 21.8C61.0397 21.72 61.0397 21.64 61.0397 21.56C61.0397 21.2667 60.9464 21.0133 60.7597 20.8C60.653 20.6667 60.5464 20.5333 60.4397 20.4C60.3597 20.24 60.293 20.0933 60.2397 19.96C60.133 19.8 60.0264 19.6533 59.9197 19.52C59.8397 19.36 59.7597 19.2 59.6797 19.04C59.5997 18.88 59.4664 18.7867 59.2797 18.76C59.1197 18.7333 58.973 18.6667 58.8397 18.56C58.653 18.4 58.4797 18.2267 58.3197 18.04C58.2664 17.9333 58.213 17.8533 58.1597 17.8C58.0797 17.6933 58.053 17.5867 58.0797 17.48C58.133 17.4 58.133 17.32 58.0797 17.24C57.9997 17.1067 57.973 16.9867 57.9997 16.88C58.0264 16.7733 58.053 16.6667 58.0797 16.56C58.0797 16.4533 58.1064 16.36 58.1597 16.28C58.213 16.2 58.2664 16.12 58.3197 16.04C58.4264 15.88 58.5464 15.7467 58.6797 15.64C58.8397 15.5067 58.9997 15.3867 59.1597 15.28C59.2664 15.2267 59.3464 15.1733 59.3997 15.12C59.533 15.0667 59.573 14.9867 59.5197 14.88V14.76C59.4664 14.4667 59.413 14.1867 59.3597 13.92C59.3064 13.6533 59.2397 13.3867 59.1597 13.12C59.133 12.9867 59.093 12.8533 59.0397 12.72C59.013 12.5867 58.973 12.4533 58.9197 12.32C58.893 12.2933 58.8797 12.24 58.8797 12.16C58.8797 12.0267 58.8664 11.8933 58.8397 11.76C58.813 11.6267 58.7864 11.5067 58.7597 11.4C58.6797 10.76 58.5597 10.12 58.3997 9.48C58.373 9.29333 58.3064 9.10667 58.1997 8.92C58.093 8.68 58.0264 8.46667 57.9997 8.28C57.9197 7.98667 57.8397 7.70667 57.7597 7.44C57.6797 7.14667 57.613 6.86666 57.5597 6.6C57.4797 6.33333 57.413 6.06667 57.3597 5.8C57.333 5.53333 57.3064 5.26667 57.2797 5C57.253 4.36 57.4797 3.84 57.9597 3.44L58.0797 3.32C58.293 3.13333 58.5064 3.01333 58.7197 2.96C58.9597 2.88 59.213 2.84 59.4797 2.84C59.7197 2.86667 59.933 2.85333 60.1197 2.8C60.333 2.72 60.533 2.62667 60.7197 2.52C60.773 2.49333 60.853 2.48 60.9597 2.48H61.0797C61.1597 2.48 61.2264 2.49333 61.2797 2.52C61.3597 2.57333 61.453 2.54666 61.5597 2.44C61.5864 2.41333 61.6264 2.42666 61.6797 2.48C61.733 2.56 61.7997 2.6 61.8797 2.6C61.933 2.62667 61.9864 2.64 62.0397 2.64C62.1197 2.64 62.1997 2.66667 62.2797 2.72C62.333 2.74666 62.3864 2.78666 62.4397 2.84C62.5197 2.89333 62.573 2.97333 62.5997 3.08L62.7197 3.2C62.7997 3.22667 62.8664 3.29333 62.9197 3.4C62.9464 3.50667 63.0397 3.56 63.1997 3.56C63.2797 3.56 63.3997 3.53333 63.5597 3.48C63.853 3.42667 64.133 3.37333 64.3997 3.32C64.693 3.26667 64.973 3.22667 65.2397 3.2C65.3197 3.17333 65.413 3.16 65.5197 3.16C66.053 3.13333 66.5864 3.08 67.1197 3C67.653 2.92 68.173 2.82667 68.6797 2.72L68.8797 2.64C69.413 2.56 69.9197 2.4 70.3997 2.16C70.5864 2.05333 70.7864 1.96 70.9997 1.88C71.213 1.8 71.413 1.72 71.5997 1.64L72.9597 1.16C73.1464 1.10667 73.2664 1.05333 73.3197 0.999999C73.4797 0.866666 73.6264 0.773332 73.7597 0.719998C74.1064 0.506666 74.493 0.373333 74.9197 0.319998C75.1597 0.319998 75.3997 0.359999 75.6397 0.439999C76.013 0.599999 76.3597 0.853332 76.6797 1.2C76.7597 1.33333 76.7864 1.48 76.7597 1.64C76.6797 1.8 76.6797 1.97333 76.7597 2.16C76.7864 2.32 76.7864 2.45333 76.7597 2.56C76.733 2.66666 76.7197 2.77333 76.7197 2.88C76.7197 2.98667 76.7064 3.09333 76.6797 3.2C76.6797 3.33333 76.6397 3.44 76.5597 3.52C76.373 3.78667 76.1864 3.98667 75.9997 4.12C75.973 4.14667 75.9464 4.17333 75.9197 4.2C75.9197 4.22666 75.893 4.26666 75.8397 4.32C75.813 4.34667 75.7864 4.37333 75.7597 4.4C75.7597 4.42666 75.733 4.46666 75.6797 4.52C75.5464 4.62667 75.4264 4.74667 75.3197 4.88C75.2397 5.01333 75.1464 5.14667 75.0397 5.28C74.933 5.46667 74.7997 5.65333 74.6397 5.84C74.5064 6 74.3464 6.14666 74.1597 6.28L73.8397 6.64C73.6797 6.85333 73.5864 7.05333 73.5597 7.24C73.5064 7.48 73.453 7.72 73.3997 7.96C73.373 8.17333 73.3597 8.4 73.3597 8.64L73.2397 9.48C73.2397 9.58667 73.213 9.69333 73.1597 9.8C73.053 10.0667 72.8397 10.2 72.5197 10.2C72.493 10.2267 72.453 10.24 72.3997 10.24C72.373 10.2133 72.3464 10.2 72.3197 10.2C72.0797 10.0667 71.9197 9.89333 71.8397 9.68C71.733 9.33333 71.653 8.94667 71.5997 8.52C71.5997 8.38667 71.5864 8.25333 71.5597 8.12C71.5597 7.96 71.5464 7.81333 71.5197 7.68L71.3997 7.4C71.3464 7.21333 71.2397 7.17333 71.0797 7.28C71.053 7.28 71.013 7.29333 70.9597 7.32C70.933 7.34667 70.893 7.37333 70.8397 7.4C70.733 7.45333 70.6264 7.52 70.5197 7.6C70.4397 7.65333 70.3597 7.72 70.2797 7.8C70.0397 7.93333 69.7464 8.06667 69.3997 8.2C68.9197 8.36 68.4797 8.6 68.0797 8.92C68.0264 8.94667 67.9597 8.98667 67.8797 9.04C67.8264 9.09333 67.7597 9.14667 67.6797 9.2C67.5997 9.25333 67.5197 9.30667 67.4397 9.36C67.3597 9.41333 67.2664 9.46667 67.1597 9.52L66.8797 9.68C66.7997 9.73333 66.7064 9.84 66.5997 10C66.573 10.1333 66.533 10.28 66.4797 10.44C66.453 10.5733 66.4397 10.72 66.4397 10.88C66.4397 11.12 66.4264 11.36 66.3997 11.6C66.3997 11.84 66.413 12.08 66.4397 12.32C66.4397 12.4533 66.4397 12.6 66.4397 12.76C66.4397 12.8933 66.413 13.0267 66.3597 13.16C66.3064 13.3467 66.373 13.4133 66.5597 13.36C66.693 13.36 66.7997 13.3467 66.8797 13.32C67.173 13.2667 67.4664 13.2267 67.7597 13.2C68.0797 13.1467 68.373 13.0933 68.6397 13.04L69.5197 12.92C69.653 12.8933 69.7597 12.8667 69.8397 12.84C69.9464 12.8133 70.053 12.7733 70.1597 12.72C70.3197 12.6133 70.4797 12.5467 70.6397 12.52C70.7997 12.4933 70.9597 12.4667 71.1197 12.44C71.4664 12.36 71.813 12.4267 72.1597 12.64L72.6797 13C72.7864 13.1067 72.8397 13.2133 72.8397 13.32C72.893 13.5067 72.9597 13.6 73.0397 13.6C73.1197 13.5733 73.173 13.5733 73.1997 13.6C73.2797 13.7067 73.3464 13.8267 73.3997 13.96C73.4797 14.0667 73.533 14.1867 73.5597 14.32C73.5597 14.4267 73.5197 14.4933 73.4397 14.52C73.333 14.52 73.253 14.56 73.1997 14.64C73.1464 14.72 73.093 14.8 73.0397 14.88C73.013 14.9067 72.9997 14.9333 72.9997 14.96C73.0264 14.9867 73.0397 15.0133 73.0397 15.04C73.093 15.12 73.093 15.2133 73.0397 15.32C73.013 15.3733 72.9864 15.44 72.9597 15.52C72.933 15.5733 72.9064 15.6267 72.8797 15.68C72.773 15.92 72.613 16.12 72.3997 16.28C72.293 16.3867 72.1997 16.4667 72.1197 16.52C71.9064 16.6533 71.7064 16.8933 71.5197 17.24C71.493 17.2933 71.4664 17.36 71.4397 17.44C71.413 17.4933 71.373 17.56 71.3197 17.64C71.2397 17.7467 71.1197 17.8267 70.9597 17.88C70.693 17.9333 70.4797 17.92 70.3197 17.84L70.0797 17.72C69.9197 17.6667 69.7864 17.68 69.6797 17.76C69.653 17.7867 69.5864 17.8267 69.4797 17.88C69.2397 17.9867 68.973 18 68.6797 17.92C68.5464 17.8667 68.3997 17.8 68.2397 17.72C68.1064 17.64 67.973 17.5733 67.8397 17.52C67.7864 17.4933 67.733 17.4533 67.6797 17.4C67.573 17.32 67.453 17.3067 67.3197 17.36C67.1597 17.3867 66.9997 17.4267 66.8397 17.48C66.6797 17.5067 66.5197 17.5467 66.3597 17.6C66.1197 17.6267 65.853 17.7067 65.5597 17.84C65.4797 17.84 65.3997 17.88 65.3197 17.96C65.1864 18.0667 65.133 18.1867 65.1597 18.32V18.4C65.2397 18.64 65.293 18.88 65.3197 19.12C65.373 19.36 65.413 19.6 65.4397 19.84L65.6797 21.52C65.6797 21.5467 65.6797 21.5733 65.6797 21.6C65.7064 21.6 65.7197 21.6 65.7197 21.6C65.7197 21.8933 65.733 22.1867 65.7597 22.48C65.7864 22.7733 65.7997 23.0667 65.7997 23.36C65.7997 23.7067 65.7997 24.04 65.7997 24.36C65.8264 24.68 65.8397 25 65.8397 25.32V25.8C65.893 25.9067 65.973 25.96 66.0797 25.96L66.5997 25.84C66.733 25.8133 66.853 25.7867 66.9597 25.76C67.093 25.7333 67.213 25.7067 67.3197 25.68L68.0397 25.56C68.1997 25.56 68.3197 25.5467 68.3997 25.52C68.7464 25.4667 69.093 25.4 69.4397 25.32C69.7864 25.24 70.133 25.1733 70.4797 25.12C70.6397 25.0933 70.7997 25.0667 70.9597 25.04C71.1464 25.0133 71.333 24.9867 71.5197 24.96C71.813 24.9333 72.093 24.9067 72.3597 24.88C72.653 24.8267 72.933 24.7867 73.1997 24.76C73.333 24.7333 73.453 24.72 73.5597 24.72C73.693 24.6933 73.813 24.68 73.9197 24.68C74.0797 24.6267 74.1997 24.5733 74.2797 24.52C74.333 24.4667 74.3864 24.4267 74.4397 24.4C74.5197 24.3733 74.573 24.3467 74.5997 24.32C74.8397 24.1067 75.1064 24.0267 75.3997 24.08C75.4797 24.08 75.5464 24.0667 75.5997 24.04C75.653 24.04 75.7197 24.04 75.7997 24.04C75.8797 24.04 75.9464 24.0533 75.9997 24.08C76.133 24.1333 76.253 24.1867 76.3597 24.24C76.4664 24.2667 76.573 24.32 76.6797 24.4C76.7064 24.4267 76.733 24.44 76.7597 24.44C76.973 24.5733 77.1864 24.5867 77.3997 24.48C77.4797 24.4267 77.573 24.3867 77.6797 24.36C77.7864 24.3067 77.893 24.2667 77.9997 24.24C78.2664 24.16 78.533 24.16 78.7997 24.24C78.8797 24.2667 78.9597 24.2933 79.0397 24.32C79.1464 24.3467 79.2264 24.3867 79.2797 24.44C79.4397 24.52 79.5864 24.6533 79.7197 24.84C79.9597 25.1867 80.1197 25.5467 80.1997 25.92C80.253 26 80.253 26.08 80.1997 26.16C80.173 26.24 80.1464 26.32 80.1197 26.4C80.093 26.4533 80.0664 26.52 80.0397 26.6C80.013 26.6533 79.9864 26.72 79.9597 26.8C79.933 26.8533 79.9064 26.9067 79.8797 26.96C79.8797 27.0667 79.8264 27.1467 79.7197 27.2C79.613 27.2267 79.533 27.3067 79.4797 27.44C79.4264 27.5467 79.3597 27.5733 79.2797 27.52C79.173 27.52 79.1064 27.5333 79.0797 27.56C78.9464 27.6667 78.7997 27.7467 78.6397 27.8C78.4797 27.8533 78.3197 27.9067 78.1597 27.96C77.8664 28.0133 77.573 28.0933 77.2797 28.2C76.9864 28.28 76.693 28.36 76.3997 28.44C76.2397 28.4933 76.1197 28.52 76.0397 28.52C75.8797 28.5467 75.7197 28.5867 75.5597 28.64C75.4264 28.6667 75.293 28.7067 75.1597 28.76C75.133 28.7867 75.093 28.8 75.0397 28.8C75.013 28.8 74.973 28.8133 74.9197 28.84C74.733 28.8667 74.533 28.9067 74.3197 28.96C74.133 29.0133 73.9464 29.08 73.7597 29.16C73.6797 29.2133 73.5597 29.24 73.3997 29.24C73.1864 29.24 72.9597 29.28 72.7197 29.36C72.453 29.4133 72.1864 29.4667 71.9197 29.52C71.653 29.5467 71.373 29.5867 71.0797 29.64L70.2397 29.76C69.893 29.84 69.5864 29.9333 69.3197 30.04C69.2664 30.0667 69.1997 30.0933 69.1197 30.12C69.0397 30.1467 68.973 30.1733 68.9197 30.2C68.3597 30.3067 67.8397 30.5067 67.3597 30.8L67.0397 30.92C66.8264 30.9467 66.613 31.0133 66.3997 31.12C66.213 31.2267 66.013 31.3333 65.7997 31.44C65.6397 31.5467 65.533 31.6267 65.4797 31.68C65.4264 31.7333 65.373 31.8133 65.3197 31.92C65.1864 32.24 65.1197 32.52 65.1197 32.76C65.1464 32.9467 65.1597 33.12 65.1597 33.28C65.1597 33.4667 65.173 33.6667 65.1997 33.88C65.253 34.2 65.2397 34.4933 65.1597 34.76C65.1597 34.8667 65.133 35 65.0797 35.16C64.973 35.32 64.8664 35.4267 64.7597 35.48ZM64.7597 13.72C64.8664 13.6667 64.9197 13.5867 64.9197 13.48C64.893 13.4267 64.8797 13.3733 64.8797 13.32C64.8797 13.24 64.8664 13.1733 64.8397 13.12C64.7064 12.7733 64.6397 12.4667 64.6397 12.2C64.6397 12.1467 64.6264 12.1067 64.5997 12.08C64.5997 12.0533 64.5997 12.0267 64.5997 12C64.5464 11.9467 64.5197 11.92 64.5197 11.92V12C64.493 12.1333 64.4664 12.28 64.4397 12.44C64.4397 12.6 64.4397 12.76 64.4397 12.92V13.56C64.493 13.64 64.5464 13.68 64.5997 13.68C64.6264 13.7067 64.6797 13.72 64.7597 13.72ZM102.222 45.08L101.702 44.6C101.649 44.5467 101.622 44.4933 101.622 44.44L101.502 44.04C101.502 43.8267 101.462 43.6 101.382 43.36C101.355 43.3067 101.342 43.24 101.342 43.16C101.342 43.08 101.329 43.0133 101.302 42.96C101.302 42.7467 101.289 42.5333 101.262 42.32C101.235 42.1333 101.195 41.9467 101.142 41.76V41.6C101.115 41.2267 101.075 40.84 101.022 40.44C100.969 40.0667 100.942 39.6933 100.942 39.32V38.76C100.942 38.68 100.942 38.6 100.942 38.52C100.969 38.44 100.969 38.3467 100.942 38.24C100.942 38.08 100.929 37.8933 100.902 37.68C100.902 37.4933 100.902 37.3067 100.902 37.12C100.902 36.9867 100.902 36.84 100.902 36.68C100.902 36.52 100.889 36.3733 100.862 36.24C100.835 35.9733 100.809 35.7067 100.782 35.44C100.755 35.1733 100.729 34.9067 100.702 34.64C100.675 34.3733 100.649 34.1067 100.622 33.84C100.622 33.5733 100.622 33.3067 100.622 33.04C100.569 32.8267 100.529 32.6267 100.502 32.44C100.475 32.2533 100.435 32.0667 100.382 31.88C100.329 31.64 100.235 31.4533 100.102 31.32C99.9952 31.1867 99.8885 31.0533 99.7819 30.92C99.7019 30.8133 99.6352 30.6933 99.5819 30.56C99.5285 30.4533 99.4752 30.3733 99.4219 30.32C99.2885 30.1867 99.1552 30.04 99.0219 29.88C98.9152 29.6933 98.7952 29.52 98.6619 29.36C98.5285 29.12 98.3819 28.9067 98.2219 28.72C98.1419 28.5867 98.0485 28.4667 97.9419 28.36C97.8619 28.2267 97.7952 28.1067 97.7419 28C97.6885 27.8667 97.6085 27.76 97.5019 27.68C97.4219 27.5733 97.3419 27.48 97.2619 27.4L95.7419 25.72C95.5019 25.4533 95.2752 25.1867 95.0619 24.92C95.0085 24.7867 94.9419 24.68 94.8619 24.6C94.7819 24.52 94.6885 24.4267 94.5819 24.32L93.6219 23.32C93.5419 23.2133 93.4485 23.1333 93.3419 23.08C93.2619 23 93.1685 22.9333 93.0619 22.88C92.8485 22.7733 92.6352 22.6133 92.4219 22.4C92.4219 22.3733 92.3952 22.3333 92.3419 22.28C92.1819 22.1733 92.0219 22.0533 91.8619 21.92C91.7285 21.7867 91.5952 21.6533 91.4619 21.52C91.3019 21.36 91.1819 21.2533 91.1019 21.2C90.8885 20.9867 90.6619 20.7867 90.4219 20.6C90.2085 20.4133 89.9952 20.2133 89.7819 20C89.6752 19.8933 89.5685 19.8 89.4619 19.72C89.3819 19.6133 89.3019 19.5067 89.2219 19.4L88.9819 19.16C88.9819 19.16 88.9685 19.16 88.9419 19.16C88.9419 19.16 88.9419 19.1733 88.9419 19.2L88.9019 19.24V19.28C89.0352 19.8133 89.1285 20.4 89.1819 21.04C89.1819 21.12 89.1952 21.1733 89.2219 21.2C89.3019 21.4667 89.3285 21.7333 89.3019 22C89.3019 22.24 89.2752 22.4933 89.2219 22.76C89.1685 22.9733 89.2085 23.1467 89.3419 23.28C89.3952 23.3333 89.3952 23.3867 89.3419 23.44C89.3419 23.5733 89.3419 23.64 89.3419 23.64C89.3685 23.7733 89.3819 23.9067 89.3819 24.04C89.3819 24.1733 89.3819 24.3067 89.3819 24.44C89.3819 24.6267 89.3952 24.76 89.4219 24.84C89.5019 25.24 89.5285 25.6133 89.5019 25.96C89.4752 26.0667 89.4619 26.1867 89.4619 26.32C89.4619 26.4533 89.4485 26.5867 89.4219 26.72C89.3952 26.8 89.3819 26.88 89.3819 26.96C89.4085 27.0133 89.4219 27.0667 89.4219 27.12C89.4485 27.2267 89.4619 27.3333 89.4619 27.44C89.4885 27.52 89.4885 27.6133 89.4619 27.72C89.4619 27.96 89.4085 28.1733 89.3019 28.36C89.1419 28.6267 88.9285 28.7867 88.6619 28.84C88.5819 28.84 88.5285 28.8533 88.5019 28.88C88.3685 28.9333 88.3019 29 88.3019 29.08C88.3019 29.2133 88.2885 29.3467 88.2619 29.48C88.2619 29.5867 88.2619 29.7067 88.2619 29.84V30.88C88.2885 31.12 88.2352 31.36 88.1019 31.6C88.0219 31.7333 87.9152 31.8267 87.7819 31.88C87.6485 31.9333 87.5152 31.9467 87.3819 31.92C87.0085 31.7867 86.7685 31.5467 86.6619 31.2L86.5419 30.72C86.5152 30.5333 86.4619 30.3467 86.3819 30.16C86.3285 30 86.2352 29.84 86.1019 29.68C86.0485 29.5733 85.9952 29.4667 85.9419 29.36C85.8885 29.2533 85.8352 29.1467 85.7819 29.04C85.6752 28.8 85.5819 28.56 85.5019 28.32C85.4485 28.0533 85.3952 27.7867 85.3419 27.52C85.3152 27.36 85.3019 27.2133 85.3019 27.08C85.3019 26.92 85.3019 26.76 85.3019 26.6C85.3019 26.4933 85.2885 26.3867 85.2619 26.28C85.2619 26.1733 85.2619 26.0667 85.2619 25.96C85.2352 25.7733 85.2219 25.5867 85.2219 25.4C85.2219 25.2133 85.2219 25.0267 85.2219 24.84C85.2219 24.7067 85.2219 24.56 85.2219 24.4C85.2219 24.24 85.1952 24.0933 85.1419 23.96V23.8C85.1419 23.5333 85.1285 23.28 85.1019 23.04C85.0752 22.8 85.0485 22.5467 85.0219 22.28C85.0219 22.2267 85.0085 22.1867 84.9819 22.16C84.9552 22 84.9285 21.84 84.9019 21.68C84.8752 21.4933 84.8352 21.32 84.7819 21.16C84.7285 20.9467 84.6752 20.7333 84.6219 20.52C84.5952 20.3067 84.5552 20.0933 84.5019 19.88C84.4752 19.6933 84.4485 19.52 84.4219 19.36C84.3952 19.1733 84.3552 18.9867 84.3019 18.8C84.2752 18.6933 84.2485 18.6 84.2219 18.52C84.2219 18.4133 84.2219 18.3067 84.2219 18.2C84.1952 18.04 84.1685 17.8933 84.1419 17.76C84.1419 17.6 84.1419 17.4533 84.1419 17.32C84.1152 17.1067 84.0885 16.8933 84.0619 16.68C84.0352 16.44 83.9952 16.2133 83.9419 16C83.9152 15.8667 83.8885 15.7333 83.8619 15.6C83.8619 15.44 83.8619 15.2933 83.8619 15.16C83.8352 14.8133 83.7952 14.48 83.7419 14.16C83.7152 13.84 83.7019 13.5067 83.7019 13.16C83.7019 13.0267 83.6885 12.9067 83.6619 12.8C83.6619 12.6667 83.6619 12.5467 83.6619 12.44C83.6352 12.2 83.5952 11.96 83.5419 11.72C83.5152 11.4533 83.4885 11.2 83.4619 10.96L83.2219 9.36C83.1952 9.06667 83.1685 8.76 83.1419 8.44C83.1152 8.12 83.1019 7.81333 83.1019 7.52C83.1019 7.33333 83.1019 7.14667 83.1019 6.96C83.1019 6.77333 83.0885 6.58667 83.0619 6.4C83.0085 6.05333 83.0219 5.72 83.1019 5.4C83.1819 5.02667 83.3419 4.70667 83.5819 4.44C83.6619 4.33333 83.7419 4.24 83.8219 4.16C83.9019 4.08 83.9819 4 84.0619 3.92C84.2219 3.78667 84.3952 3.69333 84.5819 3.64C84.7952 3.58667 84.9952 3.54667 85.1819 3.52C85.3152 3.52 85.4485 3.53333 85.5819 3.56C85.7152 3.56 85.8352 3.57333 85.9419 3.6C86.1019 3.65333 86.2619 3.69333 86.4219 3.72C86.6085 3.72 86.7952 3.72 86.9819 3.72C87.3285 3.72 87.6619 3.72 87.9819 3.72C88.3285 3.72 88.6752 3.73333 89.0219 3.76C89.6352 3.76 90.2619 3.8 90.9019 3.88C91.2752 3.93333 91.6219 4.01333 91.9419 4.12C92.2885 4.2 92.6352 4.30666 92.9819 4.44C93.5685 4.65333 94.1152 4.89333 94.6219 5.16C94.8619 5.26666 95.0885 5.4 95.3019 5.56C95.5152 5.69333 95.7152 5.85333 95.9019 6.04C95.9819 6.12 96.0619 6.2 96.1419 6.28C96.2219 6.36 96.2885 6.45333 96.3419 6.56C96.4219 6.64 96.5019 6.72 96.5819 6.8C96.6619 6.88 96.7152 6.98667 96.7419 7.12C96.7952 7.22667 96.8219 7.28 96.8219 7.28C97.0085 7.54667 97.1419 7.84 97.2219 8.16C97.3285 8.48 97.4085 8.8 97.4619 9.12C97.5152 9.38667 97.5152 9.65333 97.4619 9.92C97.4352 10.16 97.4085 10.4133 97.3819 10.68C97.3819 10.8667 97.3685 11.04 97.3419 11.2C97.3152 11.36 97.2752 11.52 97.2219 11.68C97.1952 11.9467 97.1152 12.2 96.9819 12.44C96.8752 12.68 96.7552 12.9067 96.6219 13.12C96.6219 13.1467 96.6085 13.1733 96.5819 13.2C96.5552 13.2 96.5285 13.2267 96.5019 13.28C96.3152 13.4933 96.1019 13.7067 95.8619 13.92C95.6485 14.1333 95.3952 14.32 95.1019 14.48C94.9952 14.5333 94.8885 14.6 94.7819 14.68C94.7019 14.76 94.5952 14.8267 94.4619 14.88C94.4085 14.9333 94.4085 14.9867 94.4619 15.04C94.5685 15.1467 94.6485 15.2133 94.7019 15.24C94.8885 15.4 95.0752 15.56 95.2619 15.72C95.4752 15.88 95.6752 16.04 95.8619 16.2C96.0752 16.3333 96.2619 16.4933 96.4219 16.68C96.5819 16.84 96.7552 17 96.9419 17.16C97.1285 17.3467 97.3152 17.5333 97.5019 17.72C97.6885 17.9067 97.8752 18.0933 98.0619 18.28C98.1152 18.3067 98.1685 18.3467 98.2219 18.4C98.2752 18.4533 98.3285 18.5067 98.3819 18.56C98.5152 18.6667 98.6352 18.7733 98.7419 18.88C98.8485 18.9867 98.9552 19.1067 99.0619 19.24C99.1152 19.3467 99.1819 19.44 99.2619 19.52C99.3419 19.5733 99.4219 19.64 99.5019 19.72C99.6085 19.8 99.7019 19.88 99.7819 19.96C99.8619 20.04 99.9552 20.1333 100.062 20.24C100.195 20.4 100.342 20.5733 100.502 20.76C100.662 20.92 100.822 21.08 100.982 21.24L101.222 21.52C101.275 21.5733 101.329 21.6267 101.382 21.68C101.435 21.7333 101.475 21.7867 101.502 21.84C101.742 22.1067 101.982 22.3733 102.222 22.64C102.489 22.9067 102.755 23.1867 103.022 23.48L103.262 23.72C103.422 23.8267 103.569 23.9733 103.702 24.16C103.862 24.32 104.009 24.4667 104.142 24.6C104.249 24.68 104.329 24.8 104.382 24.96C104.409 25.04 104.435 25.12 104.462 25.2C104.489 25.2533 104.515 25.32 104.542 25.4C104.622 25.6133 104.649 25.8133 104.622 26C104.595 26.0533 104.582 26.1467 104.582 26.28C104.582 26.4933 104.529 26.6933 104.422 26.88C104.342 27.0667 104.235 27.24 104.102 27.4L103.742 27.72C103.422 28.04 103.222 28.4533 103.142 28.96C103.115 29.2267 103.089 29.4933 103.062 29.76C103.062 30.0267 103.062 30.3067 103.062 30.6C103.062 30.8933 103.062 31.1867 103.062 31.48C103.062 31.7733 103.075 32.0667 103.102 32.36V32.88C103.129 32.96 103.142 33.1067 103.142 33.32V38.8C103.142 38.9867 103.129 39.1733 103.102 39.36C103.102 39.5733 103.102 39.7867 103.102 40C103.075 40.1067 103.062 40.2133 103.062 40.32C103.062 40.4267 103.062 40.5333 103.062 40.64V41.44C103.062 41.5733 103.075 41.68 103.102 41.76C103.155 42.1867 103.169 42.6133 103.142 43.04C103.142 43.4667 103.155 43.9067 103.182 44.36C103.182 44.6 103.075 44.8267 102.862 45.04C102.649 45.2533 102.435 45.2667 102.222 45.08ZM88.2619 13.16C88.2885 13.1333 88.3152 13.12 88.3419 13.12C88.3685 13.12 88.3952 13.1067 88.4219 13.08C88.8485 12.7867 89.2752 12.6533 89.7019 12.68C89.8619 12.68 89.9819 12.6933 90.0619 12.72C90.2752 12.7733 90.4619 12.7333 90.6219 12.6C90.8619 12.4667 91.1019 12.36 91.3419 12.28C91.5819 12.1733 91.8085 12.0533 92.0219 11.92C92.0485 11.92 92.0619 11.92 92.0619 11.92C92.0619 11.8933 92.0752 11.88 92.1019 11.88C92.4485 11.7733 92.7685 11.5867 93.0619 11.32C93.3285 11.1333 93.4752 11.0133 93.5019 10.96C93.5552 10.88 93.6085 10.6667 93.6619 10.32V10.16C93.6619 10 93.6485 9.85333 93.6219 9.72C93.5952 9.58667 93.5819 9.46667 93.5819 9.36C93.5019 9.06667 93.3419 8.84 93.1019 8.68C92.8619 8.52 92.6085 8.4 92.3419 8.32C92.0485 8.18666 91.7419 8.09333 91.4219 8.04C91.1019 7.96 90.7952 7.89333 90.5019 7.84C90.4752 7.84 90.4485 7.84 90.4219 7.84C90.4219 7.81333 90.4085 7.8 90.3819 7.8C90.1152 7.74667 89.8752 7.8 89.6619 7.96C89.6619 7.96 89.6485 7.96 89.6219 7.96C89.6219 7.96 89.6085 7.97333 89.5819 8C89.2885 8.16 89.0219 8.2 88.7819 8.12H88.5819C88.1819 8.12 87.9019 8.29333 87.7419 8.64C87.6885 8.8 87.6619 8.92 87.6619 9C87.6619 9.13333 87.6619 9.28 87.6619 9.44C87.6619 9.6 87.6752 9.74667 87.7019 9.88C87.7552 10.04 87.7819 10.16 87.7819 10.24C87.7819 10.4267 87.7952 10.6 87.8219 10.76C87.8485 10.92 87.8752 11.08 87.9019 11.24C87.9285 11.2667 87.9419 11.32 87.9419 11.4C87.9152 11.5067 87.9019 11.6 87.9019 11.68C87.9285 11.76 87.9419 11.8533 87.9419 11.96C87.9685 12.0667 87.9819 12.16 87.9819 12.24C88.0085 12.32 88.0085 12.4 87.9819 12.48C87.9819 12.6933 88.0219 12.9067 88.1019 13.12C88.1019 13.1467 88.1152 13.1733 88.1419 13.2C88.1952 13.2 88.2352 13.1867 88.2619 13.16ZM132.093 42.32C131.8 42.3733 131.613 42.2933 131.533 42.08C131.507 42.0267 131.48 41.96 131.453 41.88C131.427 41.8 131.387 41.7333 131.333 41.68C131.307 41.5467 131.28 41.4133 131.253 41.28C131.227 41.1467 131.2 41.0133 131.173 40.88C131.147 40.7733 131.12 40.6667 131.093 40.56C131.093 40.4533 131.093 40.3467 131.093 40.24C131.067 40 131.04 39.76 131.013 39.52C130.987 39.3067 130.96 39.08 130.933 38.84C130.933 38.7867 130.92 38.7333 130.893 38.68C130.893 38.6267 130.893 38.5733 130.893 38.52C130.893 38.1733 130.88 37.8267 130.853 37.48C130.853 37.1333 130.84 36.7867 130.813 36.44C130.787 36.36 130.773 36.2667 130.773 36.16C130.773 36.08 130.773 36 130.773 35.92V35.64C130.747 35.2667 130.72 34.8933 130.693 34.52C130.693 34.1467 130.693 33.7733 130.693 33.4C130.693 33.1067 130.667 32.8 130.613 32.48C130.587 32.1867 130.547 31.9067 130.493 31.64C130.413 31.32 130.293 31.04 130.133 30.8C130 30.56 129.88 30.3067 129.773 30.04C129.667 29.8 129.56 29.5467 129.453 29.28C129.427 29.1733 129.373 29.08 129.293 29C129.24 28.92 129.187 28.84 129.133 28.76C128.787 28.3333 128.44 27.9067 128.093 27.48C127.747 27.0533 127.4 26.6133 127.053 26.16L125.973 24.76L124.933 23.44C124.72 23.1467 124.493 22.8667 124.253 22.6C124.04 22.3067 123.827 22.0133 123.613 21.72C123.293 21.2667 122.96 20.8267 122.613 20.4C122.267 19.9467 121.907 19.5067 121.533 19.08C120.68 17.96 119.827 16.9067 118.973 15.92C118.867 15.76 118.76 15.6133 118.653 15.48C118.547 15.32 118.44 15.16 118.333 15C118.227 14.8667 118.12 14.7333 118.013 14.6C117.907 14.44 117.787 14.2933 117.653 14.16C117.573 14.0533 117.493 13.96 117.413 13.88C117.333 13.8 117.267 13.7067 117.213 13.6L115.533 11.68C115.453 11.5733 115.373 11.48 115.293 11.4C115.213 11.32 115.133 11.24 115.053 11.16C114.787 10.8667 114.507 10.5733 114.213 10.28C113.947 9.96 113.667 9.66667 113.373 9.4C113.267 9.26666 113.16 9.14666 113.053 9.04C112.947 8.93333 112.813 8.84 112.653 8.76C112.653 8.76 112.64 8.76 112.613 8.76C112.587 8.76 112.56 8.77333 112.533 8.8V8.92C112.507 8.97333 112.493 9.05333 112.493 9.16C112.493 9.37333 112.493 9.58667 112.493 9.8C112.493 9.98667 112.48 10.1867 112.453 10.4C112.427 10.5067 112.413 10.6133 112.413 10.72C112.44 10.8 112.44 10.88 112.413 10.96V12.84C112.413 12.92 112.413 13.0133 112.413 13.12C112.413 13.2 112.4 13.2933 112.373 13.4C112.347 13.56 112.333 13.72 112.333 13.88C112.333 14.04 112.333 14.2133 112.333 14.4V15.44C112.333 15.68 112.32 15.92 112.293 16.16C112.293 16.4 112.28 16.64 112.253 16.88C112.227 17.2 112.213 17.52 112.213 17.84C112.213 18.16 112.213 18.48 112.213 18.8C112.213 19.04 112.213 19.28 112.213 19.52C112.213 19.7333 112.187 19.9467 112.133 20.16V20.56C112.133 20.7733 112.133 21 112.133 21.24C112.133 21.48 112.12 21.7067 112.093 21.92C112.093 22.0533 112.093 22.2 112.093 22.36C112.093 22.4933 112.08 22.6267 112.053 22.76C112.027 22.9467 112.027 23.1467 112.053 23.36C112.053 23.6 112.053 23.84 112.053 24.08C112.08 24.32 112.107 24.5467 112.133 24.76L112.253 25.56C112.307 25.9067 112.373 26.2533 112.453 26.6C112.533 26.92 112.613 27.2533 112.693 27.6C112.72 27.68 112.747 27.7733 112.773 27.88C112.8 27.96 112.827 28.04 112.853 28.12C112.933 28.3067 112.96 28.4933 112.933 28.68C112.933 28.84 112.92 29.0133 112.893 29.2C112.867 29.28 112.8 29.4 112.693 29.56C112.64 29.6667 112.573 29.7733 112.493 29.88C112.44 29.96 112.373 30.04 112.293 30.12C112.187 30.28 112.12 30.4 112.093 30.48C112.093 30.56 112.067 30.6533 112.013 30.76V30.92C111.907 31.3467 111.613 31.56 111.133 31.56C110.973 31.5867 110.813 31.4933 110.653 31.28C110.653 31.2533 110.64 31.2267 110.613 31.2C110.613 31.1733 110.613 31.1467 110.613 31.12C110.587 30.9067 110.507 30.72 110.373 30.56C110.267 30.4267 110.16 30.2933 110.053 30.16C110 30.08 109.933 30.0133 109.853 29.96C109.8 29.88 109.747 29.8133 109.693 29.76C109.587 29.6 109.52 29.4667 109.493 29.36L109.333 28.96C109.227 28.6667 109.133 28.3867 109.053 28.12C108.973 27.8533 108.907 27.5867 108.853 27.32C108.853 27.2667 108.84 27.2267 108.813 27.2C108.733 26.9067 108.667 26.6 108.613 26.28C108.587 25.96 108.547 25.64 108.493 25.32C108.493 25.16 108.48 25.0267 108.453 24.92C108.427 24.5467 108.413 24.1867 108.413 23.84C108.44 23.4667 108.453 23.1067 108.453 22.76V21.32C108.453 21.1067 108.453 20.9067 108.453 20.72C108.48 20.5067 108.507 20.3067 108.533 20.12C108.56 19.9867 108.573 19.8667 108.573 19.76C108.573 19.6267 108.573 19.5067 108.573 19.4C108.573 19.2667 108.573 19.1333 108.573 19C108.573 18.8667 108.587 18.7333 108.613 18.6C108.64 18.3867 108.653 18.1733 108.653 17.96C108.653 17.7467 108.653 17.5467 108.653 17.36C108.68 17.1733 108.68 17 108.653 16.84C108.653 16.6533 108.653 16.4667 108.653 16.28C108.68 16.0667 108.693 15.8533 108.693 15.64C108.693 15.4 108.693 15.16 108.693 14.92C108.72 14.6 108.733 14.28 108.733 13.96C108.733 13.64 108.733 13.32 108.733 13C108.76 12.7333 108.773 12.48 108.773 12.24C108.773 11.9733 108.787 11.7067 108.813 11.44C108.84 11.36 108.853 11.24 108.853 11.08V7.32C108.8 6.97333 108.76 6.64 108.733 6.32C108.733 5.97333 108.733 5.62667 108.733 5.28C108.733 5.09333 108.693 4.90667 108.613 4.72C108.613 4.66667 108.587 4.58667 108.533 4.48C108.32 3.94667 108.333 3.38667 108.573 2.8C108.787 2.32 109.2 1.97333 109.813 1.76C110.16 1.65333 110.547 1.66667 110.973 1.8C111.08 1.82666 111.173 1.86666 111.253 1.92C111.36 1.97333 111.44 2.04 111.493 2.12C111.547 2.17333 111.573 2.21333 111.573 2.24C111.867 2.58667 112.187 2.90667 112.533 3.2C112.72 3.38667 112.893 3.57333 113.053 3.76C113.24 3.92 113.427 4.10667 113.613 4.32L114.653 5.4C114.893 5.64 115.12 5.88 115.333 6.12C115.573 6.33333 115.8 6.57333 116.013 6.84L116.293 7.12C116.587 7.44 116.88 7.76 117.173 8.08C117.493 8.4 117.787 8.73333 118.053 9.08C118.213 9.26667 118.373 9.45333 118.533 9.64C118.693 9.8 118.853 9.98667 119.013 10.2L119.933 11.28C120.44 11.92 120.933 12.5733 121.413 13.24C121.893 13.88 122.387 14.52 122.893 15.16C123.107 15.4267 123.307 15.6933 123.493 15.96C123.707 16.2267 123.907 16.4933 124.093 16.76L124.373 17.12C124.507 17.3333 124.653 17.5467 124.813 17.76C124.973 17.9467 125.133 18.1467 125.293 18.36C125.507 18.6267 125.72 18.8933 125.933 19.16C126.147 19.4 126.347 19.64 126.533 19.88C126.72 20.0667 126.893 20.28 127.053 20.52C127.507 21.0267 127.933 21.5333 128.333 22.04C128.387 22.0667 128.427 22.0667 128.453 22.04V22C128.453 21.8933 128.453 21.7867 128.453 21.68C128.48 21.5467 128.493 21.4267 128.493 21.32C128.467 21.1867 128.453 21.08 128.453 21C128.453 20.8933 128.453 20.7867 128.453 20.68C128.453 20.4933 128.453 20.32 128.453 20.16C128.453 19.9733 128.44 19.7867 128.413 19.6V19.04C128.387 18.8267 128.373 18.6267 128.373 18.44C128.373 18.2267 128.373 18.0267 128.373 17.84V17.76C128.347 17.4667 128.32 17.1733 128.293 16.88C128.293 16.56 128.28 16.2533 128.253 15.96C128.253 15.7733 128.24 15.6 128.213 15.44C128.187 15.28 128.16 15.12 128.133 14.96C128.133 14.88 128.12 14.8 128.093 14.72C128.093 14.6133 128.093 14.52 128.093 14.44C128.067 14.1467 128.053 13.8667 128.053 13.6C128.053 13.3333 128.04 13.0667 128.013 12.8C127.987 12.3733 127.947 11.9467 127.893 11.52C127.867 11.0933 127.853 10.6667 127.853 10.24C127.88 9.65333 127.88 9.08 127.853 8.52C127.853 7.96 127.853 7.38667 127.853 6.8V6.08C127.853 6 127.84 5.94667 127.813 5.92C127.787 5.70667 127.773 5.50667 127.773 5.32C127.773 5.13333 127.773 4.94667 127.773 4.76V4.36C127.773 4.12 127.76 3.88 127.733 3.64C127.707 3.4 127.653 3.17333 127.573 2.96V2.88C127.467 2.61333 127.48 2.32 127.613 2C127.693 1.73333 127.813 1.50667 127.973 1.32C128.133 1.10667 128.307 0.906665 128.493 0.719998L128.773 0.599999C129.2 0.439998 129.613 0.426664 130.013 0.559998L130.613 0.919998C130.667 0.946666 130.707 0.999999 130.733 1.08C130.787 1.13333 130.827 1.18667 130.853 1.24C131.12 1.64 131.253 2.04 131.253 2.44C131.253 2.54666 131.253 2.66666 131.253 2.8C131.28 2.90667 131.293 3.02667 131.293 3.16C131.293 3.26667 131.28 3.37333 131.253 3.48C131.227 3.58666 131.213 3.69333 131.213 3.8C131.24 4.17333 131.24 4.56 131.213 4.96C131.213 5.33333 131.213 5.70666 131.213 6.08C131.213 6.26667 131.213 6.45333 131.213 6.64C131.24 6.82667 131.253 7.02667 131.253 7.24C131.253 7.34667 131.253 7.46667 131.253 7.6C131.253 7.70667 131.267 7.82667 131.293 7.96C131.32 8.06667 131.333 8.2 131.333 8.36V9.28C131.333 9.41333 131.333 9.54667 131.333 9.68C131.333 9.81333 131.347 9.94667 131.373 10.08C131.4 10.2133 131.413 10.36 131.413 10.52C131.413 10.6533 131.427 10.7867 131.453 10.92C131.453 11.0267 131.453 11.1333 131.453 11.24C131.453 11.32 131.467 11.4133 131.493 11.52C131.493 11.5733 131.493 11.6267 131.493 11.68C131.52 11.7333 131.533 11.7867 131.533 11.84C131.533 12 131.533 12.16 131.533 12.32C131.56 12.48 131.587 12.64 131.613 12.8C131.613 13.0933 131.627 13.4 131.653 13.72C131.707 14.04 131.733 14.36 131.733 14.68C131.733 14.7867 131.733 14.8933 131.733 15C131.76 15.08 131.787 15.1733 131.813 15.28V15.48C131.813 15.7733 131.827 16.0667 131.853 16.36C131.907 16.6533 131.933 16.9467 131.933 17.24V17.4C131.987 17.6667 132.013 17.9333 132.013 18.2C132.013 18.4667 132.027 18.7467 132.053 19.04C132.053 19.1467 132.053 19.2533 132.053 19.36C132.053 19.4667 132.067 19.5733 132.093 19.68C132.093 19.7067 132.093 19.7467 132.093 19.8C132.12 19.8267 132.133 19.8533 132.133 19.88C132.133 20.1467 132.147 20.4 132.173 20.64C132.2 20.88 132.227 21.12 132.253 21.36L132.373 22.24L132.413 22.52C132.44 22.8133 132.467 23.1067 132.493 23.4C132.547 23.6933 132.587 23.9867 132.613 24.28L132.733 25.4C132.787 25.7467 132.853 26.0933 132.933 26.44C133.013 26.7867 133.147 27.12 133.333 27.44C133.413 27.6 133.467 27.7733 133.493 27.96C133.547 28.12 133.587 28.28 133.613 28.44V28.76C133.587 28.84 133.573 28.96 133.573 29.12C133.547 29.44 133.467 29.76 133.333 30.08C133.28 30.24 133.227 30.4 133.173 30.56C133.12 30.72 133.067 30.88 133.013 31.04C132.987 31.1467 132.973 31.24 132.973 31.32C132.973 31.4267 132.96 31.5333 132.933 31.64C132.853 32.12 132.813 32.6 132.813 33.08V34.28C132.84 34.6267 132.853 34.9733 132.853 35.32C132.853 35.6667 132.853 36.0133 132.853 36.36V37.16C132.853 37.2933 132.853 37.4267 132.853 37.56C132.853 37.72 132.867 37.8667 132.893 38C132.92 38.0533 132.92 38.12 132.893 38.2C132.893 38.28 132.893 38.3467 132.893 38.4C132.867 38.5333 132.853 38.6667 132.853 38.8C132.853 38.96 132.853 39.1067 132.853 39.24V40.8C132.853 41.0933 132.813 41.4 132.733 41.72C132.653 42.04 132.44 42.24 132.093 42.32ZM138.641 33.6C138.614 33.6 138.521 33.5733 138.361 33.52C138.281 33.4933 138.187 33.4 138.081 33.24C138.054 33.16 138.027 33.08 138.001 33C137.974 32.92 137.961 32.84 137.961 32.76C137.881 32.36 137.841 31.96 137.841 31.56V28.8C137.841 28.56 137.814 28.32 137.761 28.08C137.707 27.84 137.654 27.6 137.601 27.36C137.601 27.3067 137.574 27.2267 137.521 27.12C137.494 27.04 137.454 26.96 137.401 26.88C137.347 26.7733 137.294 26.68 137.241 26.6C137.134 26.4133 137.054 26.2133 137.001 26C136.947 25.7867 136.907 25.5867 136.881 25.4C136.854 25.1067 136.854 24.8267 136.881 24.56C136.934 24.4 136.974 24.2533 137.001 24.12C137.027 23.96 137.067 23.8133 137.121 23.68C137.201 23.4667 137.267 23.2533 137.321 23.04C137.374 22.8 137.441 22.56 137.521 22.32L138.121 20.36C138.307 19.8 138.547 19.2267 138.841 18.64C139.134 18.08 139.414 17.4533 139.681 16.76C139.734 16.6 139.801 16.4267 139.881 16.24C139.987 15.9467 140.094 15.6667 140.201 15.4C140.334 15.1067 140.454 14.8267 140.561 14.56L141.161 12.88C141.214 12.7733 141.254 12.6667 141.281 12.56C141.307 12.4533 141.334 12.3467 141.361 12.24C141.574 11.7067 141.787 11.2 142.001 10.72C142.161 10.4 142.267 10.0533 142.321 9.68C142.374 9.30667 142.374 8.93333 142.321 8.56C142.294 8.4 142.267 8.24 142.241 8.08C142.241 7.89333 142.241 7.72 142.241 7.56C142.241 7.48 142.214 7.41333 142.161 7.36C142.134 7.28 142.134 7.2 142.161 7.12C142.187 7.06667 142.214 7.01333 142.241 6.96C142.294 6.90667 142.334 6.85333 142.361 6.8C142.441 6.50667 142.561 6.25333 142.721 6.04C142.907 5.8 143.107 5.58667 143.321 5.4C143.427 5.29333 143.574 5.21333 143.761 5.16C143.867 5.10667 143.961 5.05333 144.041 5C144.147 4.94667 144.241 4.88 144.321 4.8C144.454 4.69333 144.601 4.62667 144.761 4.6C144.974 4.57333 145.201 4.49333 145.441 4.36C145.654 4.22667 145.894 4.18667 146.161 4.24H146.521C146.707 4.24 146.907 4.30666 147.121 4.44C147.174 4.46667 147.227 4.50667 147.281 4.56C147.361 4.58666 147.441 4.62667 147.521 4.68C147.734 4.84 147.841 5.04 147.841 5.28C147.841 5.46667 147.854 5.64 147.881 5.8C147.934 5.96 147.974 6.13333 148.001 6.32C148.054 6.48 148.054 6.65333 148.001 6.84C147.974 6.89333 147.961 6.96 147.961 7.04C147.961 7.09333 147.947 7.14667 147.921 7.2C147.921 7.30666 147.907 7.41333 147.881 7.52C147.881 7.62667 147.867 7.73333 147.841 7.84C147.761 8.02667 147.787 8.21333 147.921 8.4C148.134 8.74667 148.321 9.10667 148.481 9.48C148.667 9.85333 148.854 10.2267 149.041 10.6L149.761 11.88C149.974 12.2267 150.187 12.64 150.401 13.12C150.454 13.2 150.494 13.28 150.521 13.36C150.574 13.44 150.627 13.52 150.681 13.6C150.761 13.7333 150.827 13.88 150.881 14.04C150.961 14.2 151.041 14.36 151.121 14.52C151.334 14.92 151.507 15.3333 151.641 15.76C151.801 16.16 151.961 16.5867 152.121 17.04C152.121 17.0667 152.121 17.0933 152.121 17.12C152.147 17.12 152.161 17.1333 152.161 17.16C152.187 17.3467 152.321 17.44 152.561 17.44C152.641 17.4133 152.721 17.4 152.801 17.4C152.907 17.4 153.001 17.4 153.081 17.4C153.374 17.4 153.627 17.4533 153.841 17.56C153.974 17.5867 154.107 17.6667 154.241 17.8C154.454 18.0133 154.601 18.1867 154.681 18.32C154.761 18.4533 154.814 18.6533 154.841 18.92C154.947 19.4267 154.841 19.8667 154.521 20.24L154.281 20.44C154.227 20.4933 154.161 20.5467 154.081 20.6C154.001 20.6267 153.934 20.6667 153.881 20.72C153.747 20.8267 153.667 20.9067 153.641 20.96C153.641 21.0133 153.681 21.1333 153.761 21.32L154.361 22.76C154.601 23.2933 154.841 23.8267 155.081 24.36C155.347 24.8933 155.614 25.4267 155.881 25.96C155.987 26.1467 156.067 26.3333 156.121 26.52C156.201 26.7067 156.254 26.9067 156.281 27.12C156.307 27.28 156.307 27.44 156.281 27.6C156.281 27.76 156.267 27.92 156.241 28.08C156.241 28.1067 156.214 28.2 156.161 28.36C156.081 28.4667 156.001 28.5733 155.921 28.68C155.867 28.7867 155.801 28.8933 155.721 29C155.507 29.2933 155.334 29.6267 155.201 30C155.147 30.24 154.974 30.4267 154.681 30.56C154.521 30.64 154.347 30.64 154.161 30.56C153.921 30.48 153.761 30.32 153.681 30.08L153.601 29.88C153.521 29.6133 153.401 29.36 153.241 29.12C153.134 28.9333 153.027 28.7467 152.921 28.56C152.841 28.3467 152.747 28.1467 152.641 27.96C152.614 27.9067 152.601 27.8667 152.601 27.84C152.601 27.7867 152.587 27.7467 152.561 27.72C152.534 27.56 152.481 27.4133 152.401 27.28C152.347 27.12 152.281 26.9733 152.201 26.84C152.041 26.44 151.867 26.0533 151.681 25.68C151.521 25.28 151.347 24.88 151.161 24.48L150.561 23.2C150.534 23.12 150.507 23.04 150.481 22.96C150.454 22.8533 150.414 22.7467 150.361 22.64L149.881 21.56C149.881 21.5067 149.854 21.4267 149.801 21.32C149.667 21.1067 149.494 20.9867 149.281 20.96C149.094 20.96 148.921 20.9467 148.761 20.92C148.601 20.8933 148.441 20.88 148.281 20.88C147.854 20.88 147.427 20.92 147.001 21C146.574 21.08 146.174 21.2267 145.801 21.44C145.294 21.7333 144.774 21.92 144.241 22C144.134 22 144.027 22.0133 143.921 22.04C143.814 22.0667 143.707 22.1067 143.601 22.16C143.441 22.2667 143.347 22.3867 143.321 22.52C143.267 22.68 143.241 22.8 143.241 22.88L143.121 23.44C143.094 23.6267 142.987 23.8133 142.801 24C142.667 24.1333 142.481 24.2 142.241 24.2C141.894 24.1467 141.667 23.9733 141.561 23.68C141.534 23.6 141.507 23.52 141.481 23.44C141.454 23.36 141.427 23.2667 141.401 23.16C141.294 23.32 141.281 23.4533 141.361 23.56C141.414 23.6667 141.387 23.76 141.281 23.84C141.227 23.8933 141.214 23.9333 141.241 23.96C141.294 24.0667 141.281 24.16 141.201 24.24C141.121 24.32 141.094 24.4133 141.121 24.52C141.147 24.5733 141.147 24.64 141.121 24.72C140.987 24.9067 140.894 25.1333 140.841 25.4C140.867 25.5067 140.801 25.5867 140.641 25.64C140.587 25.64 140.561 25.6667 140.561 25.72C140.507 25.8 140.454 25.92 140.401 26.08C140.374 26.2133 140.334 26.36 140.281 26.52C140.254 26.6533 140.214 26.7867 140.161 26.92L139.921 27.92V28.08C139.921 28.32 139.894 28.56 139.841 28.8C139.814 29.0133 139.801 29.24 139.801 29.48L139.681 30.8C139.654 30.9867 139.627 31.1733 139.601 31.36C139.601 31.5733 139.601 31.7867 139.601 32C139.574 32.16 139.547 32.3067 139.521 32.44C139.521 32.6 139.494 32.76 139.441 32.92C139.387 33.16 139.294 33.3333 139.161 33.44C139.054 33.6 138.881 33.6533 138.641 33.6ZM143.841 17.4H143.881C144.147 17.3467 144.401 17.3067 144.641 17.28C144.881 17.2533 145.121 17.2267 145.361 17.2C145.521 17.1733 145.681 17.16 145.841 17.16C146.001 17.1333 146.161 17.12 146.321 17.12H147.161C147.214 17.12 147.267 17.12 147.321 17.12C147.374 17.0933 147.414 17.08 147.441 17.08C147.494 17.08 147.521 17.0267 147.521 16.92C147.441 16.8133 147.374 16.7067 147.321 16.6C147.267 16.4933 147.214 16.3867 147.161 16.28C147.001 15.9067 146.787 15.5867 146.521 15.32C146.494 15.2667 146.467 15.2267 146.441 15.2C146.414 15.1467 146.387 15.0933 146.361 15.04C146.334 14.9867 146.294 14.9333 146.241 14.88C146.214 14.8 146.174 14.7333 146.121 14.68C145.987 14.5733 145.854 14.6 145.721 14.76L145.601 15.08C145.574 15.2933 145.534 15.52 145.481 15.76C145.427 15.9733 145.374 16.1867 145.321 16.4C145.321 16.4533 145.294 16.5333 145.241 16.64C145.187 16.8 145.054 16.92 144.841 17C144.654 17.08 144.454 17.0533 144.241 16.92L144.001 16.76C144.001 16.76 143.974 16.76 143.921 16.76C143.867 16.8667 143.841 16.9467 143.841 17C143.841 17.0533 143.841 17.1067 143.841 17.16C143.867 17.2133 143.854 17.2667 143.801 17.32C143.747 17.3733 143.761 17.4 143.841 17.4ZM170.746 29.96C170.399 30.04 170.039 30.0133 169.666 29.88C169.559 29.8533 169.466 29.8133 169.386 29.76C169.332 29.7067 169.266 29.6533 169.186 29.6C168.999 29.4667 168.852 29.2667 168.746 29L168.586 28.48C168.586 28.4267 168.572 28.3867 168.546 28.36C168.546 28.3067 168.546 28.2667 168.546 28.24C168.546 27.8667 168.519 27.5067 168.466 27.16C168.412 26.7867 168.359 26.4267 168.306 26.08C168.252 25.8133 168.199 25.5467 168.146 25.28C168.119 25.0133 168.079 24.7467 168.026 24.48C168.026 24.4267 168.012 24.3867 167.986 24.36C167.986 24.3333 167.986 24.3067 167.986 24.28C167.932 23.96 167.879 23.64 167.826 23.32C167.772 23 167.719 22.6933 167.666 22.4C167.639 22.24 167.612 22.08 167.586 21.92C167.586 21.76 167.559 21.6 167.506 21.44L167.266 19.68C167.239 19.44 167.199 19.2 167.146 18.96C167.119 18.6933 167.079 18.4267 167.026 18.16C166.999 17.8933 166.959 17.64 166.906 17.4C166.852 17.1333 166.799 16.88 166.746 16.64L166.146 14C166.092 13.7067 166.039 13.4133 165.986 13.12C165.932 12.8267 165.866 12.5467 165.786 12.28C165.706 12.04 165.639 11.8 165.586 11.56C165.532 11.2933 165.452 11.04 165.346 10.8L165.306 10.64C165.226 10.2933 165.119 9.96 164.986 9.64C164.879 9.32 164.759 9 164.626 8.68C164.626 8.65333 164.612 8.64 164.586 8.64C164.586 8.61333 164.586 8.6 164.586 8.6C164.532 8.44 164.439 8.38667 164.306 8.44C164.279 8.46666 164.239 8.48 164.186 8.48C164.079 8.50667 163.972 8.54667 163.866 8.6C163.786 8.65333 163.692 8.70667 163.586 8.76C163.319 8.84 163.092 8.96 162.906 9.12L161.826 9.88C161.666 9.96 161.519 10.0667 161.386 10.2C161.279 10.3333 161.172 10.4667 161.066 10.6C160.986 10.7067 160.946 10.8267 160.946 10.96L160.826 11.68C160.799 11.9467 160.772 12.2267 160.746 12.52C160.719 12.8133 160.692 13.1067 160.666 13.4C160.639 13.6667 160.599 13.92 160.546 14.16C160.519 14.3733 160.506 14.6133 160.506 14.88C160.506 15.0933 160.466 15.32 160.386 15.56C160.306 15.8533 160.106 16.04 159.786 16.12C159.546 16.1467 159.346 16.0667 159.186 15.88C159.052 15.7467 158.959 15.5467 158.906 15.28C158.879 15.0933 158.852 14.92 158.826 14.76C158.799 14.6 158.786 14.4267 158.786 14.24V13.04C158.786 12.8 158.772 12.5733 158.746 12.36C158.746 12.1467 158.759 11.9467 158.786 11.76C158.786 11.3067 158.679 10.8667 158.466 10.44L157.866 9.2C157.759 8.98667 157.666 8.70667 157.586 8.36C157.506 7.98667 157.466 7.68 157.466 7.44C157.519 6.82667 157.746 6.32 158.146 5.92C158.492 5.57333 158.892 5.34667 159.346 5.24C159.506 5.18667 159.719 5.13333 159.986 5.08L162.106 4.72C162.319 4.69333 162.519 4.66667 162.706 4.64C162.919 4.58667 163.119 4.54667 163.306 4.52C163.706 4.46666 164.106 4.41333 164.506 4.36C164.932 4.30667 165.359 4.26667 165.786 4.24C166.026 4.21333 166.266 4.18667 166.506 4.16C166.746 4.13333 166.986 4.10667 167.226 4.08H167.386C167.626 4.05333 167.852 4.04 168.066 4.04C168.306 4.01333 168.546 3.98667 168.786 3.96C168.919 3.93333 169.052 3.92 169.186 3.92C169.319 3.92 169.439 3.90667 169.546 3.88C169.572 3.85333 169.626 3.84 169.706 3.84L171.186 3.72C171.479 3.69333 171.759 3.66666 172.026 3.64C172.319 3.61333 172.612 3.58667 172.906 3.56C173.146 3.53333 173.386 3.50666 173.626 3.48C173.866 3.42667 174.106 3.34667 174.346 3.24C174.586 3.13333 174.826 3.10667 175.066 3.16C175.332 3.18667 175.572 3.25333 175.786 3.36C175.866 3.38667 175.932 3.44 175.986 3.52C176.066 3.57333 176.132 3.62667 176.186 3.68C176.319 3.81333 176.426 3.97333 176.506 4.16C176.586 4.32 176.666 4.48 176.746 4.64C176.826 4.8 176.826 4.96 176.746 5.12C176.692 5.22667 176.652 5.34667 176.626 5.48C176.626 5.58667 176.612 5.70667 176.586 5.84C176.586 5.97333 176.546 6.08 176.466 6.16C176.412 6.18667 176.359 6.22667 176.306 6.28C176.252 6.33333 176.199 6.38667 176.146 6.44C176.066 6.46667 175.986 6.54667 175.906 6.68C175.746 6.89333 175.519 7 175.226 7C175.119 7 175.012 7.01333 174.906 7.04C174.826 7.06667 174.732 7.09333 174.626 7.12C174.386 7.17333 174.226 7.25333 174.146 7.36C174.012 7.49333 173.866 7.56 173.706 7.56C173.519 7.61333 173.372 7.56 173.266 7.4C173.239 7.32 173.172 7.28 173.066 7.28C172.959 7.30667 172.839 7.32 172.706 7.32C172.599 7.32 172.492 7.32 172.386 7.32C172.279 7.34667 172.159 7.36 172.026 7.36C171.919 7.36 171.799 7.37333 171.666 7.4C171.559 7.4 171.466 7.41333 171.386 7.44C171.306 7.44 171.212 7.44 171.106 7.44C170.839 7.46667 170.559 7.49333 170.266 7.52C169.999 7.54666 169.719 7.57333 169.426 7.6C169.266 7.6 169.146 7.61333 169.066 7.64C168.959 7.69333 168.906 7.77333 168.906 7.88C168.879 7.98667 168.879 8.12 168.906 8.28L169.146 9.52C169.199 9.76 169.252 10.0133 169.306 10.28C169.359 10.52 169.412 10.7733 169.466 11.04L169.586 11.92C169.586 12.0267 169.586 12.1333 169.586 12.24C169.612 12.32 169.639 12.4133 169.666 12.52C169.719 12.84 169.772 13.16 169.826 13.48C169.906 13.8 169.959 14.12 169.986 14.44L170.026 14.6C170.132 14.9467 170.212 15.2933 170.266 15.64C170.319 15.9867 170.372 16.3467 170.426 16.72C170.479 16.96 170.532 17.2133 170.586 17.48C170.639 17.72 170.679 17.96 170.706 18.2C170.732 18.3867 170.759 18.5733 170.786 18.76C170.812 18.92 170.839 19.0933 170.866 19.28V19.48C170.892 19.6933 170.919 19.9067 170.946 20.12C170.999 20.3067 171.039 20.5067 171.066 20.72L171.186 21.92C171.212 22.1067 171.239 22.2933 171.266 22.48C171.292 22.6667 171.319 22.8667 171.346 23.08C171.346 23.1333 171.346 23.2 171.346 23.28C171.372 23.3333 171.386 23.3867 171.386 23.44C171.386 23.5733 171.399 23.72 171.426 23.88C171.452 24.0133 171.479 24.16 171.506 24.32C171.559 24.6133 171.612 24.92 171.666 25.24C171.719 25.5333 171.772 25.84 171.826 26.16C171.852 26.3467 171.892 26.5333 171.946 26.72C171.999 26.88 172.039 27.0533 172.066 27.24C172.092 27.3733 172.172 27.5067 172.306 27.64C172.412 27.72 172.439 27.8133 172.386 27.92C172.306 28.0267 172.252 28.1467 172.226 28.28C172.226 28.4133 172.212 28.5467 172.186 28.68C172.186 28.7867 172.172 28.8667 172.146 28.92C172.146 29.0533 172.092 29.1467 171.986 29.2C171.879 29.2533 171.772 29.36 171.666 29.52C171.532 29.6533 171.426 29.7467 171.346 29.8C171.266 29.88 171.159 29.92 171.026 29.92C170.972 29.8933 170.879 29.9067 170.746 29.96ZM187.807 35.48C187.433 35.64 187.127 35.52 186.887 35.12C186.753 34.9333 186.66 34.68 186.607 34.36C186.58 34.12 186.54 33.88 186.487 33.64C186.433 33.4 186.38 33.1467 186.327 32.88C186.3 32.7733 186.26 32.6667 186.207 32.56C186.18 32.4533 186.14 32.3467 186.087 32.24C186.007 32.08 185.927 31.92 185.847 31.76C185.767 31.6 185.673 31.4533 185.567 31.32C185.46 31.1067 185.393 30.96 185.367 30.88L185.167 30.44C185.007 30.0667 184.927 29.68 184.927 29.28C184.9 29.0933 184.887 28.9067 184.887 28.72C184.913 28.5333 184.94 28.3467 184.967 28.16C185.047 27.68 185.033 27.24 184.927 26.84L184.567 25.04C184.54 24.88 184.513 24.72 184.487 24.56C184.46 24.3733 184.433 24.1867 184.407 24L184.287 23.44C184.26 23.2 184.233 22.96 184.207 22.72C184.18 22.48 184.153 22.2533 184.127 22.04C184.1 21.96 184.087 21.88 184.087 21.8C184.087 21.72 184.087 21.64 184.087 21.56C184.087 21.2667 183.993 21.0133 183.807 20.8C183.7 20.6667 183.593 20.5333 183.487 20.4C183.407 20.24 183.34 20.0933 183.287 19.96C183.18 19.8 183.073 19.6533 182.967 19.52C182.887 19.36 182.807 19.2 182.727 19.04C182.647 18.88 182.513 18.7867 182.327 18.76C182.167 18.7333 182.02 18.6667 181.887 18.56C181.7 18.4 181.527 18.2267 181.367 18.04C181.313 17.9333 181.26 17.8533 181.207 17.8C181.127 17.6933 181.1 17.5867 181.127 17.48C181.18 17.4 181.18 17.32 181.127 17.24C181.047 17.1067 181.02 16.9867 181.047 16.88C181.073 16.7733 181.1 16.6667 181.127 16.56C181.127 16.4533 181.153 16.36 181.207 16.28C181.26 16.2 181.313 16.12 181.367 16.04C181.473 15.88 181.593 15.7467 181.727 15.64C181.887 15.5067 182.047 15.3867 182.207 15.28C182.313 15.2267 182.393 15.1733 182.447 15.12C182.58 15.0667 182.62 14.9867 182.567 14.88V14.76C182.513 14.4667 182.46 14.1867 182.407 13.92C182.353 13.6533 182.287 13.3867 182.207 13.12C182.18 12.9867 182.14 12.8533 182.087 12.72C182.06 12.5867 182.02 12.4533 181.967 12.32C181.94 12.2933 181.927 12.24 181.927 12.16C181.927 12.0267 181.913 11.8933 181.887 11.76C181.86 11.6267 181.833 11.5067 181.807 11.4C181.727 10.76 181.607 10.12 181.447 9.48C181.42 9.29333 181.353 9.10667 181.247 8.92C181.14 8.68 181.073 8.46667 181.047 8.28C180.967 7.98667 180.887 7.70667 180.807 7.44C180.727 7.14667 180.66 6.86666 180.607 6.6C180.527 6.33333 180.46 6.06667 180.407 5.8C180.38 5.53333 180.353 5.26667 180.327 5C180.3 4.36 180.527 3.84 181.007 3.44L181.127 3.32C181.34 3.13333 181.553 3.01333 181.767 2.96C182.007 2.88 182.26 2.84 182.527 2.84C182.767 2.86667 182.98 2.85333 183.167 2.8C183.38 2.72 183.58 2.62667 183.767 2.52C183.82 2.49333 183.9 2.48 184.007 2.48H184.127C184.207 2.48 184.273 2.49333 184.327 2.52C184.407 2.57333 184.5 2.54666 184.607 2.44C184.633 2.41333 184.673 2.42666 184.727 2.48C184.78 2.56 184.847 2.6 184.927 2.6C184.98 2.62667 185.033 2.64 185.087 2.64C185.167 2.64 185.247 2.66667 185.327 2.72C185.38 2.74666 185.433 2.78666 185.487 2.84C185.567 2.89333 185.62 2.97333 185.647 3.08L185.767 3.2C185.847 3.22667 185.913 3.29333 185.967 3.4C185.993 3.50667 186.087 3.56 186.247 3.56C186.327 3.56 186.447 3.53333 186.607 3.48C186.9 3.42667 187.18 3.37333 187.447 3.32C187.74 3.26667 188.02 3.22667 188.287 3.2C188.367 3.17333 188.46 3.16 188.567 3.16C189.1 3.13333 189.633 3.08 190.167 3C190.7 2.92 191.22 2.82667 191.727 2.72L191.927 2.64C192.46 2.56 192.967 2.4 193.447 2.16C193.633 2.05333 193.833 1.96 194.047 1.88C194.26 1.8 194.46 1.72 194.647 1.64L196.007 1.16C196.193 1.10667 196.313 1.05333 196.367 0.999999C196.527 0.866666 196.673 0.773332 196.807 0.719998C197.153 0.506666 197.54 0.373333 197.967 0.319998C198.207 0.319998 198.447 0.359999 198.687 0.439999C199.06 0.599999 199.407 0.853332 199.727 1.2C199.807 1.33333 199.833 1.48 199.807 1.64C199.727 1.8 199.727 1.97333 199.807 2.16C199.833 2.32 199.833 2.45333 199.807 2.56C199.78 2.66666 199.767 2.77333 199.767 2.88C199.767 2.98667 199.753 3.09333 199.727 3.2C199.727 3.33333 199.687 3.44 199.607 3.52C199.42 3.78667 199.233 3.98667 199.047 4.12C199.02 4.14667 198.993 4.17333 198.967 4.2C198.967 4.22666 198.94 4.26666 198.887 4.32C198.86 4.34667 198.833 4.37333 198.807 4.4C198.807 4.42666 198.78 4.46666 198.727 4.52C198.593 4.62667 198.473 4.74667 198.367 4.88C198.287 5.01333 198.193 5.14667 198.087 5.28C197.98 5.46667 197.847 5.65333 197.687 5.84C197.553 6 197.393 6.14666 197.207 6.28L196.887 6.64C196.727 6.85333 196.633 7.05333 196.607 7.24C196.553 7.48 196.5 7.72 196.447 7.96C196.42 8.17333 196.407 8.4 196.407 8.64L196.287 9.48C196.287 9.58667 196.26 9.69333 196.207 9.8C196.1 10.0667 195.887 10.2 195.567 10.2C195.54 10.2267 195.5 10.24 195.447 10.24C195.42 10.2133 195.393 10.2 195.367 10.2C195.127 10.0667 194.967 9.89333 194.887 9.68C194.78 9.33333 194.7 8.94667 194.647 8.52C194.647 8.38667 194.633 8.25333 194.607 8.12C194.607 7.96 194.593 7.81333 194.567 7.68L194.447 7.4C194.393 7.21333 194.287 7.17333 194.127 7.28C194.1 7.28 194.06 7.29333 194.007 7.32C193.98 7.34667 193.94 7.37333 193.887 7.4C193.78 7.45333 193.673 7.52 193.567 7.6C193.487 7.65333 193.407 7.72 193.327 7.8C193.087 7.93333 192.793 8.06667 192.447 8.2C191.967 8.36 191.527 8.6 191.127 8.92C191.073 8.94667 191.007 8.98667 190.927 9.04C190.873 9.09333 190.807 9.14667 190.727 9.2C190.647 9.25333 190.567 9.30667 190.487 9.36C190.407 9.41333 190.313 9.46667 190.207 9.52L189.927 9.68C189.847 9.73333 189.753 9.84 189.647 10C189.62 10.1333 189.58 10.28 189.527 10.44C189.5 10.5733 189.487 10.72 189.487 10.88C189.487 11.12 189.473 11.36 189.447 11.6C189.447 11.84 189.46 12.08 189.487 12.32C189.487 12.4533 189.487 12.6 189.487 12.76C189.487 12.8933 189.46 13.0267 189.407 13.16C189.353 13.3467 189.42 13.4133 189.607 13.36C189.74 13.36 189.847 13.3467 189.927 13.32C190.22 13.2667 190.513 13.2267 190.807 13.2C191.127 13.1467 191.42 13.0933 191.687 13.04L192.567 12.92C192.7 12.8933 192.807 12.8667 192.887 12.84C192.993 12.8133 193.1 12.7733 193.207 12.72C193.367 12.6133 193.527 12.5467 193.687 12.52C193.847 12.4933 194.007 12.4667 194.167 12.44C194.513 12.36 194.86 12.4267 195.207 12.64L195.727 13C195.833 13.1067 195.887 13.2133 195.887 13.32C195.94 13.5067 196.007 13.6 196.087 13.6C196.167 13.5733 196.22 13.5733 196.247 13.6C196.327 13.7067 196.393 13.8267 196.447 13.96C196.527 14.0667 196.58 14.1867 196.607 14.32C196.607 14.4267 196.567 14.4933 196.487 14.52C196.38 14.52 196.3 14.56 196.247 14.64C196.193 14.72 196.14 14.8 196.087 14.88C196.06 14.9067 196.047 14.9333 196.047 14.96C196.073 14.9867 196.087 15.0133 196.087 15.04C196.14 15.12 196.14 15.2133 196.087 15.32C196.06 15.3733 196.033 15.44 196.007 15.52C195.98 15.5733 195.953 15.6267 195.927 15.68C195.82 15.92 195.66 16.12 195.447 16.28C195.34 16.3867 195.247 16.4667 195.167 16.52C194.953 16.6533 194.753 16.8933 194.567 17.24C194.54 17.2933 194.513 17.36 194.487 17.44C194.46 17.4933 194.42 17.56 194.367 17.64C194.287 17.7467 194.167 17.8267 194.007 17.88C193.74 17.9333 193.527 17.92 193.367 17.84L193.127 17.72C192.967 17.6667 192.833 17.68 192.727 17.76C192.7 17.7867 192.633 17.8267 192.527 17.88C192.287 17.9867 192.02 18 191.727 17.92C191.593 17.8667 191.447 17.8 191.287 17.72C191.153 17.64 191.02 17.5733 190.887 17.52C190.833 17.4933 190.78 17.4533 190.727 17.4C190.62 17.32 190.5 17.3067 190.367 17.36C190.207 17.3867 190.047 17.4267 189.887 17.48C189.727 17.5067 189.567 17.5467 189.407 17.6C189.167 17.6267 188.9 17.7067 188.607 17.84C188.527 17.84 188.447 17.88 188.367 17.96C188.233 18.0667 188.18 18.1867 188.207 18.32V18.4C188.287 18.64 188.34 18.88 188.367 19.12C188.42 19.36 188.46 19.6 188.487 19.84L188.727 21.52C188.727 21.5467 188.727 21.5733 188.727 21.6C188.753 21.6 188.767 21.6 188.767 21.6C188.767 21.8933 188.78 22.1867 188.807 22.48C188.833 22.7733 188.847 23.0667 188.847 23.36C188.847 23.7067 188.847 24.04 188.847 24.36C188.873 24.68 188.887 25 188.887 25.32V25.8C188.94 25.9067 189.02 25.96 189.127 25.96L189.647 25.84C189.78 25.8133 189.9 25.7867 190.007 25.76C190.14 25.7333 190.26 25.7067 190.367 25.68L191.087 25.56C191.247 25.56 191.367 25.5467 191.447 25.52C191.793 25.4667 192.14 25.4 192.487 25.32C192.833 25.24 193.18 25.1733 193.527 25.12C193.687 25.0933 193.847 25.0667 194.007 25.04C194.193 25.0133 194.38 24.9867 194.567 24.96C194.86 24.9333 195.14 24.9067 195.407 24.88C195.7 24.8267 195.98 24.7867 196.247 24.76C196.38 24.7333 196.5 24.72 196.607 24.72C196.74 24.6933 196.86 24.68 196.967 24.68C197.127 24.6267 197.247 24.5733 197.327 24.52C197.38 24.4667 197.433 24.4267 197.487 24.4C197.567 24.3733 197.62 24.3467 197.647 24.32C197.887 24.1067 198.153 24.0267 198.447 24.08C198.527 24.08 198.593 24.0667 198.647 24.04C198.7 24.04 198.767 24.04 198.847 24.04C198.927 24.04 198.993 24.0533 199.047 24.08C199.18 24.1333 199.3 24.1867 199.407 24.24C199.513 24.2667 199.62 24.32 199.727 24.4C199.753 24.4267 199.78 24.44 199.807 24.44C200.02 24.5733 200.233 24.5867 200.447 24.48C200.527 24.4267 200.62 24.3867 200.727 24.36C200.833 24.3067 200.94 24.2667 201.047 24.24C201.313 24.16 201.58 24.16 201.847 24.24C201.927 24.2667 202.007 24.2933 202.087 24.32C202.193 24.3467 202.273 24.3867 202.327 24.44C202.487 24.52 202.633 24.6533 202.767 24.84C203.007 25.1867 203.167 25.5467 203.247 25.92C203.3 26 203.3 26.08 203.247 26.16C203.22 26.24 203.193 26.32 203.167 26.4C203.14 26.4533 203.113 26.52 203.087 26.6C203.06 26.6533 203.033 26.72 203.007 26.8C202.98 26.8533 202.953 26.9067 202.927 26.96C202.927 27.0667 202.873 27.1467 202.767 27.2C202.66 27.2267 202.58 27.3067 202.527 27.44C202.473 27.5467 202.407 27.5733 202.327 27.52C202.22 27.52 202.153 27.5333 202.127 27.56C201.993 27.6667 201.847 27.7467 201.687 27.8C201.527 27.8533 201.367 27.9067 201.207 27.96C200.913 28.0133 200.62 28.0933 200.327 28.2C200.033 28.28 199.74 28.36 199.447 28.44C199.287 28.4933 199.167 28.52 199.087 28.52C198.927 28.5467 198.767 28.5867 198.607 28.64C198.473 28.6667 198.34 28.7067 198.207 28.76C198.18 28.7867 198.14 28.8 198.087 28.8C198.06 28.8 198.02 28.8133 197.967 28.84C197.78 28.8667 197.58 28.9067 197.367 28.96C197.18 29.0133 196.993 29.08 196.807 29.16C196.727 29.2133 196.607 29.24 196.447 29.24C196.233 29.24 196.007 29.28 195.767 29.36C195.5 29.4133 195.233 29.4667 194.967 29.52C194.7 29.5467 194.42 29.5867 194.127 29.64L193.287 29.76C192.94 29.84 192.633 29.9333 192.367 30.04C192.313 30.0667 192.247 30.0933 192.167 30.12C192.087 30.1467 192.02 30.1733 191.967 30.2C191.407 30.3067 190.887 30.5067 190.407 30.8L190.087 30.92C189.873 30.9467 189.66 31.0133 189.447 31.12C189.26 31.2267 189.06 31.3333 188.847 31.44C188.687 31.5467 188.58 31.6267 188.527 31.68C188.473 31.7333 188.42 31.8133 188.367 31.92C188.233 32.24 188.167 32.52 188.167 32.76C188.193 32.9467 188.207 33.12 188.207 33.28C188.207 33.4667 188.22 33.6667 188.247 33.88C188.3 34.2 188.287 34.4933 188.207 34.76C188.207 34.8667 188.18 35 188.127 35.16C188.02 35.32 187.913 35.4267 187.807 35.48ZM187.807 13.72C187.913 13.6667 187.967 13.5867 187.967 13.48C187.94 13.4267 187.927 13.3733 187.927 13.32C187.927 13.24 187.913 13.1733 187.887 13.12C187.753 12.7733 187.687 12.4667 187.687 12.2C187.687 12.1467 187.673 12.1067 187.647 12.08C187.647 12.0533 187.647 12.0267 187.647 12C187.593 11.9467 187.567 11.92 187.567 11.92V12C187.54 12.1333 187.513 12.28 187.487 12.44C187.487 12.6 187.487 12.76 187.487 12.92V13.56C187.54 13.64 187.593 13.68 187.647 13.68C187.673 13.7067 187.727 13.72 187.807 13.72Z" fill="#E9B74B"/>
</svg>
