<svg width="26" height="24" viewBox="0 0 26 24" fill="none" xmlns="http://www.w3.org/2000/svg">
<path fill-rule="evenodd" clip-rule="evenodd" d="M7.15684 5.17157L7.15684 5.17157L5.44101 6.8874C4.86295 7.46546 4.57392 7.75449 4.42168 8.12203C4.26944 8.48957 4.26944 8.89832 4.26944 9.71583V14.326C4.26944 15.1517 4.26944 15.5646 4.42449 15.9351C4.57955 16.3056 4.87363 16.5954 5.46179 17.175L7.16049 18.849C7.73689 19.4171 8.0251 19.7011 8.38968 19.8505C8.75425 20 9.15889 20 9.96815 20H14.6126C15.4301 20 15.8388 20 16.2064 19.8478C16.5739 19.6955 16.863 19.4065 17.441 18.8284L19.0979 17.1716C19.6759 16.5935 19.965 16.3045 20.1172 15.9369C20.2694 15.5694 20.2694 15.1606 20.2694 14.3431V9.69871C20.2694 8.88945 20.2694 8.48482 20.12 8.12024C19.9705 7.75566 19.6865 7.46745 19.1185 6.89105L17.4445 5.19234C16.8648 4.60419 16.575 4.31011 16.2045 4.15505C15.8341 4 15.4212 4 14.5954 4H9.98526C9.16776 4 8.75901 4 8.39147 4.15224C8.02393 4.30448 7.7349 4.59351 7.15684 5.17157ZM8.71665 10.1056C8.22267 9.85858 7.622 10.0588 7.37501 10.5528C7.12802 11.0468 7.32825 11.6474 7.82223 11.8944L8.1278 12.0472L7.87501 12.5528C7.62802 13.0468 7.82825 13.6474 8.32223 13.8944C8.8162 14.1414 9.41688 13.9412 9.66387 13.4472L10.0044 12.7661C10.4212 12.8745 10.844 12.9525 11.2694 13V14C11.2694 14.5523 11.7172 15 12.2694 15C12.8217 15 13.2694 14.5523 13.2694 14V13C13.6948 12.9525 14.1176 12.8745 14.5345 12.7661L14.875 13.4472C15.122 13.9412 15.7227 14.1414 16.2167 13.8944C16.7106 13.6474 16.9109 13.0468 16.6639 12.5528L16.4111 12.0472L16.7167 11.8944C17.2106 11.6474 17.4109 11.0468 17.1639 10.5528C16.9169 10.0588 16.3162 9.85858 15.8222 10.1056L15.3999 10.3167C13.4292 11.3021 11.1096 11.3021 9.13895 10.3167L8.71665 10.1056Z" fill="#33363F"/>
</svg>
