<svg width="26" height="24" viewBox="0 0 26 24" fill="none" xmlns="http://www.w3.org/2000/svg">
<path d="M12.4276 12L18.553 16.1694C19.1001 16.5418 19.4276 17.1608 19.4276 17.8227V20.5C19.4276 20.7761 19.2037 21 18.9276 21H5.92758C5.65144 21 5.42758 20.7761 5.42758 20.5V17.8227C5.42758 17.1608 5.75504 16.5418 6.3022 16.1694L12.4276 12ZM12.4276 12L18.553 7.83062C19.1001 7.45819 19.4276 6.83917 19.4276 6.17729V3.5C19.4276 3.22386 19.2037 3 18.9276 3H5.92758C5.65144 3 5.42758 3.22386 5.42758 3.5V6.17729C5.42758 6.83917 5.75504 7.45819 6.3022 7.83062L12.4276 12Z" stroke="white" stroke-width="2" stroke-linecap="round" stroke-linejoin="round"/>
<path d="M15.4276 20.2071V20.85C15.4276 20.9328 15.3604 21 15.2776 21H9.57758C9.49474 21 9.42758 20.9328 9.42758 20.85V20.2071C9.42758 20.0745 9.48026 19.9473 9.57403 19.8536L11.8619 17.5657C12.1743 17.2533 12.6808 17.2533 12.9933 17.5657L15.2811 19.8536C15.3749 19.9473 15.4276 20.0745 15.4276 20.2071Z" fill="white"/>
<path d="M12.4276 11L17.4276 8H7.42758L12.4276 11Z" fill="white"/>
<path d="M12.4276 18V12" stroke="white" stroke-width="2" stroke-linecap="round" stroke-linejoin="round"/>
</svg>
