<svg width="176" height="90" viewBox="0 0 176 90" fill="none" xmlns="http://www.w3.org/2000/svg">
<g clip-path="url(#clip0_303_949)">
<path d="M175.51 70.33C175.51 80.96 166.89 89.59 156.25 89.59H19.25C8.62 89.58 0 80.96 0 70.33V19.26C0 8.62 8.62 0 19.25 0H156.25C166.88 0 175.51 8.62 175.51 19.26V70.33Z" fill="url(#paint0_linear_303_949)"/>
<path d="M174.65 65.8103C174.65 75.6403 166.26 83.6103 155.92 83.6103H25.19C14.85 83.6103 6.46002 75.6403 6.46002 65.8103V18.6103C6.46002 8.78031 14.84 0.820312 25.19 0.820312H155.93C166.27 0.820312 174.66 8.78031 174.66 18.6103V65.8103H174.65Z" fill="url(#paint1_linear_303_949)"/>
<path opacity="0.47" d="M21.19 9.27043C21.19 9.27043 16.57 10.2404 15.36 13.6404C14.15 17.0404 18.27 17.0404 18.27 17.0404C18.27 17.0404 25.46 7.13043 21.19 9.27043Z" fill="#2B1010"/>
<path opacity="0.47" d="M25.81 12.9999C25.81 12.9999 26.3 18.4899 28.72 17.0399C31.15 15.5799 28.72 8.7199 25.81 12.9999Z" fill="#2B1010"/>
<path opacity="0.47" d="M21.88 31.5603C21.88 31.5603 17.04 27.8303 15.49 28.9603C13.94 30.1003 12.42 33.1803 13.02 34.1503C13.62 35.1203 18.98 38.0403 18.98 38.0403C18.98 38.0403 18.48 32.3703 21.88 31.5603Z" fill="#2B1010"/>
<path opacity="0.47" d="M79.72 8.96961C79.72 8.96961 75.59 8.13961 77.29 11.6196C78.99 15.0996 83.61 11.4796 84.58 10.2496C85.55 9.01961 84.34 3.80961 79.72 8.96961Z" fill="#2B1010"/>
<path opacity="0.47" d="M156.3 61.4902C156.3 61.4902 165.04 62.2202 161.16 69.0202C157.27 75.8202 156.3 72.1802 156.3 72.1802L152.9 65.8702C152.9 65.8602 152.41 57.8402 156.3 61.4902Z" fill="#2B1010"/>
<path opacity="0.47" d="M152.88 72.1696C152.88 72.1696 155.29 75.8096 152.88 78.2396C150.47 80.6696 146.54 70.2296 152.88 72.1696Z" fill="#2B1010"/>
<path opacity="0.47" d="M131.77 68.2896C131.77 68.2896 128.37 69.2596 131.77 71.9296C135.17 74.5996 135.17 67.3096 131.77 68.2896Z" fill="#2B1010"/>
<path opacity="0.47" d="M141.74 12.9998L142.69 13.0898C142.69 13.0898 139.78 15.0998 144.15 17.0398C148.52 18.9798 152.21 8.71977 141.74 12.9998Z" fill="#2B1010"/>
<path d="M56.2109 27.7656C57.6172 28.0156 58.7734 28.1875 59.6797 28.2812C60.5859 28.375 61.3203 28.4531 61.8828 28.5156C62.5391 28.5781 63.0547 28.5938 63.4297 28.5625H64.8359C65.3359 28.5625 65.9609 28.5625 66.7109 28.5625C67.4922 28.5312 68.4609 28.5156 69.6172 28.5156C70.2734 30.0469 70.8672 31.4531 71.3984 32.7344C71.9609 34.0156 72.4297 35.1094 72.8047 36.0156C73.2422 37.1094 73.6484 38.0938 74.0234 38.9688C74.4609 40.0625 74.9297 41.2656 75.4297 42.5781C75.9297 43.8906 76.3828 45.125 76.7891 46.2812C77.2266 47.4375 77.5859 48.3906 77.8672 49.1406C78.1484 49.8906 78.2891 50.2344 78.2891 50.1719C78.2891 50.1406 78.3047 49.8281 78.3359 49.2344C78.3672 48.6094 78.3984 47.8438 78.4297 46.9375C78.4609 46 78.4922 44.9844 78.5234 43.8906C78.5859 42.7656 78.6172 41.6875 78.6172 40.6562C78.6484 39.5938 78.6641 38.625 78.6641 37.75C78.6641 36.875 78.6328 36.2188 78.5703 35.7812C78.4766 35.25 78.2891 34.6406 78.0078 33.9531C77.7578 33.3594 77.4141 32.6562 76.9766 31.8438C76.5391 31 75.9297 30.0469 75.1484 28.9844C76.4297 29.0156 77.4766 29.0312 78.2891 29.0312C79.1016 29.0312 79.7578 29.0312 80.2578 29.0312C80.8203 29.0312 81.2578 29.0156 81.5703 28.9844C81.9766 28.9844 82.4766 28.9531 83.0703 28.8906C83.6016 28.8281 84.2578 28.7812 85.0391 28.75C85.8516 28.6875 86.8516 28.6094 88.0391 28.5156C87.3516 29.1406 86.8047 29.7344 86.3984 30.2969C85.9922 30.8594 85.6641 31.3594 85.4141 31.7969C85.1328 32.2969 84.9453 32.7656 84.8516 33.2031C84.7266 33.7656 84.6172 34.6875 84.5234 35.9688C84.4609 37.2188 84.3828 38.625 84.2891 40.1875C84.2266 41.75 84.1641 43.375 84.1016 45.0625C84.0391 46.75 83.9766 48.2969 83.9141 49.7031C83.9141 50.7656 83.8828 51.9062 83.8203 53.125C83.7578 54.1562 83.6953 55.3281 83.6328 56.6406C83.5703 57.9219 83.4922 59.2188 83.3984 60.5312L79.2266 60.625C78.0078 58.4688 76.9766 56.625 76.1328 55.0938C75.3203 53.5312 74.6484 52.25 74.1172 51.25C73.5234 50.0938 73.0234 49.125 72.6172 48.3438C72.2734 47.5938 71.8203 46.7344 71.2578 45.7656C70.7891 44.9531 70.1953 43.9531 69.4766 42.7656C68.7891 41.5781 67.9609 40.2188 66.9922 38.6875C66.8984 40.8438 66.8516 42.6875 66.8516 44.2188C66.8828 45.7188 66.9297 46.9688 66.9922 47.9688C67.0859 49.125 67.1953 50.0938 67.3203 50.875C67.4766 51.625 67.6953 52.4688 67.9766 53.4062C68.2266 54.2188 68.5234 55.1719 68.8672 56.2656C69.2422 57.3594 69.6953 58.5938 70.2266 59.9688C68.3828 59.875 67.0078 59.8281 66.1016 59.8281H64.6953C64.2578 59.8281 63.6641 59.875 62.9141 59.9688C62.2891 60.0312 61.4297 60.125 60.3359 60.25C59.2734 60.375 57.9453 60.5469 56.3516 60.7656C57.1016 59.8594 57.6953 59.0312 58.1328 58.2812C58.6016 57.5 58.9609 56.8438 59.2109 56.3125C59.5234 55.6875 59.7422 55.1406 59.8672 54.6719C59.9609 54.1719 60.0234 53.3125 60.0547 52.0938C60.0859 50.8438 60.0859 49.4375 60.0547 47.875C60.0547 46.2812 60.0234 44.6094 59.9609 42.8594C59.9297 41.1094 59.8828 39.4844 59.8203 37.9844C59.7578 36.4844 59.6797 35.2031 59.5859 34.1406C59.5234 33.0781 59.4766 32.4219 59.4453 32.1719C59.3516 31.7656 59.1641 31.3281 58.8828 30.8594C58.6328 30.4531 58.3047 30 57.8984 29.5C57.4922 28.9688 56.9297 28.3906 56.2109 27.7656ZM104.914 25.6562C106.602 25.7188 108.305 26.0312 110.023 26.5938C111.773 27.125 113.383 28 114.852 29.2188C116.32 30.4062 117.57 31.9531 118.602 33.8594C119.633 35.7344 120.273 38.0312 120.523 40.75C120.742 42.9688 120.461 45.1719 119.68 47.3594C118.93 49.5156 117.883 51.5 116.539 53.3125C115.195 55.125 113.648 56.6719 111.898 57.9531C110.148 59.2031 108.398 60.0312 106.648 60.4375C105.586 60.6875 104.414 60.7188 103.133 60.5312C101.883 60.3125 100.602 59.9219 99.2891 59.3594C98.0078 58.7656 96.7422 58.0156 95.4922 57.1094C94.2734 56.2031 93.1641 55.1719 92.1641 54.0156C91.1641 52.8281 90.3203 51.5469 89.6328 50.1719C88.9766 48.7969 88.5703 47.3594 88.4141 45.8594C88.2578 44.6094 88.2422 43.2344 88.3672 41.7344C88.5234 40.2031 88.8203 38.6875 89.2578 37.1875C89.7266 35.6562 90.3672 34.1875 91.1797 32.7812C92.0234 31.3438 93.0859 30.0938 94.3672 29.0312C95.6484 27.9375 97.1484 27.0938 98.8672 26.5C100.617 25.875 102.633 25.5938 104.914 25.6562ZM96.5234 44.6406C96.0859 47.9844 96.3984 50.6719 97.4609 52.7031C98.5547 54.7344 100.195 55.9688 102.383 56.4062C103.445 56.625 104.461 56.4062 105.43 55.75C106.43 55.0625 107.336 54.0781 108.148 52.7969C108.961 51.5156 109.664 50.0156 110.258 48.2969C110.852 46.5781 111.289 44.7812 111.57 42.9062C111.852 41.0312 111.867 39.3438 111.617 37.8438C111.398 36.3125 111.008 35.0156 110.445 33.9531C109.883 32.8594 109.195 32.0156 108.383 31.4219C107.602 30.8281 106.789 30.5 105.945 30.4375C104.477 30.3438 103.195 30.7344 102.102 31.6094C101.008 32.4531 100.086 33.5625 99.3359 34.9375C98.5859 36.3125 97.9766 37.8594 97.5078 39.5781C97.0703 41.2969 96.7422 42.9844 96.5234 44.6406Z" fill="white"/>
</g>
<defs>
<linearGradient id="paint0_linear_303_949" x1="0" y1="44.792" x2="175.51" y2="44.792" gradientUnits="userSpaceOnUse">
<stop stop-color="#190003"/>
<stop offset="1" stop-color="#701B00"/>
</linearGradient>
<linearGradient id="paint1_linear_303_949" x1="33.1512" y1="99.6121" x2="147.959" y2="-15.1953" gradientUnits="userSpaceOnUse">
<stop stop-color="#7F0A00"/>
<stop offset="1" stop-color="#FF2A00"/>
</linearGradient>
<clipPath id="clip0_303_949">
<rect width="175.51" height="89.58" fill="white"/>
</clipPath>
</defs>
</svg>
