<svg width="26" height="25" viewBox="0 0 26 25" fill="none" xmlns="http://www.w3.org/2000/svg">
<path fill-rule="evenodd" clip-rule="evenodd" d="M11.1877 13.156L4.05181 10.9076L4.0518 10.9076L4.05178 10.9076C1.56747 10.1248 0.325317 9.73339 0.325317 9.00002C0.325317 8.26664 1.56748 7.87525 4.0518 7.09247L4.05181 7.09247L22.7425 1.20325C24.4086 0.6783 25.2416 0.415824 25.6714 0.860347C26.1011 1.30487 25.8107 2.12855 25.2297 3.77589L25.2297 3.77591L25.2297 3.77593L18.9263 21.6513L18.9263 21.6513C18.1406 23.8791 17.7478 24.9931 17.0401 24.9931C16.3324 24.9931 15.9396 23.8791 15.1539 21.6513L15.1539 21.6513L12.6435 14.5321L19.3139 8.22673C19.7153 7.84735 19.7331 7.21443 19.3537 6.81308C18.9743 6.41173 18.3414 6.39392 17.94 6.7733L11.1877 13.156Z" fill="#222222"/>
</svg>
