<svg width="52" height="45" viewBox="0 0 52 45" fill="none" xmlns="http://www.w3.org/2000/svg">
<rect x="1" y="1" width="42.4167" height="42.4167" rx="8" fill="#CBCBCB" stroke="black" stroke-width="2"/>
<rect x="5.4165" y="5.41699" width="33.5833" height="33.5833" rx="8" fill="white"/>
<path d="M6.51151 23.4505C9.07934 25.37 10.0574 25.6398 12.2044 28.5345C15.7152 33.2716 15.1969 35.2297 16.2412 36.1316C17.2816 37.0336 22.0549 37.7621 25.3085 33.6417C28.5621 29.5213 33.6393 18.1468 40.1466 11.3244C46.6538 4.50205 49.6931 2.52472 51.6453 1.49558C53.5975 0.466443 47.4098 0.686146 35.2447 10.2529C26.7853 16.9057 20.7963 26.0908 20.7963 26.0908C20.7963 26.0908 19.1052 21.0685 15.3294 17.7228C11.5536 14.3733 2.24867 20.2629 6.51151 23.4505Z" fill="#2FA124"/>
</svg>
