<svg width="39" height="36" viewBox="0 0 39 36" fill="none" xmlns="http://www.w3.org/2000/svg">
<path fill-rule="evenodd" clip-rule="evenodd" d="M17.2277 19.156L10.0918 16.9076L10.0918 16.9076L10.0918 16.9075C7.6075 16.1248 6.36534 15.7334 6.36534 15C6.36534 14.2666 7.6075 13.8752 10.0918 13.0925L10.0918 13.0925L28.7826 7.20324C30.4486 6.67828 31.2816 6.41581 31.7114 6.86033C32.1411 7.30485 31.8507 8.12853 31.2698 9.77588L31.2698 9.7759L31.2698 9.77591L24.9663 27.6512L24.9663 27.6513C24.1807 29.8791 23.7878 30.9931 23.0801 30.9931C22.3724 30.9931 21.9796 29.8791 21.194 27.6513L21.194 27.6512L18.6835 20.532L25.3539 14.2267C25.7553 13.8473 25.7731 13.2144 25.3937 12.8131C25.0143 12.4117 24.3814 12.3939 23.98 12.7733L17.2277 19.156Z" fill="#222222"/>
</svg>
