<svg width="176" height="90" viewBox="0 0 176 90" fill="none" xmlns="http://www.w3.org/2000/svg">
<g clip-path="url(#clip0_301_937)">
<path d="M175.51 70.33C175.51 80.96 166.89 89.59 156.25 89.59H19.25C8.62 89.58 0 80.96 0 70.33V19.26C0 8.62 8.62 0 19.25 0H156.25C166.88 0 175.51 8.62 175.51 19.26V70.33Z" fill="url(#paint0_linear_301_937)"/>
<path d="M174.65 65.8103C174.65 75.6403 166.26 83.6103 155.92 83.6103H25.19C14.85 83.6103 6.46001 75.6403 6.46001 65.8103V18.6103C6.46001 8.78031 14.84 0.820312 25.19 0.820312H155.93C166.27 0.820312 174.66 8.78031 174.66 18.6103V65.8103H174.65Z" fill="url(#paint1_linear_301_937)"/>
<path opacity="0.47" d="M21.19 9.27043C21.19 9.27043 16.57 10.2404 15.36 13.6404C14.15 17.0404 18.27 17.0404 18.27 17.0404C18.27 17.0404 25.46 7.13043 21.19 9.27043Z" fill="#112D10"/>
<path opacity="0.47" d="M25.81 12.9999C25.81 12.9999 26.3 18.4899 28.72 17.0399C31.15 15.5799 28.72 8.7199 25.81 12.9999Z" fill="#112D10"/>
<path opacity="0.47" d="M21.88 31.5603C21.88 31.5603 17.04 27.8303 15.49 28.9603C13.94 30.1003 12.42 33.1803 13.02 34.1503C13.62 35.1203 18.98 38.0403 18.98 38.0403C18.98 38.0403 18.48 32.3703 21.88 31.5603Z" fill="#112D10"/>
<path opacity="0.47" d="M79.72 8.96961C79.72 8.96961 75.59 8.13961 77.29 11.6196C78.99 15.0996 83.61 11.4796 84.58 10.2496C85.55 9.01961 84.34 3.80961 79.72 8.96961Z" fill="#112D10"/>
<path opacity="0.47" d="M156.3 61.4902C156.3 61.4902 165.04 62.2202 161.16 69.0202C157.27 75.8202 156.3 72.1802 156.3 72.1802L152.9 65.8702C152.9 65.8602 152.41 57.8402 156.3 61.4902Z" fill="#112D10"/>
<path opacity="0.47" d="M152.88 72.1696C152.88 72.1696 155.29 75.8096 152.88 78.2396C150.47 80.6696 146.54 70.2296 152.88 72.1696Z" fill="#112D10"/>
<path opacity="0.47" d="M131.77 68.2896C131.77 68.2896 128.37 69.2596 131.77 71.9296C135.17 74.5996 135.17 67.3096 131.77 68.2896Z" fill="#112D10"/>
<path opacity="0.47" d="M141.74 12.9998L142.69 13.0898C142.69 13.0898 139.78 15.0998 144.15 17.0398C148.52 18.9798 152.21 8.71977 141.74 12.9998Z" fill="#112D10"/>
<path d="M39.5625 27.7188C40.9062 27.8438 42.0938 27.9375 43.125 28C44.1562 28.0625 45.0156 28.125 45.7031 28.1875C46.5156 28.25 47.2031 28.2969 47.7656 28.3281C48.3281 28.3594 49.0156 28.375 49.8281 28.375C50.5156 28.4062 51.375 28.4219 52.4062 28.4219C53.4375 28.4219 54.6562 28.4219 56.0625 28.4219C55.1562 28.8594 54.4531 29.2656 53.9531 29.6406C53.4844 30.0156 53.125 30.3438 52.875 30.625C52.5625 30.9688 52.375 31.2812 52.3125 31.5625C52.2812 31.8125 52.3438 32.2344 52.5 32.8281C52.6562 33.4219 52.875 34.0938 53.1562 34.8438C53.4375 35.5625 53.7812 36.3281 54.1875 37.1406C54.5938 37.9531 55.0156 38.6875 55.4531 39.3438C55.9219 39.9688 56.3906 40.4844 56.8594 40.8906C57.3281 41.2969 57.7812 41.4844 58.2188 41.4531C58.6562 41.4219 59.1875 41.2188 59.8125 40.8438C60.4375 40.4375 61.0781 39.9375 61.7344 39.3438C62.4219 38.75 63.0938 38.1094 63.75 37.4219C64.4062 36.7344 64.9844 36.0625 65.4844 35.4062C66.0156 34.75 66.4375 34.1562 66.75 33.625C67.0938 33.0625 67.2656 32.6562 67.2656 32.4062C67.2344 32.0938 67.1094 31.7344 66.8906 31.3281C66.7031 30.9844 66.3906 30.5781 65.9531 30.1094C65.5156 29.6094 64.9062 29.0469 64.125 28.4219C66.6875 28.5156 68.5625 28.5625 69.75 28.5625H71.4844H73.4531C74.1719 28.5625 75.125 28.5625 76.3125 28.5625C77.5 28.5312 78.9844 28.4844 80.7656 28.4219C79.5469 29.2344 78.4844 29.9688 77.5781 30.625C76.7031 31.25 75.9531 31.7812 75.3281 32.2188C74.6094 32.75 74.0156 33.2188 73.5469 33.625C73.0156 34.0625 72.2812 34.75 71.3438 35.6875C70.5312 36.5 69.4531 37.5938 68.1094 38.9688C66.7656 40.3125 65.0781 42.0625 63.0469 44.2188C62.7656 46.5 62.5781 48.3438 62.4844 49.75C62.4219 51.1562 62.3906 52.2656 62.3906 53.0781C62.3906 54.0156 62.4531 54.7188 62.5781 55.1875C62.7344 55.5625 63 56 63.375 56.5C63.6875 56.9375 64.125 57.4531 64.6875 58.0469C65.2812 58.6406 66.0625 59.2969 67.0312 60.0156C66 59.7656 65.0312 59.5781 64.125 59.4531C63.25 59.3281 62.4688 59.2344 61.7812 59.1719C60.9688 59.0781 60.2344 59.0312 59.5781 59.0312C58.8906 59.0312 58.0781 59.0625 57.1406 59.125C56.3281 59.1875 55.3594 59.2656 54.2344 59.3594C53.1094 59.4531 51.7969 59.5938 50.2969 59.7812C51.0781 59.25 51.7188 58.7188 52.2188 58.1875C52.7188 57.6562 53.1094 57.1719 53.3906 56.7344C53.7344 56.2344 53.9844 55.7656 54.1406 55.3281C54.2656 54.8281 54.3594 54.1094 54.4219 53.1719C54.4844 52.3594 54.4844 51.2812 54.4219 49.9375C54.3906 48.5938 54.2969 46.8906 54.1406 44.8281C52.2656 41.8281 50.7344 39.4688 49.5469 37.75C48.3594 36 47.4375 34.6719 46.7812 33.7656C46 32.7344 45.4375 32.0469 45.0938 31.7031C44.7812 31.4531 44.3594 31.1406 43.8281 30.7656C43.3906 30.4219 42.8281 30.0156 42.1406 29.5469C41.4219 29.0469 40.5625 28.4375 39.5625 27.7188ZM69.9844 28.9844C72.1719 29.0469 73.9844 29.0938 75.4219 29.125C76.8906 29.125 78.0781 29.125 78.9844 29.125H81.4688H95.4375C95.5 29.75 95.5469 30.3594 95.5781 30.9531C95.6406 31.5156 95.6719 32.0156 95.6719 32.4531C95.6719 32.9844 95.6562 33.4688 95.625 33.9062C95.5938 34.3438 95.5469 34.8125 95.4844 35.3125C95.4219 35.75 95.3594 36.2188 95.2969 36.7188C95.2344 37.2188 95.125 37.7344 94.9688 38.2656C94.5312 36.5781 93.9375 35.2969 93.1875 34.4219C92.4688 33.5469 91.7344 32.9062 90.9844 32.5C90.1094 32.0312 89.1875 31.7812 88.2188 31.75C86.9375 31.8125 85.9375 31.9219 85.2188 32.0781C84.5 32.2344 83.9375 32.4531 83.5312 32.7344C83.125 33.0156 82.8125 33.3438 82.5938 33.7188C82.4062 34.0625 82.2031 34.4531 81.9844 34.8906C81.7969 35.2656 81.625 35.8438 81.4688 36.625C81.3125 37.2812 81.1562 38.1719 81 39.2969C80.875 40.4219 80.7344 41.875 80.5781 43.6562C81.4219 43.4062 82.0938 43.1719 82.5938 42.9531C83.125 42.7344 83.5469 42.5469 83.8594 42.3906C84.2031 42.2031 84.4531 42.0312 84.6094 41.875C84.7344 41.6875 84.9219 41.3438 85.1719 40.8438C85.3594 40.4062 85.6094 39.8125 85.9219 39.0625C86.2656 38.3125 86.6719 37.2812 87.1406 35.9688C87.2031 37.4062 87.2344 38.6094 87.2344 39.5781C87.2344 40.5156 87.25 41.2812 87.2812 41.875C87.2812 42.5625 87.2969 43.1094 87.3281 43.5156V45.2969C87.3281 45.9531 87.3281 46.8438 87.3281 47.9688C87.3594 49.0625 87.4062 50.4531 87.4688 52.1406C87.0938 50.9844 86.75 50.0781 86.4375 49.4219C86.1562 48.7344 85.9062 48.2188 85.6875 47.875C85.4375 47.4688 85.2188 47.1875 85.0312 47.0312C84.8125 46.9688 84.5156 46.9062 84.1406 46.8438C83.7969 46.8125 83.3594 46.7969 82.8281 46.7969C82.3281 46.7969 81.6875 46.875 80.9062 47.0312C80.8125 48.75 80.7969 50.1406 80.8594 51.2031C80.9531 52.2344 81.0781 53.0312 81.2344 53.5938C81.3906 54.25 81.5781 54.7188 81.7969 55C82.0781 55.2812 82.6406 55.5156 83.4844 55.7031C84.3281 55.8594 85.2812 55.9219 86.3438 55.8906C87.4375 55.8281 88.5469 55.6406 89.6719 55.3281C90.7969 55.0156 91.7969 54.5 92.6719 53.7812C93.3281 53.1875 94.0312 52.4375 94.7812 51.5312C95.4062 50.75 96.0938 49.7656 96.8438 48.5781C97.625 47.3906 98.3906 45.9531 99.1406 44.2656C99.0156 45.6719 98.9219 46.8438 98.8594 47.7812C98.8281 48.6875 98.7812 49.4219 98.7188 49.9844C98.6562 50.6406 98.6094 51.1406 98.5781 51.4844C98.5781 51.8594 98.5312 52.3906 98.4375 53.0781C98.375 53.6719 98.2656 54.4844 98.1094 55.5156C97.9844 56.5156 97.8125 57.7969 97.5938 59.3594C96.125 59.3906 94.7344 59.4219 93.4219 59.4531C92.1094 59.4531 90.9531 59.4688 89.9531 59.5C88.7656 59.5312 87.6719 59.5625 86.6719 59.5938C85.6406 59.5938 84.5 59.6406 83.25 59.7344C82.1562 59.7969 80.8594 59.8906 79.3594 60.0156C77.8906 60.1406 76.2656 60.3125 74.4844 60.5312C74.6406 58.4062 74.75 56.4062 74.8125 54.5312C74.9062 52.625 74.9688 50.9531 75 49.5156C75.0312 47.8281 75.0312 46.2656 75 44.8281C75.1562 41.2344 75.0938 38.3281 74.8125 36.1094C74.5312 33.8906 74.2031 32.4688 73.8281 31.8438C73.6406 31.625 73.375 31.3594 73.0312 31.0469C72.75 30.7969 72.3594 30.5 71.8594 30.1562C71.3594 29.8125 70.7344 29.4219 69.9844 28.9844ZM130.969 26.6875C130.531 27.6875 130.141 28.5625 129.797 29.3125C129.453 30.0625 129.156 30.7031 128.906 31.2344C128.625 31.8281 128.391 32.3594 128.203 32.8281C128.047 33.1719 127.844 33.6406 127.594 34.2344C127.344 34.7656 127.031 35.4688 126.656 36.3438C126.312 37.1875 125.859 38.2812 125.297 39.625C125.016 38.4688 124.672 37.4531 124.266 36.5781C123.859 35.7031 123.422 34.9375 122.953 34.2812C122.484 33.625 121.984 33.0938 121.453 32.6875C120.953 32.25 120.453 31.8906 119.953 31.6094C118.797 30.9844 117.578 30.6406 116.297 30.5781C114.609 30.6719 113.281 30.9531 112.312 31.4219C111.375 31.8594 110.688 32.375 110.25 32.9688C109.812 33.5312 109.578 34.125 109.547 34.75C109.516 35.3438 109.594 35.8438 109.781 36.25C109.938 36.625 110.484 37.0625 111.422 37.5625C112.391 38.0625 113.547 38.6406 114.891 39.2969C116.266 39.9219 117.734 40.6406 119.297 41.4531C120.859 42.2344 122.297 43.1094 123.609 44.0781C124.953 45.0156 126.078 46.0469 126.984 47.1719C127.922 48.2656 128.438 49.4375 128.531 50.6875C128.625 52.2812 128.609 53.7188 128.484 55C128.359 56.2812 127.922 57.375 127.172 58.2812C126.422 59.1875 125.25 59.9062 123.656 60.4375C122.094 60.9688 119.922 61.2969 117.141 61.4219C114.266 61.5469 111.906 61.3906 110.062 60.9531C108.219 60.5156 106.719 59.9219 105.562 59.1719C104.438 58.4219 103.594 57.5938 103.031 56.6875C102.5 55.7812 102.109 54.9219 101.859 54.1094C101.609 53.2656 101.438 52.5469 101.344 51.9531C101.25 51.3281 101.094 50.9531 100.875 50.8281C100.625 50.6719 100.375 50.5312 100.125 50.4062C99.9062 50.2812 99.6719 50.1719 99.4219 50.0781C99.1719 49.9531 98.9219 49.8438 98.6719 49.75L112.312 47.5469C111.531 48.1719 110.922 48.75 110.484 49.2812C110.078 49.8125 109.766 50.2812 109.547 50.6875C109.297 51.1562 109.125 51.5938 109.031 52C108.969 52.4375 109.109 52.9844 109.453 53.6406C109.797 54.2969 110.266 54.9375 110.859 55.5625C111.484 56.1562 112.203 56.6562 113.016 57.0625C113.828 57.4688 114.672 57.6406 115.547 57.5781C116.641 57.4844 117.531 57.2188 118.219 56.7812C118.906 56.3125 119.422 55.7344 119.766 55.0469C120.141 54.3594 120.359 53.6094 120.422 52.7969C120.484 51.9844 120.406 51.1875 120.188 50.4062C120 49.5938 119.688 48.8438 119.25 48.1562C118.812 47.4375 118.297 46.8438 117.703 46.375C117.172 46 116.344 45.6406 115.219 45.2969C114.125 44.9531 112.891 44.5781 111.516 44.1719C110.172 43.7656 108.781 43.2969 107.344 42.7656C105.938 42.2344 104.656 41.5781 103.5 40.7969C102.375 40.0156 101.469 39.0938 100.781 38.0312C100.125 36.9688 99.875 35.6875 100.031 34.1875C100.156 32.9062 100.562 31.8438 101.25 31C101.969 30.125 102.859 29.4375 103.922 28.9375C105.016 28.4062 106.219 28.0156 107.531 27.7656C108.875 27.5156 110.234 27.375 111.609 27.3438C113.016 27.2812 114.391 27.2969 115.734 27.3906C117.109 27.4844 118.344 27.5938 119.438 27.7188C120.531 27.8438 121.453 27.9688 122.203 28.0938C122.984 28.1875 123.469 28.25 123.656 28.2812C124.469 28.3438 125.281 28.3281 126.094 28.2344C126.812 28.1719 127.594 28.0312 128.438 27.8125C129.312 27.5625 130.156 27.1875 130.969 26.6875Z" fill="white"/>
</g>
<defs>
<linearGradient id="paint0_linear_301_937" x1="0" y1="44.792" x2="175.51" y2="44.792" gradientUnits="userSpaceOnUse">
<stop stop-color="#001403"/>
<stop offset="1" stop-color="#596723"/>
</linearGradient>
<linearGradient id="paint1_linear_301_937" x1="33.1512" y1="99.6121" x2="147.959" y2="-15.1953" gradientUnits="userSpaceOnUse">
<stop stop-color="#4CB748"/>
<stop offset="1" stop-color="#E9E611"/>
</linearGradient>
<clipPath id="clip0_301_937">
<rect width="175.51" height="89.58" fill="white"/>
</clipPath>
</defs>
</svg>
